# This file uses centimeters as units for non-parametric coordinates.

mtllib woodblock3model.mtl
g default
v -222.698886 -42.333244 381.629198
v -219.563847 -43.275686 381.629198
v -219.563847 -42.333244 383.904467
v -219.563847 -40.057998 384.846879
v -222.698886 -40.057998 383.904467
v -223.997472 -40.057998 381.629198
v 222.698886 -42.333244 381.629198
v 223.997472 -40.057998 381.629198
v 222.698886 -40.057998 383.904467
v 219.563847 -40.057998 384.846879
v 219.563847 -42.333244 383.904467
v 219.563847 -43.275686 381.629198
v -222.698886 -23.506569 381.629198
v -223.997472 -25.781815 381.629198
v -222.698886 -25.781815 383.904467
v -219.563847 -25.781815 384.846879
v -219.563847 -23.506569 383.904467
v -219.563847 -22.564127 381.629198
v 222.698886 -23.506569 381.629198
v 219.563847 -22.564127 381.629198
v 219.563847 -23.506569 383.904467
v 219.563847 -25.781815 384.846879
v 222.698886 -25.781815 383.904467
v 223.997472 -25.781815 381.629198
v -222.698886 63.827766 -239.175524
v -223.997472 63.827766 -236.900393
v -222.698886 66.103013 -236.900393
v -219.563847 67.045455 -236.900393
v -219.563847 66.103013 -239.175524
v -219.563847 63.827766 -240.117935
v 222.698886 63.827766 -239.175524
v 219.563847 63.827766 -240.117935
v 219.563847 66.103013 -239.175524
v 219.563847 67.045455 -236.900393
v 222.698886 66.103013 -236.900393
v 223.997472 63.827766 -236.900393
v -222.698886 -42.333244 -236.900393
v -223.997472 -40.057998 -236.900393
v -222.698886 -40.057998 -239.175663
v -219.563847 -40.057998 -240.117935
v -219.563847 -42.333244 -239.175663
v -219.563847 -43.275686 -236.900393
v 222.698886 -42.333244 -236.900393
v 219.563847 -43.275686 -236.900393
v 219.563847 -42.333244 -239.175524
v 219.563847 -40.057998 -240.117935
v 222.698886 -40.057998 -239.175524
v 223.997472 -40.057998 -236.900393
v -222.122714 -41.915084 383.486313
v 222.122714 -41.915084 383.486313
v -222.122714 -23.924730 383.486313
v 222.122714 -23.924730 383.486313
v -222.122714 65.684852 -238.757508
v 222.122714 65.684852 -238.757369
v -222.122714 -41.915084 -238.757508
v 222.122714 -41.915084 -238.757369
v 10.619669 -22.564130 381.629198
v 10.619669 -23.506572 383.904467
v 10.619669 -25.781819 384.846879
v 10.619669 -40.057998 384.846879
v 10.619669 -42.333244 383.904467
v 10.619669 -43.275686 381.629198
v 10.619669 -43.275686 -236.900393
v 10.619669 -42.333244 -239.175524
v 10.619669 -40.057998 -240.117935
v 10.619669 63.827760 -240.117935
v 10.619669 66.103006 -239.175524
v 10.619669 67.045455 -236.900393
v 222.698886 23.561021 94.163231
v 219.563847 24.503465 94.163231
v 10.619669 24.503465 94.163231
v -219.563847 24.503465 94.163231
v -222.698886 23.561021 94.163231
v -223.997472 21.285774 94.163231
v -223.997472 -40.057998 94.163237
v -222.698886 -42.333244 94.163237
v -219.563847 -43.275686 94.163237
v 10.619669 -43.275686 94.163237
v 219.563847 -43.275686 94.163237
v 222.698886 -42.333244 94.163237
v 223.997472 -40.057998 94.163237
v 223.997472 21.285774 94.163231
v 10.619669 67.037828 -18.605412
v 219.563870 67.037828 -18.605412
v 222.698886 66.095382 -18.605401
v 223.997472 63.820136 -18.605401
v 223.997472 -40.057998 -18.605401
v 222.698886 -42.333244 -18.605401
v 219.563847 -43.275686 -18.605401
v 10.619669 -43.275686 -18.605401
v -219.563870 -43.275686 -18.605401
v -222.698886 -42.333244 -18.605401
v -223.997472 -40.057998 -18.605401
v -223.997472 63.820136 -18.605412
v -222.698886 66.095382 -18.605401
v -219.563847 67.037828 -18.605401
vt 0.377474 0.998234
vt 0.377474 0.006249
vt 0.622526 0.998234
vt 0.626766 0.006249
vt 0.377474 0.243751
vt 0.622526 0.243751
vt 0.626766 0.243751
vt 0.126766 0.006249
vt 0.377474 0.498234
vt 0.622526 0.498234
vt 0.873234 0.243751
vt 0.873234 0.006249
vt 0.622526 0.751766
vt 0.377474 0.743751
vt 0.622526 0.743751
vt 0.622526 0.006249
vt 0.377474 0.251766
vt 0.622526 0.251766
vt 0.377474 0.506249
vt 0.622526 0.506249
vt 0.377474 0.751766
vt 0.373234 0.006249
vt 0.373234 0.243751
vt 0.126766 0.243751
vt 0.375000 0.998653
vt 0.373653 -0.000000
vt 0.376670 -0.000000
vt 0.376670 1.000000
vt 0.375106 0.006243
vt 0.626347 -0.000000
vt 0.625000 0.998653
vt 0.624894 0.006243
vt 0.623330 1.000000
vt 0.623330 -0.000000
vt 0.373653 0.250000
vt 0.375000 0.251347
vt 0.375106 0.243757
vt 0.377451 0.249145
vt 0.625000 0.251347
vt 0.626347 0.250000
vt 0.622549 0.249145
vt 0.624894 0.243757
vt 0.125000 0.246294
vt 0.375000 0.503706
vt 0.375000 0.498653
vt 0.126347 0.250000
vt 0.377451 0.500855
vt 0.625000 0.503706
vt 0.875000 0.246294
vt 0.622549 0.500855
vt 0.873653 0.250000
vt 0.625000 0.498653
vt 0.126347 -0.000000
vt 0.375000 0.751347
vt 0.375000 0.746294
vt 0.125000 0.003706
vt 0.377451 0.749145
vt 0.625000 0.751347
vt 0.873653 -0.000000
vt 0.622549 0.749145
vt 0.875000 0.003706
vt 0.625000 0.746294
vt 0.375000 1.000000
vt 0.375000 0.000000
vt 0.625000 0.000000
vt 0.625000 1.000000
vt 0.375000 0.250000
vt 0.625000 0.250000
vt 0.125000 0.250000
vt 0.375000 0.500000
vt 0.625000 0.500000
vt 0.875000 0.250000
vt 0.125000 0.000000
vt 0.375000 0.750000
vt 0.625000 0.750000
vt 0.875000 0.000000
vt 0.505926 0.251766
vt 0.505927 0.249145
vt 0.505926 0.243751
vt 0.505926 0.006249
vt 0.505965 -0.000000
vt 0.505965 1.000000
vt 0.505926 0.998234
vt 0.505926 0.751766
vt 0.505927 0.749145
vt 0.505926 0.743751
vt 0.505926 0.506249
vt 0.505927 0.500855
vt 0.505926 0.498234
vt 0.625000 0.409669
vt 0.784669 0.250000
vt 0.622526 0.409551
vt 0.505926 0.409551
vt 0.377474 0.409551
vt 0.215331 0.250000
vt 0.375000 0.409669
vt 0.215449 0.243751
vt 0.215449 0.006249
vt 0.375000 0.840331
vt 0.215331 -0.000000
vt 0.377474 0.840449
vt 0.505926 0.840449
vt 0.622526 0.840449
vt 0.784669 -0.000000
vt 0.625000 0.840331
vt 0.784551 0.006249
vt 0.784551 0.243751
vt 0.505926 0.471448
vt 0.622526 0.471448
vt 0.625000 0.471776
vt 0.846776 0.250000
vt 0.846448 0.243751
vt 0.846448 0.006249
vt 0.846776 -0.000000
vt 0.625000 0.778224
vt 0.622526 0.778552
vt 0.505926 0.778552
vt 0.377474 0.778552
vt 0.375000 0.778224
vt 0.153224 -0.000000
vt 0.153552 0.006249
vt 0.153552 0.243751
vt 0.153224 0.250000
vt 0.375000 0.471776
vt 0.377474 0.471448
vn -0.004021 -0.999987 0.003228
vn -0.287658 -0.957729 0.002644
vn -0.287890 -0.957664 0.000000
vn -0.004039 -0.999992 -0.000000
vn -0.868595 -0.495519 0.001757
vn -0.999472 -0.032452 0.001778
vn -0.999697 -0.024630 0.000000
vn -0.868498 -0.495692 0.000000
vn 0.000000 -0.056846 0.998383
vn 0.000000 -0.382674 0.923883
vn 0.002053 -0.382357 0.924012
vn 0.004259 -0.056623 0.998387
vn 0.000000 -0.923880 0.382682
vn 0.000000 -0.999995 0.003253
vn 0.004424 -0.999985 0.003225
vn 0.003592 -0.924103 0.382127
vn -0.870219 -0.050270 0.490094
vn -0.870219 0.050270 0.490094
vn -0.999850 0.016845 0.004109
vn -0.284281 -0.038859 0.957953
vn -0.003871 -0.056644 0.998387
vn -0.003871 0.056644 0.998387
vn -0.284281 0.038859 0.957953
vn 0.999472 -0.032452 0.001778
vn 0.868595 -0.495519 0.001757
vn 0.868498 -0.495692 0.000000
vn 0.999697 -0.024630 0.000000
vn 0.287658 -0.957729 0.002644
vn 0.004444 -0.999990 0.000000
vn 0.287889 -0.957664 0.000000
vn 0.284281 -0.038859 0.957953
vn 0.284281 0.038859 0.957953
vn 0.004259 0.056623 0.998387
vn 0.870219 -0.050270 0.490094
vn 0.999850 0.016845 0.004109
vn 0.870219 0.050270 0.490094
vn -0.865649 0.493895 0.081969
vn -0.861033 0.491430 0.130841
vn -0.999696 0.024214 0.004535
vn -0.284034 0.945912 0.156763
vn -0.004885 0.986540 0.163448
vn -0.003712 0.975762 0.218804
vn -0.282839 0.940861 0.186500
vn -0.000000 0.986548 0.163471
vn 0.000000 0.923881 0.382681
vn 0.003592 0.924103 0.382126
vn 0.005373 0.986538 0.163445
vn 0.000000 0.382674 0.923883
vn 0.000000 0.056846 0.998383
vn 0.002053 0.382357 0.924012
vn 0.284034 0.945912 0.156763
vn 0.282839 0.940861 0.186500
vn 0.004084 0.975753 0.218837
vn 0.865649 0.493895 0.081969
vn 0.999696 0.024214 0.004535
vn 0.861033 0.491430 0.130841
vn -0.999909 0.012194 -0.005848
vn -0.868902 0.007653 -0.494925
vn -0.868902 -0.007653 -0.494925
vn -0.999909 -0.012193 -0.005848
vn -0.287339 0.005903 -0.957811
vn -0.004013 0.008842 -0.999953
vn -0.004013 -0.008842 -0.999953
vn -0.287339 -0.005902 -0.957811
vn 0.000000 0.008877 -0.999961
vn 0.000000 0.382674 -0.923883
vn 0.002053 0.382357 -0.924012
vn 0.004416 0.008839 -0.999951
vn -0.000000 0.923871 -0.382703
vn -0.000000 0.999991 -0.004238
vn 0.004418 0.999982 -0.004202
vn 0.003592 0.924094 -0.382148
vn 0.287366 0.005903 -0.957803
vn 0.287366 -0.005903 -0.957803
vn 0.004416 -0.008839 -0.999951
vn 0.868893 0.007653 -0.494941
vn 0.999909 0.012194 -0.005848
vn 0.999909 -0.012192 -0.005848
vn 0.868893 -0.007653 -0.494941
vn 0.000000 -0.999991 -0.004273
vn 0.000000 -0.923874 -0.382697
vn 0.003592 -0.924094 -0.382147
vn 0.004418 -0.999981 -0.004237
vn 0.000000 -0.382661 -0.923889
vn 0.000000 -0.008876 -0.999961
vn 0.002053 -0.382357 -0.924012
vn -0.000000 0.975845 0.218466
vn 0.000000 -1.000000 -0.000000
vn -0.813910 -0.410824 0.410820
vn -0.003265 -0.924083 0.382178
vn -0.242203 -0.911023 0.333729
vn -0.001865 -0.382387 0.924000
vn -0.242195 -0.333725 0.911026
vn 0.242204 -0.911022 0.333730
vn 0.813909 -0.410827 0.410820
vn 0.242194 -0.333725 0.911027
vn -0.003265 0.924083 0.382177
vn -0.242204 0.911023 0.333727
vn -0.813909 0.410827 0.410820
vn -0.001865 0.382387 0.924001
vn -0.242194 0.333726 0.911027
vn 0.813910 0.410824 0.410820
vn 0.242203 0.911024 0.333727
vn 0.242195 0.333725 0.911026
vn -0.001865 0.382386 -0.924001
vn -0.242175 0.333697 -0.911042
vn -0.868622 0.495470 -0.002294
vn -0.813913 0.410807 -0.410833
vn -0.287585 0.957749 -0.003440
vn -0.004015 0.999983 -0.004206
vn -0.003265 0.924075 -0.382199
vn -0.242196 0.911022 -0.333738
vn 0.868625 0.495464 -0.002294
vn 0.813904 0.410819 -0.410838
vn 0.242182 0.333727 -0.911029
vn 0.287590 0.957747 -0.003440
vn 0.242205 0.911015 -0.333748
vn -0.003265 -0.924079 -0.382188
vn -0.004016 -0.999983 -0.004240
vn -0.287588 -0.957748 -0.003473
vn -0.242204 -0.911022 -0.333730
vn -0.868625 -0.495464 -0.002311
vn -0.813907 -0.410829 -0.410822
vn -0.001865 -0.382363 -0.924010
vn -0.242197 -0.333694 -0.911037
vn 0.868625 -0.495464 -0.002311
vn 0.813906 -0.410815 -0.410838
vn 0.287585 -0.957749 -0.003473
vn 0.242204 -0.911015 -0.333750
vn 0.242185 -0.333726 -0.911029
vn 0.003826 0.991899 0.126971
vn 0.284659 0.946905 0.149470
vn 0.000000 0.991845 0.127453
vn -0.003477 0.991895 0.127015
vn -0.284655 0.946906 0.149468
vn -0.999818 0.018788 0.003185
vn -0.868012 0.495421 0.033355
vn -0.999914 -0.013128 0.000000
vn -0.868499 -0.495692 0.000000
vn -0.004039 -0.999992 0.000000
vn -0.287892 -0.957663 0.000000
vn 0.000000 -1.000000 0.000000
vn 0.004444 -0.999990 0.000000
vn 0.287889 -0.957664 0.000000
vn 0.999914 -0.013128 0.000000
vn 0.868499 -0.495692 0.000000
vn 0.999818 0.018788 0.003185
vn 0.868015 0.495417 0.033355
g pCube2
usemtl initialShadingGroup
f 2/1/1 1/25/2 76/99/3 77/101/4
f 1/26/5 6/22/6 75/98/7 76/100/8
f 60/80/9 61/81/10 11/34/11 10/16/12
f 61/82/13 62/83/14 12/3/15 11/33/16
f 6/22/6 5/29/17 15/37/18 14/23/19
f 5/29/20 4/2/21 16/5/22 15/37/23
f 8/4/24 7/30/25 80/104/26 81/106/27
f 7/31/28 12/3/15 79/103/29 80/105/30
f 10/16/12 9/32/31 23/42/32 22/6/33
f 9/32/34 8/4/24 24/7/35 23/42/36
f 14/23/19 13/35/37 73/95/38 74/97/39
f 13/36/40 18/17/41 72/94/42 73/96/43
f 57/77/44 58/78/45 21/41/46 20/18/47
f 58/78/48 59/79/49 22/6/33 21/41/50
f 20/18/47 19/39/51 69/90/52 70/92/53
f 19/40/54 24/7/35 82/107/55 69/91/56
f 26/24/57 25/43/58 39/56/59 38/8/60
f 25/44/61 30/19/62 40/14/63 39/55/64
f 66/87/65 67/88/66 33/50/67 32/20/68
f 67/88/69 68/89/70 34/10/71 33/50/72
f 32/20/68 31/48/73 47/62/74 46/15/75
f 31/49/76 36/11/77 48/12/78 47/61/79
f 63/84/80 64/85/81 45/60/82 44/13/83
f 64/85/84 65/86/85 46/15/75 45/60/86
f 60/80/9 10/16/12 22/6/33 59/79/49
f 71/93/87 57/77/44 20/18/47 70/92/53
f 66/87/65 32/20/68 46/15/75 65/86/85
f 78/102/88 79/103/29 12/3/15 62/83/14
f 8/4/24 81/106/27 82/107/55 24/7/35
f 75/98/7 6/22/6 14/23/19 74/97/39
f 5/29/17 6/22/6 1/26/5 49/64/89
f 1/25/2 2/1/1 3/28/90 49/63/91
f 3/27/92 4/2/21 5/29/20 49/64/93
f 11/33/16 12/3/15 7/31/28 50/66/94
f 7/30/25 8/4/24 9/32/34 50/65/95
f 9/32/31 10/16/12 11/34/11 50/65/96
f 17/38/97 18/17/41 13/36/40 51/67/98
f 13/35/37 14/23/19 15/37/18 51/67/99
f 15/37/23 16/5/22 17/38/100 51/67/101
f 23/42/36 24/7/35 19/40/54 52/68/102
f 19/39/51 20/18/47 21/41/46 52/68/103
f 21/41/50 22/6/33 23/42/32 52/68/104
f 29/47/105 30/19/62 25/44/61 53/70/106
f 25/43/58 26/24/57 27/46/107 53/69/108
f 27/45/109 28/9/110 29/47/111 53/70/112
f 35/51/113 36/11/77 31/49/76 54/72/114
f 31/48/73 32/20/68 33/50/67 54/71/115
f 33/50/72 34/10/71 35/52/116 54/71/117
f 41/57/118 42/21/119 37/54/120 55/74/121
f 37/53/122 38/8/60 39/56/59 55/73/123
f 39/55/64 40/14/63 41/57/124 55/74/125
f 47/61/79 48/12/78 43/59/126 56/76/127
f 43/58/128 44/13/83 45/60/82 56/75/129
f 45/60/86 46/15/75 47/62/74 56/75/130
f 18/17/41 17/38/97 58/78/45 57/77/44
f 17/38/100 16/5/22 59/79/49 58/78/48
f 4/2/21 60/80/9 59/79/49 16/5/22
f 4/2/21 3/27/92 61/81/10 60/80/9
f 3/28/90 2/1/1 62/83/14 61/82/13
f 77/101/4 78/102/88 62/83/14 2/1/1
f 42/21/119 41/57/118 64/85/81 63/84/80
f 41/57/124 40/14/63 65/86/85 64/85/84
f 30/19/62 66/87/65 65/86/85 40/14/63
f 30/19/62 29/47/105 67/88/66 66/87/65
f 29/47/111 28/9/110 68/89/70 67/88/69
f 18/17/41 57/77/44 71/93/87 72/94/42
f 84/109/131 85/110/132 35/52/116 34/10/71
f 68/89/70 83/108/133 84/109/131 34/10/71
f 96/125/134 83/108/133 68/89/70 28/9/110
f 95/124/135 96/125/134 28/9/110 27/45/109
f 94/122/136 95/123/137 27/46/107 26/24/57
f 38/8/60 93/121/138 94/122/136 26/24/57
f 92/120/139 93/121/138 38/8/60 37/53/122
f 91/118/140 92/119/141 37/54/120 42/21/119
f 42/21/119 63/84/80 90/117/142 91/118/140
f 63/84/80 44/13/83 89/116/143 90/117/142
f 88/115/144 89/116/143 44/13/83 43/58/128
f 87/113/145 88/114/146 43/59/126 48/12/78
f 86/112/147 87/113/145 48/12/78 36/11/77
f 85/111/148 86/112/147 36/11/77 35/51/113
f 83/108/133 71/93/87 70/92/53 84/109/131
f 70/92/53 69/90/52 85/110/132 84/109/131
f 69/91/56 82/107/55 86/112/147 85/111/148
f 82/107/55 81/106/27 87/113/145 86/112/147
f 81/106/27 80/104/26 88/114/146 87/113/145
f 80/105/30 79/103/29 89/116/143 88/115/144
f 90/117/142 89/116/143 79/103/29 78/102/88
f 91/118/140 90/117/142 78/102/88 77/101/4
f 77/101/4 76/99/3 92/119/141 91/118/140
f 76/100/8 75/98/7 93/121/138 92/120/139
f 94/122/136 93/121/138 75/98/7 74/97/39
f 74/97/39 73/95/38 95/123/137 94/122/136
f 73/96/43 72/94/42 96/125/134 95/124/135
f 72/94/42 71/93/87 83/108/133 96/125/134
