# This file uses centimeters as units for non-parametric coordinates.

mtllib woodblock2model.mtl
g default
v -31.286865 22.537781 -50.000000
v 0.000045 25.000122 -50.000000
v 0.000045 25.000122 50.000000
v -31.286865 22.537781 50.000000
v 132.176941 49.371632 -49.461960
v 132.826035 48.183025 -50.000000
v -132.165070 49.372646 -49.452744
v 132.102554 50.000000 -48.071400
v -132.082108 50.000000 -48.044689
v -132.102554 50.000000 48.071400
v -132.176941 49.371632 49.461960
v 132.082108 50.000000 48.044689
v -132.826035 48.183025 50.000000
v 132.165070 49.372646 49.452744
v 31.286959 22.537781 -50.000000
v 31.286959 22.537781 50.000000
v 198.097031 -49.442947 -49.442951
v 198.098114 -48.098114 -50.000000
v 199.196228 -49.195724 -49.195820
v 198.098114 -50.000000 -48.098114
v 199.442947 -49.442951 -48.098812
v 199.442947 -48.098114 -49.442951
v 200.000000 -48.098114 -48.098114
v 199.372620 -17.834833 -49.452759
v 200.000000 -17.917887 -48.044689
v 61.803482 15.211411 -50.000000
v 61.803482 15.211411 50.000000
v 198.183029 -17.173971 -50.000000
v 134.125549 48.564468 -49.461945
v 133.312866 49.358280 -49.212902
v 199.358398 -16.691090 -49.206444
v 198.565735 -15.874481 -49.461628
v 134.622391 48.956249 -48.071400
v 198.956253 -15.377606 -48.071400
v 133.466278 49.728737 -48.071434
v 199.728775 -16.539055 -48.057457
v 154.970917 -49.442947 -49.442951
v 153.822311 -48.098114 -50.000000
v 155.446686 -50.000000 -48.098114
v 132.826035 48.183025 50.000000
v 90.798203 3.201385 -50.000000
v 90.798203 3.201385 50.000000
v 200.000000 -17.917887 48.044689
v 133.460983 49.728760 48.058159
v 199.724976 -16.535278 48.043949
v 134.622391 48.956249 48.071400
v 117.557167 -13.196533 -50.000000
v 117.557167 -13.196533 50.000000
v 141.421478 -33.578583 -50.000000
v 141.421478 -33.578583 50.000000
v 198.097031 -49.442947 49.442951
v 198.098114 -50.000000 48.098114
v 199.196228 -49.195724 49.195820
v 199.442947 -49.442951 48.098812
v 198.098114 -48.098114 50.000000
v 200.000000 -48.098114 48.098114
v 198.941788 -15.363150 48.044689
v 199.442947 -48.098114 49.442951
v 199.372620 -17.834833 49.452759
v 198.183029 -17.173971 50.000000
v 155.446686 -50.000000 48.098114
v 199.355438 -16.687349 49.200039
v 133.308167 49.358856 49.206589
v 198.558060 -15.865368 49.452419
v 134.125549 48.564468 49.461945
v 154.970917 -49.442947 49.442951
v 153.822311 -48.098114 50.000000
v -198.183029 -17.173971 50.000000
v -198.098114 -48.098114 50.000000
v -153.822281 -48.098114 50.000000
v -141.421387 -33.578537 50.000000
v -117.557076 -13.196487 50.000000
v -90.798103 3.201416 50.000000
v -61.803391 15.211411 50.000000
v -133.312866 49.358276 49.212948
v -133.466278 49.728737 48.071541
v -134.125549 48.564468 49.461945
v -134.622391 48.956249 48.071400
v -132.826035 48.183025 -50.000000
v -61.803391 15.211411 -50.000000
v -133.460983 49.728760 -48.058159
v -134.622391 48.956249 -48.071400
v -198.558121 -15.865453 49.452435
v -90.798103 3.201416 -50.000000
v -198.941788 -15.363150 48.044689
v -133.308167 49.358856 -49.206589
v -134.125549 48.564468 -49.461945
v -199.355469 -16.687386 49.200047
v -199.372620 -17.834833 49.452759
v -199.724976 -16.535278 48.043949
v -200.000000 -17.917887 48.044689
v -198.941788 -15.363150 -48.044689
v -198.558121 -15.865453 -49.452435
v -199.442947 -48.098114 49.442951
v -200.000000 -48.098114 48.098114
v -117.557076 -13.196487 -50.000000
v -198.097031 -49.442947 49.442951
v -199.196228 -49.195724 49.195820
v -198.098114 -50.000000 48.098114
v -199.442947 -49.442951 48.098812
v -198.183029 -17.173971 -50.000000
v -199.355469 -16.687386 -49.200047
v -199.724976 -16.535278 -48.043949
v -200.000000 -17.917887 -48.044689
v -199.372620 -17.834833 -49.452759
v -141.421387 -33.578537 -50.000000
v -198.098114 -48.098114 -50.000000
v -199.442947 -48.098114 -49.442951
v -200.000000 -48.098114 -48.098114
v -199.196228 -49.195724 -49.195820
v -198.097031 -49.442947 -49.442951
v -198.098114 -50.000000 -48.098114
v -199.442947 -49.442951 -48.098812
v -154.970886 -49.442947 49.442951
v -155.446655 -50.000000 48.098114
v -155.446655 -50.000000 -48.098114
v -154.970886 -49.442947 -49.442951
v -153.822281 -48.098114 -50.000000
vt 0.945110 0.540242
vt 0.945111 0.537563
vt 0.947297 0.538056
vt 0.947789 0.540242
vt 0.753469 0.540242
vt 0.753467 0.537563
vt 0.945003 0.600367
vt 0.947808 0.600533
vt 0.751282 0.538056
vt 0.750789 0.540242
vt 0.753575 0.600367
vt 0.947318 0.602811
vt 0.945029 0.603114
vt 0.750770 0.600533
vt 0.753576 0.603121
vt 0.947826 0.604438
vt 0.945056 0.605428
vt 0.751273 0.602818
vt 0.753575 0.605457
vt 0.947827 0.732813
vt 0.945056 0.733593
vt 0.750771 0.604456
vt 0.753522 0.733593
vt 0.947331 0.734394
vt 0.945056 0.735132
vt 0.750752 0.732813
vt 0.753548 0.735132
vt 0.751260 0.734395
vt 0.742101 0.863243
vt 0.744906 0.863409
vt 0.744403 0.865694
vt 0.742100 0.865997
vt 0.744887 0.803118
vt 0.742208 0.803118
vt 0.744906 0.867332
vt 0.742101 0.868333
vt 0.550674 0.865997
vt 0.550673 0.863243
vt 0.550567 0.803118
vt 0.744395 0.800932
vt 0.742209 0.800439
vt 0.744925 0.995688
vt 0.742154 0.996469
vt 0.550673 0.868333
vt 0.548371 0.865694
vt 0.547868 0.863409
vt 0.547887 0.803118
vt 0.550565 0.800439
vt 0.744429 0.997270
vt 0.742155 0.998008
vt 0.550620 0.996469
vt 0.547869 0.867332
vt 0.548380 0.800932
vt 0.550646 0.998008
vt 0.547850 0.995688
vt 0.548358 0.997271
vt 0.001892 0.461650
vt 0.001892 0.399320
vt 0.201111 0.399320
vt 0.201111 0.461650
vt 0.001892 0.336991
vt 0.201111 0.336991
vt 0.001892 0.522444
vt 0.201111 0.522444
vt 0.001892 0.276196
vt 0.201111 0.276196
vt 0.001892 0.580207
vt 0.201111 0.580207
vt 0.001892 0.218433
vt 0.201111 0.218433
vt 0.001892 0.633516
vt 0.201111 0.633516
vt 0.001892 0.165124
vt 0.201111 0.165124
vt 0.001892 0.681058
vt 0.201111 0.681058
vt 0.001892 0.117582
vt 0.201111 0.117582
vt 0.201111 0.705763
vt 0.200001 0.708052
vt 0.197322 0.708999
vt 0.005681 0.708999
vt 0.003002 0.708052
vt 0.001892 0.705763
vt 0.001892 0.092877
vt 0.003002 0.090589
vt 0.005681 0.089641
vt 0.197322 0.089641
vt 0.200001 0.090589
vt 0.201111 0.092877
vt 0.200001 0.793967
vt 0.197322 0.793969
vt 0.005681 0.793969
vt 0.003002 0.793967
vt 0.003002 0.004673
vt 0.005681 0.004671
vt 0.197322 0.004671
vt 0.200001 0.004673
vt 0.199509 0.796157
vt 0.197323 0.796649
vt 0.005679 0.796649
vt 0.003494 0.796157
vt 0.003494 0.002484
vt 0.005679 0.001992
vt 0.197323 0.001992
vt 0.199509 0.002484
vt 0.808995 0.531015
vt 0.809048 0.004709
vt 0.811819 0.004561
vt 0.811800 0.531180
vt 0.617514 0.531056
vt 0.617567 0.004750
vt 0.811322 0.002298
vt 0.809048 0.001992
vt 0.811310 0.533457
vt 0.809022 0.533762
vt 0.614743 0.531204
vt 0.614762 0.004584
vt 0.617540 0.002003
vt 0.617513 0.533772
vt 0.615240 0.533467
vt 0.615252 0.002307
vt 0.207533 0.662618
vt 0.207535 0.135999
vt 0.209903 0.134706
vt 0.209903 0.663935
vt 0.207562 0.133736
vt 0.209143 0.132117
vt 0.340107 0.004502
vt 0.401713 0.004671
vt 0.401713 0.092877
vt 0.372788 0.117582
vt 0.332183 0.165124
vt 0.299515 0.218433
vt 0.275589 0.276196
vt 0.260993 0.336991
vt 0.256088 0.399320
vt 0.260993 0.461650
vt 0.275589 0.522444
vt 0.299515 0.580207
vt 0.332183 0.633516
vt 0.372788 0.681059
vt 0.401713 0.705764
vt 0.401713 0.793969
vt 0.340107 0.794138
vt 0.207561 0.664895
vt 0.209143 0.666524
vt 0.337518 0.003740
vt 0.341423 0.002132
vt 0.401713 0.001992
vt 0.404393 0.004673
vt 0.404393 0.090589
vt 0.404393 0.708052
vt 0.404393 0.793967
vt 0.341423 0.796508
vt 0.401713 0.796649
vt 0.337500 0.794886
vt 0.339145 0.002161
vt 0.403900 0.002484
vt 0.403900 0.796157
vt 0.339137 0.796474
vt 0.607998 0.136022
vt 0.607996 0.662642
vt 0.605628 0.663935
vt 0.605628 0.134706
vt 0.607969 0.664905
vt 0.606388 0.666524
vt 0.475424 0.794138
vt 0.413817 0.793969
vt 0.413817 0.705763
vt 0.442743 0.681059
vt 0.483348 0.633516
vt 0.516016 0.580207
vt 0.539942 0.522444
vt 0.554538 0.461650
vt 0.559443 0.399320
vt 0.554538 0.336991
vt 0.539942 0.276196
vt 0.516016 0.218433
vt 0.483348 0.165124
vt 0.442743 0.117582
vt 0.413817 0.092877
vt 0.413817 0.004671
vt 0.475424 0.004502
vt 0.607970 0.133745
vt 0.606388 0.132117
vt 0.478031 0.794886
vt 0.474108 0.796508
vt 0.413817 0.796649
vt 0.411138 0.793967
vt 0.411138 0.708052
vt 0.411138 0.090589
vt 0.411138 0.004673
vt 0.413817 0.001992
vt 0.474108 0.002132
vt 0.478031 0.003755
vt 0.476394 0.796474
vt 0.411631 0.796157
vt 0.411631 0.002484
vt 0.476394 0.002166
vn 0.156435 -0.987688 0.000000
vn 0.000000 -1.000000 0.000000
vn 0.000000 -1.000000 0.000000
vn 0.156435 -0.987688 0.000000
vn -0.000545 0.415389 -0.909644
vn 0.000524 0.415377 -0.909649
vn 0.000900 0.004572 -0.999989
vn -0.000907 0.004561 -0.999989
vn -0.001021 0.999977 -0.006644
vn 0.001015 0.999978 -0.006627
vn 0.000533 0.912434 -0.409225
vn -0.000585 0.912443 -0.409204
vn 0.001021 0.999977 0.006644
vn -0.001015 0.999978 0.006627
vn -0.000533 0.912434 0.409225
vn 0.000585 0.912443 0.409204
vn 0.000545 0.415389 0.909644
vn -0.000524 0.415377 0.909649
vn -0.000907 0.004580 0.999989
vn 0.000908 0.004561 0.999989
vn -0.156435 -0.987688 0.000000
vn -0.156435 -0.987688 0.000000
vn 0.325082 -0.325343 -0.887960
vn 0.007688 -0.381815 -0.924207
vn 0.000941 -0.001346 -0.999999
vn 0.397537 -0.011707 -0.917512
vn 0.012604 -0.999904 -0.005678
vn 0.007827 -0.924212 -0.381800
vn 0.325015 -0.887947 -0.325447
vn 0.382283 -0.924039 -0.003545
vn 0.999827 -0.017592 -0.005993
vn 0.924040 -0.382280 -0.003539
vn 0.888020 -0.325047 -0.325214
vn 0.919237 -0.009380 -0.393592
vn 0.401583 0.004015 -0.915814
vn 0.001357 0.000908 -0.999999
vn 0.999943 0.008654 -0.006185
vn 0.919007 0.006167 -0.394194
vn -0.309017 -0.951057 0.000000
vn -0.309017 -0.951057 0.000000
vn 0.290945 0.293138 -0.910726
vn 0.293191 0.290922 -0.910716
vn 0.201364 0.486109 -0.850383
vn 0.491174 0.198332 -0.848182
vn 0.354541 0.855925 -0.376421
vn 0.381392 0.924403 -0.004518
vn 0.858996 0.350089 -0.373582
vn 0.923980 0.382415 -0.004504
vn 0.645774 0.643400 -0.411112
vn 0.643435 0.645728 -0.411129
vn 0.705010 0.709167 -0.006607
vn 0.709169 0.705008 -0.006611
vn 0.000000 -0.382684 -0.923879
vn 0.000000 -0.000526 -1.000000
vn 0.000000 -0.999976 -0.006878
vn 0.000000 -0.923880 -0.382683
vn -0.453991 -0.891006 0.000000
vn -0.453991 -0.891006 0.000000
vn 0.999944 0.008608 0.006189
vn 0.924399 0.381401 0.004565
vn 0.382406 0.923983 0.004580
vn 0.709180 0.704997 0.006620
vn 0.705022 0.709155 0.006604
vn -0.587785 -0.809017 0.000000
vn -0.587785 -0.809017 0.000000
vn -0.696716 -0.717347 0.000000
vn -0.696716 -0.717347 0.000000
vn 0.325014 -0.887948 0.325446
vn 0.007827 -0.924212 0.381799
vn 0.012604 -0.999904 0.005678
vn 0.382283 -0.924039 0.003545
vn 0.000941 -0.001346 0.999999
vn 0.007688 -0.381815 0.924207
vn 0.325081 -0.325343 0.887961
vn 0.397536 -0.011707 0.917512
vn 0.888018 -0.325056 0.325212
vn 0.924040 -0.382281 0.003538
vn 0.999827 -0.017592 0.005993
vn 0.919238 -0.009380 0.393592
vn 0.919022 0.006351 0.394155
vn 0.401641 0.004165 0.915788
vn 0.001360 0.000911 0.999999
vn 0.000000 -0.999976 0.006878
vn 0.858009 0.355291 0.370929
vn 0.350153 0.858882 0.373784
vn 0.492629 0.203892 0.846017
vn 0.295170 0.292883 0.909447
vn 0.198428 0.491015 0.848252
vn 0.292896 0.295103 0.909465
vn 0.646602 0.644128 0.408662
vn 0.644218 0.646474 0.408724
vn 0.000000 -0.923880 0.382682
vn 0.000000 -0.382684 0.923880
vn 0.000000 -0.000526 1.000000
vn -0.760406 -0.649448 0.000000
vn -0.760406 -0.649448 0.000000
vn -0.760406 -0.649448 0.000000
vn -0.760406 -0.649448 0.000000
vn -0.760406 -0.649448 0.000000
vn -0.760406 -0.649448 0.000000
vn -0.001360 0.000911 0.999999
vn -0.000941 -0.001346 0.999999
vn 0.000000 -0.000526 1.000000
vn 0.000000 0.000000 1.000000
vn 0.000000 0.000000 1.000000
vn 0.000000 0.000000 1.000000
vn 0.000000 0.000000 1.000000
vn 0.000000 0.000000 1.000000
vn 0.000000 0.000000 1.000000
vn 0.000000 0.000000 1.000000
vn 0.000000 0.000000 1.000000
vn 0.000000 0.000000 1.000000
vn 0.000000 0.000000 1.000000
vn 0.000000 0.000000 1.000000
vn -0.354541 0.855919 0.376436
vn -0.381392 0.924403 0.004519
vn -0.201358 0.486094 0.850393
vn -0.292917 0.295050 0.909475
vn -0.705010 0.709167 0.006604
vn -0.644255 0.646427 0.408739
vn 0.309017 -0.951057 0.000000
vn 0.309017 -0.951057 0.000000
vn -0.382406 0.923983 -0.004580
vn -0.705021 0.709155 -0.006606
vn -0.295167 0.292881 0.909449
vn -0.646601 0.644128 0.408664
vn -0.709180 0.704996 0.006622
vn 0.453990 -0.891007 0.000000
vn 0.453990 -0.891007 0.000000
vn -0.350153 0.858881 -0.373785
vn -0.644217 0.646473 -0.408727
vn -0.198428 0.491015 -0.848252
vn -0.292893 0.295102 -0.909466
vn -0.492626 0.203886 0.846020
vn -0.401641 0.004164 0.915788
vn -0.858015 0.355283 0.370923
vn -0.923872 0.382676 0.004529
vn -0.999943 0.008665 0.006188
vn -0.919022 0.006351 0.394154
vn -0.397536 -0.011707 0.917512
vn -0.709180 0.704996 -0.006622
vn -0.646601 0.644128 -0.408664
vn -0.295167 0.292881 -0.909449
vn -0.001360 0.000911 -0.999999
vn -0.919238 -0.009380 0.393592
vn -0.999827 -0.017592 0.005993
vn 0.587785 -0.809017 0.000000
vn 0.587785 -0.809017 0.000000
vn -0.325082 -0.325343 0.887960
vn -0.007688 -0.381815 0.924207
vn -0.012604 -0.999905 0.005679
vn -0.007827 -0.924210 0.381803
vn -0.325015 -0.887947 0.325447
vn -0.382283 -0.924039 0.003545
vn -0.888018 -0.325056 0.325212
vn -0.924040 -0.382281 0.003539
vn -0.858013 0.355287 -0.370923
vn -0.923872 0.382676 -0.004529
vn -0.492626 0.203886 -0.846020
vn -0.401641 0.004164 -0.915788
vn -0.999943 0.008665 -0.006188
vn -0.919022 0.006352 -0.394154
vn 0.696716 -0.717347 0.000000
vn 0.696716 -0.717347 0.000000
vn -0.000941 -0.001346 -0.999999
vn -0.397536 -0.011707 -0.917512
vn -0.919237 -0.009380 -0.393592
vn -0.999827 -0.017592 -0.005993
vn -0.007688 -0.381815 -0.924207
vn -0.325081 -0.325343 -0.887961
vn -0.325014 -0.887948 -0.325446
vn -0.007827 -0.924211 -0.381802
vn -0.012604 -0.999905 -0.005679
vn -0.382283 -0.924039 -0.003545
vn -0.888018 -0.325054 -0.325213
vn -0.924040 -0.382281 -0.003539
vn 0.000000 -0.382684 0.923879
vn 0.000000 -0.999976 0.006878
vn 0.000000 -0.923879 0.382686
vn 0.000000 -0.999976 -0.006878
vn 0.000000 -0.382684 -0.923879
vn 0.000000 -0.000526 -1.000000
vn 0.000000 -0.923879 -0.382685
vn 0.760406 -0.649449 0.000000
vn 0.760406 -0.649449 0.000000
vn 0.760406 -0.649449 0.000000
vn 0.760406 -0.649449 0.000000
vn 0.760406 -0.649449 0.000000
vn 0.760406 -0.649449 0.000000
vn 0.000000 0.000000 -1.000000
vn 0.000000 0.000000 -1.000000
vn 0.000000 0.000000 -1.000000
vn 0.000000 0.000000 -1.000000
vn 0.000000 0.000000 -1.000000
vn 0.000000 0.000000 -1.000000
vn 0.000000 0.000000 -1.000000
vn 0.000000 0.000000 -1.000000
vn 0.000000 0.000000 -1.000000
vn 0.000000 0.000000 -1.000000
vn 0.000000 0.000000 -1.000000
g pCube11
usemtl initialShadingGroup
f 1/57/1 2/58/2 3/59/3 4/60/4
f 7/123/5 5/124/6 6/125/7 79/126/8
f 9/107/9 8/108/10 5/109/11 7/110/12
f 12/112/13 10/111/14 11/117/15 14/118/16
f 14/162/17 11/163/18 13/164/19 40/165/20
f 2/58/2 15/61/21 16/62/22 3/59/3
f 10/111/14 12/112/13 8/108/10 9/107/9
f 19/159/23 17/151/24 18/130/25 22/150/26
f 20/96/27 17/95/28 19/103/29 21/104/30
f 23/1/31 21/2/32 19/3/33 22/4/34
f 24/149/35 22/150/26 18/130/25 28/129/36
f 25/7/37 23/1/31 22/4/34 24/8/38
f 15/61/21 26/65/39 27/66/40 16/62/22
f 28/129/36 6/125/7 29/128/41 32/148/42
f 6/125/7 5/124/6 30/127/43 29/128/41
f 31/158/44 24/149/35 28/129/36 32/148/42
f 30/113/45 5/109/11 8/108/10 35/114/46
f 25/7/37 24/8/38 31/12/47 36/13/48
f 32/16/49 29/20/50 33/21/51 34/17/52
f 33/21/51 29/20/50 30/24/45 35/25/46
f 31/12/47 32/16/49 34/17/52 36/13/48
f 18/130/25 17/151/24 37/152/53 38/131/54
f 17/95/28 20/96/27 39/87/55 37/86/56
f 26/65/39 41/69/57 42/70/58 27/66/40
f 43/11/59 25/7/37 36/13/48 45/15/60
f 44/119/61 35/114/46 8/108/10 12/112/13
f 45/15/60 36/13/48 34/17/52 57/19/62
f 46/23/63 33/21/51 35/25/46 44/27/61
f 34/17/52 33/21/51 46/23/63 57/19/62
f 41/69/57 47/73/64 48/74/65 42/70/58
f 47/73/64 49/77/66 50/78/67 48/74/65
f 53/106/68 51/98/69 52/97/70 54/105/71
f 55/183/72 51/193/73 53/199/74 58/194/75
f 53/9/76 54/6/77 56/5/78 58/10/79
f 58/10/79 56/5/78 43/11/59 59/14/80
f 55/183/72 58/194/75 59/195/81 60/184/82
f 39/87/55 20/96/27 52/97/70 61/88/83
f 62/18/84 59/14/80 43/11/59 45/15/60
f 12/112/13 14/118/16 63/122/85 44/119/61
f 60/184/82 59/195/81 62/200/86 64/196/87
f 63/185/88 14/162/17 40/165/20 65/186/89
f 40/165/20 60/184/82 64/196/87 65/186/89
f 62/18/84 45/15/60 57/19/62 64/22/90
f 46/23/63 44/27/61 63/28/85 65/26/91
f 57/19/62 46/23/63 65/26/91 64/22/90
f 54/105/71 52/97/70 20/96/27 21/104/30
f 56/5/78 54/6/77 21/2/32 23/1/31
f 43/11/59 56/5/78 23/1/31 25/7/37
f 61/88/83 52/97/70 51/98/69 66/89/92
f 66/192/93 51/193/73 55/183/72 67/182/94
f 49/77/66 38/85/95 37/86/96 39/87/97 61/88/98 66/89/99 67/90/100 50/78/67
f 68/168/101 69/169/102 70/170/103 71/171/104 72/172/105 73/173/106 74/174/107 4/175/108 3/176/109 16/177/110 27/178/111 42/179/112 48/180/113 50/181/114 67/182/94 55/183/72 60/184/82 40/165/20 13/164/19
f 75/121/115 11/117/15 10/111/14 76/120/116
f 13/164/19 11/163/18 75/166/117 77/167/118
f 75/49/115 76/50/116 78/43/119 77/42/120
f 80/63/121 1/57/1 4/60/4 74/64/122
f 81/116/123 76/120/116 10/111/14 9/107/9
f 82/51/124 78/43/119 76/50/116 81/54/123
f 68/168/101 13/164/19 77/167/118 83/187/125
f 83/35/126 77/42/120 78/43/119 85/36/127
f 84/67/128 80/63/121 74/64/122 73/68/129
f 86/115/130 81/116/123 9/107/9 7/110/12
f 82/51/124 81/54/123 86/56/130 87/55/131
f 86/146/132 7/123/5 79/126/8 87/147/133
f 68/168/101 83/187/125 88/197/134 89/188/135
f 88/31/136 83/35/126 85/36/127 90/32/137
f 91/29/138 89/30/139 88/31/136 90/32/137
f 69/169/102 68/168/101 89/188/135 94/189/140
f 92/44/141 82/51/124 87/55/131 93/52/142
f 93/157/143 87/147/133 79/126/8 101/145/144
f 94/33/145 89/30/139 91/29/138 95/34/146
f 96/71/147 84/67/128 73/68/129 72/72/148
f 98/198/149 97/190/150 69/169/102 94/189/140
f 99/92/151 97/91/152 98/99/153 100/100/154
f 98/40/155 94/33/145 95/34/146 100/41/156
f 92/44/141 93/52/142 102/45/157 103/37/158
f 102/161/159 93/157/143 101/145/144 105/155/160
f 104/38/161 103/37/158 102/45/157 105/46/162
f 85/36/127 78/43/119 82/51/124 92/44/141
f 106/75/163 96/71/147 72/72/148 71/76/164
f 105/155/160 101/145/144 107/144/165 108/156/166
f 104/38/161 105/46/162 108/47/167 109/39/168
f 107/144/165 111/154/169 110/160/170 108/156/166
f 110/102/171 111/94/172 112/93/173 113/101/174
f 109/39/168 108/47/167 110/53/175 113/48/176
f 69/169/102 97/190/150 114/191/177 70/170/103
f 97/91/152 99/92/151 115/81/178 114/80/179
f 90/32/137 85/36/127 92/44/141 103/37/158
f 91/29/138 90/32/137 103/37/158 104/38/161
f 112/93/173 116/82/180 115/81/178 99/92/151
f 104/38/161 109/39/168 95/34/146 91/29/138
f 99/92/151 100/100/154 113/101/174 112/93/173
f 100/41/156 95/34/146 109/39/168 113/48/176
f 117/153/181 111/154/169 107/144/165 118/143/182
f 116/82/180 112/93/173 111/94/172 117/83/183
f 71/76/164 70/79/184 114/80/185 115/81/186 116/82/187 117/83/188 118/84/189 106/75/163
f 79/126/8 6/125/7 28/129/36 18/130/25 38/131/54 49/132/190 47/133/191 41/134/192 26/135/193 15/136/194 2/137/195 1/138/196 80/139/197 84/140/198 96/141/199 106/142/200 118/143/182 107/144/165 101/145/144
