# This file uses centimeters as units for non-parametric coordinates.

mtllib block1.mtl
g default
v -99.732079 -49.000099 198.000198
v -99.000099 -49.732079 198.000198
v -98.000198 -50.000000 198.000198
v -98.000198 -49.732079 199.000107
v -98.000198 -49.000099 199.732071
v -98.000198 -48.000198 200.000000
v -99.000099 -48.000198 199.732071
v -99.732079 -48.000198 199.000092
v -100.000000 -48.000198 198.000198
v 99.000099 -49.732079 198.000198
v 99.732079 -49.000099 198.000198
v 100.000000 -48.000198 198.000198
v 99.732079 -48.000198 199.000107
v 99.000099 -48.000198 199.732071
v 98.000198 -48.000198 200.000000
v 98.000198 -49.000099 199.732071
v 98.000198 -49.732079 199.000092
v 98.000198 -50.000000 198.000198
v -99.000099 49.732079 198.000198
v -99.732079 49.000099 198.000198
v -100.000000 48.000198 198.000198
v -99.732079 48.000198 199.000107
v -99.000099 48.000198 199.732071
v -98.000198 48.000198 200.000000
v -98.000198 49.000099 199.732071
v -98.000198 49.732079 199.000092
v -98.000198 50.000000 198.000198
v 99.732079 49.000099 198.000198
v 99.000099 49.732079 198.000198
v 98.000198 50.000000 198.000198
v 98.000198 49.732079 199.000107
v 98.000198 49.000099 199.732071
v 98.000198 48.000198 200.000000
v 99.000099 48.000198 199.732071
v 99.732079 48.000198 199.000092
v 100.000000 48.000198 198.000198
v -99.000099 48.000198 -199.732071
v -99.732079 48.000198 -199.000092
v -100.000000 48.000198 -198.000198
v -99.732079 49.000099 -198.000198
v -99.000099 49.732079 -198.000198
v -98.000198 50.000000 -198.000198
v -98.000198 49.732079 -199.000107
v -98.000198 49.000099 -199.732071
v -98.000198 48.000198 -200.000000
v 99.732079 48.000198 -199.000107
v 99.000099 48.000198 -199.732071
v 98.000198 48.000198 -200.000000
v 98.000198 49.000099 -199.732071
v 98.000198 49.732079 -199.000092
v 98.000198 50.000000 -198.000198
v 99.000099 49.732079 -198.000198
v 99.732079 49.000099 -198.000198
v 100.000000 48.000198 -198.000198
v -99.000099 -49.732079 -198.000198
v -99.732079 -49.000099 -198.000198
v -100.000000 -48.000198 -198.000198
v -99.732079 -48.000198 -199.000107
v -99.000099 -48.000198 -199.732071
v -98.000198 -48.000198 -200.000000
v -98.000198 -49.000099 -199.732071
v -98.000198 -49.732079 -199.000092
v -98.000198 -50.000000 -198.000198
v 99.732079 -49.000099 -198.000198
v 99.000099 -49.732079 -198.000198
v 98.000198 -50.000000 -198.000198
v 98.000198 -49.732079 -199.000107
v 98.000198 -49.000099 -199.732071
v 98.000198 -48.000198 -200.000000
v 99.000099 -48.000198 -199.732071
v 99.732079 -48.000198 -199.000092
v 100.000000 -48.000198 -198.000198
v -99.581696 -48.864281 198.864288
v -98.864281 -49.581692 198.864288
v -98.864281 -48.864281 199.581696
v 98.864281 -49.581692 198.864288
v 99.581696 -48.864281 198.864288
v 98.864281 -48.864281 199.581696
v -98.864281 49.581692 198.864288
v -99.581696 48.864281 198.864288
v -98.864281 48.864281 199.581696
v 99.581696 48.864281 198.864288
v 98.864281 49.581692 198.864288
v 98.864281 48.864281 199.581696
v -98.864281 48.864281 -199.581696
v -99.581696 48.864281 -198.864288
v -98.864281 49.581692 -198.864288
v 99.581696 48.864281 -198.864288
v 98.864281 48.864281 -199.581696
v 98.864281 49.581692 -198.864288
v -98.864281 -49.581692 -198.864288
v -99.581696 -48.864281 -198.864288
v -98.864281 -48.864281 -199.581696
v 99.581696 -48.864281 -198.864288
v 98.864281 -49.581692 -198.864288
v 98.864281 -48.864281 -199.581696
vt 0.315143 0.004502
vt 0.316679 0.004502
vt 0.316679 0.612587
vt 0.315143 0.612587
vt 0.316679 0.002967
vt 0.315352 0.003175
vt 0.464094 0.004502
vt 0.464094 0.612587
vt 0.316679 0.614123
vt 0.315352 0.613914
vt 0.314019 0.004502
vt 0.314019 0.612587
vt 0.464094 0.002967
vt 0.314250 0.003175
vt 0.315352 0.002074
vt 0.316679 0.001843
vt 0.465629 0.004502
vt 0.465629 0.612587
vt 0.464094 0.614123
vt 0.316679 0.615247
vt 0.315352 0.615016
vt 0.314250 0.613914
vt 0.464094 0.001843
vt 0.465421 0.003175
vt 0.466753 0.004502
vt 0.466753 0.612587
vt 0.465421 0.613914
vt 0.464094 0.615247
vt 0.465421 0.002074
vt 0.466522 0.003175
vt 0.466522 0.613914
vt 0.465421 0.615016
vt 0.476493 0.612587
vt 0.474957 0.612587
vt 0.474957 0.004502
vt 0.476493 0.004502
vt 0.476493 0.614123
vt 0.475166 0.613914
vt 0.473833 0.612587
vt 0.473833 0.004502
vt 0.476493 0.002967
vt 0.475166 0.003175
vt 0.623908 0.004502
vt 0.623908 0.612587
vt 0.623908 0.614123
vt 0.476493 0.615247
vt 0.475166 0.615016
vt 0.474064 0.613914
vt 0.474064 0.003175
vt 0.623908 0.002967
vt 0.475166 0.002074
vt 0.476493 0.001843
vt 0.625443 0.612587
vt 0.625443 0.004502
vt 0.625235 0.613914
vt 0.623908 0.615247
vt 0.625235 0.003175
vt 0.623908 0.001843
vt 0.626567 0.612587
vt 0.626567 0.004502
vt 0.626336 0.613914
vt 0.625235 0.615016
vt 0.625235 0.002074
vt 0.626336 0.003175
vt 0.003527 0.612587
vt 0.001992 0.612587
vt 0.001992 0.004502
vt 0.003527 0.004502
vt 0.003527 0.614123
vt 0.002201 0.613914
vt 0.003527 0.002967
vt 0.002201 0.003175
vt 0.304499 0.004502
vt 0.304499 0.612587
vt 0.304499 0.614123
vt 0.003527 0.615247
vt 0.002201 0.615016
vt 0.304499 0.002967
vt 0.002201 0.002074
vt 0.003527 0.001843
vt 0.306035 0.612587
vt 0.306035 0.004502
vt 0.305826 0.613914
vt 0.304499 0.615247
vt 0.304499 0.001843
vt 0.305826 0.003175
vt 0.305826 0.615016
vt 0.305826 0.002074
vt 0.633648 0.004502
vt 0.635183 0.004502
vt 0.635183 0.612587
vt 0.633648 0.612587
vt 0.635183 0.002967
vt 0.633856 0.003175
vt 0.936155 0.004502
vt 0.936155 0.612587
vt 0.635183 0.614123
vt 0.633856 0.613914
vt 0.936155 0.002967
vt 0.633856 0.002074
vt 0.635183 0.001843
vt 0.937690 0.004502
vt 0.937690 0.612587
vt 0.936155 0.614123
vt 0.635183 0.615247
vt 0.633856 0.615016
vt 0.936155 0.001843
vt 0.937482 0.003175
vt 0.937482 0.613914
vt 0.936155 0.615247
vt 0.937482 0.002074
vt 0.937482 0.615016
vt 0.849058 0.921745
vt 0.847522 0.921745
vt 0.847522 0.620774
vt 0.849058 0.620774
vt 0.849058 0.923281
vt 0.847731 0.923072
vt 0.849058 0.619238
vt 0.847731 0.619447
vt 0.996473 0.620774
vt 0.996473 0.921745
vt 0.996473 0.923281
vt 0.996473 0.619238
vt 0.998008 0.921745
vt 0.998008 0.620774
vt 0.997800 0.923072
vt 0.997800 0.619447
vt 0.692437 0.923281
vt 0.692437 0.921745
vt 0.839852 0.921745
vt 0.839852 0.923281
vt 0.690901 0.921745
vt 0.691110 0.923072
vt 0.692437 0.620774
vt 0.839852 0.620774
vt 0.841387 0.921745
vt 0.841179 0.923072
vt 0.690901 0.620774
vt 0.692437 0.619238
vt 0.839852 0.619238
vt 0.841387 0.620774
vt 0.691110 0.619447
vt 0.841179 0.619447
vn -0.001359 -0.999999 0.000674
vn -0.258771 -0.965939 0.000475
vn -0.258771 -0.965939 -0.000475
vn -0.001359 -0.999999 -0.000674
vn -0.707108 -0.707106 0.000501
vn -0.707108 -0.707106 0.000501
vn -0.707108 -0.707106 -0.000501
vn -0.707108 -0.707106 -0.000501
vn -0.965938 -0.258772 0.000475
vn -0.999996 -0.002760 0.000673
vn -0.999996 -0.002760 -0.000673
vn -0.965938 -0.258772 -0.000475
vn -0.001357 -0.002759 0.999995
vn -0.001019 -0.499985 0.866034
vn 0.001019 -0.499985 0.866034
vn 0.001357 -0.002759 0.999995
vn -0.001010 -0.707104 0.707109
vn 0.001010 -0.707104 0.707109
vn -0.000958 -0.965951 0.258722
vn 0.001359 -0.999999 0.000674
vn 0.000959 -0.965951 0.258722
vn -0.965976 -0.001949 0.258625
vn -0.965976 0.001949 0.258625
vn -0.999996 0.002760 0.000673
vn -0.707101 -0.002053 0.707109
vn -0.499973 -0.002072 0.866038
vn -0.499974 0.002072 0.866038
vn -0.707101 0.002053 0.707109
vn -0.001357 0.002759 0.999995
vn 0.999996 -0.002760 0.000673
vn 0.965938 -0.258772 0.000475
vn 0.965938 -0.258772 -0.000475
vn 0.999996 -0.002760 -0.000673
vn 0.707108 -0.707106 0.000501
vn 0.707108 -0.707106 0.000501
vn 0.707108 -0.707106 -0.000501
vn 0.707108 -0.707106 -0.000501
vn 0.258771 -0.965939 0.000475
vn 0.001359 -0.999999 -0.000674
vn 0.258771 -0.965939 -0.000475
vn 0.499974 -0.002072 0.866038
vn 0.499973 0.002072 0.866038
vn 0.001357 0.002759 0.999995
vn 0.707101 -0.002053 0.707109
vn 0.707101 0.002053 0.707109
vn 0.965976 -0.001949 0.258625
vn 0.999996 0.002760 0.000673
vn 0.965976 0.001949 0.258625
vn -0.965938 0.258772 0.000475
vn -0.965938 0.258772 -0.000475
vn -0.999996 0.002760 -0.000673
vn -0.707108 0.707106 0.000501
vn -0.707108 0.707106 0.000501
vn -0.707108 0.707106 -0.000501
vn -0.707108 0.707106 -0.000501
vn -0.258771 0.965939 0.000475
vn -0.001359 0.999999 0.000674
vn -0.001359 0.999999 -0.000674
vn -0.258771 0.965939 -0.000475
vn -0.000959 0.965951 0.258722
vn 0.000958 0.965951 0.258722
vn 0.001359 0.999999 0.000674
vn -0.001010 0.707104 0.707109
vn -0.001019 0.499985 0.866034
vn 0.001019 0.499985 0.866034
vn 0.001010 0.707104 0.707109
vn 0.258771 0.965939 0.000475
vn 0.258771 0.965939 -0.000475
vn 0.001359 0.999999 -0.000674
vn 0.707108 0.707106 0.000501
vn 0.707108 0.707106 0.000501
vn 0.707108 0.707106 -0.000501
vn 0.707108 0.707106 -0.000501
vn 0.965938 0.258772 0.000475
vn 0.999996 0.002760 -0.000673
vn 0.965938 0.258772 -0.000475
vn -0.965976 0.001949 -0.258625
vn -0.965976 -0.001949 -0.258625
vn -0.707101 0.002053 -0.707109
vn -0.499973 0.002072 -0.866038
vn -0.499974 -0.002072 -0.866038
vn -0.707101 -0.002053 -0.707109
vn -0.001357 0.002759 -0.999995
vn -0.001357 -0.002759 -0.999995
vn -0.001019 0.499985 -0.866034
vn 0.001019 0.499985 -0.866034
vn 0.001357 0.002759 -0.999995
vn -0.001010 0.707104 -0.707109
vn 0.001010 0.707104 -0.707109
vn -0.000958 0.965951 -0.258722
vn 0.000959 0.965951 -0.258722
vn 0.499974 0.002072 -0.866038
vn 0.499973 -0.002072 -0.866038
vn 0.001357 -0.002759 -0.999995
vn 0.707101 0.002053 -0.707109
vn 0.707101 -0.002053 -0.707109
vn 0.965976 0.001949 -0.258625
vn 0.965976 -0.001949 -0.258625
vn -0.000959 -0.965951 -0.258722
vn 0.000958 -0.965951 -0.258722
vn -0.001010 -0.707104 -0.707109
vn -0.001019 -0.499985 -0.866034
vn 0.001019 -0.499985 -0.866034
vn 0.001010 -0.707104 -0.707109
vn -0.946106 -0.229002 0.229001
vn -0.707838 -0.499480 0.499485
vn -0.499479 -0.707841 0.499482
vn -0.229005 -0.946104 0.229007
vn -0.499482 -0.499472 0.707846
vn -0.228995 -0.229007 0.946106
vn 0.229007 -0.946103 0.229007
vn 0.499477 -0.707845 0.499479
vn 0.707836 -0.499487 0.499482
vn 0.946104 -0.229009 0.229003
vn 0.499479 -0.499482 0.707841
vn 0.228996 -0.229007 0.946106
vn -0.229007 0.946103 0.229007
vn -0.499477 0.707845 0.499479
vn -0.707836 0.499487 0.499482
vn -0.946104 0.229009 0.229003
vn -0.499479 0.499482 0.707841
vn -0.228996 0.229007 0.946106
vn 0.946106 0.229002 0.229001
vn 0.707838 0.499480 0.499485
vn 0.499479 0.707841 0.499482
vn 0.229005 0.946104 0.229007
vn 0.499482 0.499472 0.707846
vn 0.228995 0.229007 0.946106
vn -0.228995 0.229007 -0.946106
vn -0.499482 0.499472 -0.707846
vn -0.707838 0.499480 -0.499485
vn -0.946106 0.229002 -0.229001
vn -0.499479 0.707841 -0.499482
vn -0.229005 0.946104 -0.229007
vn 0.946104 0.229009 -0.229003
vn 0.707836 0.499487 -0.499482
vn 0.499479 0.499482 -0.707841
vn 0.228996 0.229007 -0.946106
vn 0.499477 0.707845 -0.499479
vn 0.229007 0.946103 -0.229007
vn -0.229007 -0.946103 -0.229007
vn -0.499477 -0.707845 -0.499479
vn -0.707836 -0.499487 -0.499482
vn -0.946104 -0.229009 -0.229003
vn -0.499479 -0.499482 -0.707841
vn -0.228996 -0.229007 -0.946106
vn 0.946106 -0.229002 -0.229001
vn 0.707838 -0.499480 -0.499485
vn 0.499479 -0.707841 -0.499482
vn 0.229005 -0.946104 -0.229007
vn 0.499482 -0.499472 -0.707846
vn 0.228995 -0.229007 -0.946106
s 1
g pCube1
usemtl lambert2SG
f 3/65/1 2/66/2 55/67/3 63/68/4
s 2
f 2/11/5 1/1/6 56/4/7 55/12/8
s 3
f 1/1/9 9/2/10 57/3/11 56/4/12
s 2
f 6/113/13 5/114/14 16/115/15 15/116/16
f 5/76/14 4/69/17 17/75/18 16/84/15
s 1
f 4/69/19 3/65/1 18/74/20 17/75/21
s 3
f 9/2/10 8/5/22 22/13/23 21/7/24
s 2
f 8/5/25 7/16/26 23/23/27 22/13/28
f 7/117/26 6/113/13 24/122/29 23/123/27
s 6
f 12/33/30 11/34/31 64/35/32 72/36/33
s 2
f 11/34/34 10/39/35 65/40/36 64/35/37
s 1
f 10/81/38 18/74/20 66/73/39 65/82/40
s 2
f 15/116/16 14/119/41 34/124/42 33/121/43
f 14/46/41 13/37/44 35/45/45 34/56/42
s 6
f 13/37/46 12/33/30 36/44/47 35/45/48
s 3
f 21/7/24 20/17/49 40/18/50 39/8/51
s 2
f 20/17/52 19/25/53 41/26/54 40/18/55
s 9
f 19/89/56 27/90/57 42/91/58 41/92/59
f 27/90/57 26/93/60 31/99/61 30/95/62
s 2
f 26/93/63 25/101/64 32/107/65 31/99/66
f 25/125/64 24/122/29 33/121/43 32/126/65
s 9
f 30/95/62 29/102/67 52/103/68 51/96/69
s 2
f 29/59/70 28/53/71 53/54/72 52/60/73
s 6
f 28/53/74 36/44/47 54/43/75 53/54/76
s 3
f 39/8/51 38/19/77 58/9/78 57/3/11
s 2
f 38/19/79 37/28/80 59/20/81 58/9/82
f 37/129/80 45/130/83 60/131/84 59/132/81
f 45/130/83 44/133/85 49/139/86 48/135/87
f 44/105/85 43/97/88 50/104/89 49/110/86
s 9
f 43/97/90 42/91/58 51/96/69 50/104/91
s 2
f 48/135/87 47/140/92 70/141/93 69/136/94
f 47/58/92 46/50/95 71/41/96 70/52/93
s 6
f 46/50/97 54/43/75 72/36/33 71/41/98
s 1
f 63/68/4 62/71/99 67/78/100 66/73/39
s 2
f 62/71/101 61/80/102 68/85/103 67/78/104
f 61/137/102 60/131/84 69/136/94 68/142/103
f 6/113/13 15/116/16 33/121/43 24/122/29
s 9
f 27/90/57 30/95/62 51/96/69 42/91/58
s 2
f 45/130/83 48/135/87 69/136/94 60/131/84
s 1
f 63/68/4 66/73/39 18/74/20 3/65/1
s 6
f 12/33/30 72/36/33 54/43/75 36/44/47
s 3
f 57/3/11 9/2/10 21/7/24 39/8/51
f 8/5/22 9/2/10 1/1/9 73/6/105
s 2
f 73/6/106 1/1/6 2/11/5 74/14/107
s 1
f 2/66/2 3/65/1 4/69/19 74/70/108
s 2
f 74/70/107 4/69/17 5/76/14 75/77/109
f 5/114/14 6/113/13 7/117/26 75/118/110
f 75/15/109 7/16/26 8/5/25 73/6/106
f 73/6/106 74/14/107 75/15/109
s 1
f 17/75/21 18/74/20 10/81/38 76/83/111
s 2
f 76/48/112 10/39/35 11/34/34 77/38/113
s 6
f 11/34/31 12/33/30 13/37/46 77/38/114
s 2
f 77/38/113 13/37/44 14/46/41 78/47/115
f 14/119/41 15/116/16 16/115/15 78/120/116
f 78/87/115 16/84/15 17/75/18 76/83/112
f 76/48/112 77/38/113 78/47/115
s 9
f 26/93/60 27/90/57 19/89/56 79/94/117
s 2
f 79/30/118 19/25/53 20/17/52 80/24/119
s 3
f 20/17/49 21/7/24 22/13/23 80/24/120
s 2
f 80/24/119 22/13/28 23/23/27 81/29/121
f 23/123/27 24/122/29 25/125/64 81/127/122
f 81/100/121 25/101/64 26/93/63 79/94/118
f 79/30/118 80/24/119 81/29/121
s 6
f 35/45/48 36/44/47 28/53/74 82/55/123
s 2
f 82/55/124 28/53/71 29/59/70 83/61/125
s 9
f 29/102/67 30/95/62 31/99/61 83/108/126
s 2
f 83/108/125 31/99/66 32/107/65 84/111/127
f 32/126/65 33/121/43 34/124/42 84/128/128
f 84/62/127 34/56/42 35/45/45 82/55/124
f 82/55/124 83/61/125 84/62/127
f 44/133/85 45/130/83 37/129/80 85/134/129
f 85/32/130 37/28/80 38/19/79 86/27/131
s 3
f 38/19/77 39/8/51 40/18/50 86/27/132
s 2
f 86/27/131 40/18/55 41/26/54 87/31/133
s 9
f 41/92/59 42/91/58 43/97/90 87/98/134
s 2
f 87/98/133 43/97/88 44/105/85 85/106/130
f 85/32/130 86/27/131 87/31/133
s 6
f 53/54/76 54/43/75 46/50/97 88/57/135
s 2
f 88/57/136 46/50/95 47/58/92 89/63/137
f 47/140/92 48/135/87 49/139/86 89/143/138
f 89/112/137 49/110/86 50/104/89 90/109/139
s 9
f 50/104/91 51/96/69 52/103/68 90/109/140
s 2
f 90/64/139 52/60/73 53/54/72 88/57/136
f 88/57/136 89/63/137 90/64/139
s 1
f 62/71/99 63/68/4 55/67/3 91/72/141
s 2
f 91/22/142 55/12/8 56/4/7 92/10/143
s 3
f 56/4/12 57/3/11 58/9/78 92/10/144
s 2
f 92/10/143 58/9/82 59/20/81 93/21/145
f 59/132/81 60/131/84 61/137/102 93/138/146
f 93/79/145 61/80/102 62/71/101 91/72/142
f 91/22/142 92/10/143 93/21/145
s 6
f 71/41/98 72/36/33 64/35/32 94/42/147
s 2
f 94/42/148 64/35/37 65/40/36 95/49/149
s 1
f 65/82/40 66/73/39 67/78/100 95/86/150
s 2
f 95/86/149 67/78/104 68/85/103 96/88/151
f 68/142/103 69/136/94 70/141/93 96/144/152
f 96/51/151 70/52/93 71/41/96 94/42/148
f 94/42/148 95/49/149 96/51/151
