# This file uses centimeters as units for non-parametric coordinates.

mtllib block3.mtl
g default
v -0.166147 0.372286 0.500000
v 0.166147 0.372286 0.500000
v -0.166147 0.960067 0.500000
v 0.166147 0.960067 0.500000
v -0.166147 0.960067 0.213919
v 0.166147 0.960067 0.213919
v 0.166147 0.788088 0.191016
v -0.166147 0.788088 0.191016
v -0.166147 0.960067 0.355777
v 0.166147 0.960067 0.355777
v 0.166147 0.372286 0.416497
v -0.166147 0.372286 0.416497
v -0.166147 0.960067 0.012201
v 0.166147 0.960067 0.012201
v 0.166147 0.843856 0.012201
v -0.166147 0.843856 0.012201
v 0.166147 0.647832 0.333014
v 0.166147 0.960067 0.272887
v -0.166147 0.960067 0.272887
v -0.166147 0.647832 0.333014
v -0.166147 0.372286 -0.475598
v 0.166147 0.372286 -0.475598
v -0.166147 0.960067 -0.475598
v 0.166147 0.960067 -0.475598
v -0.166147 0.960067 -0.189517
v 0.166147 0.960067 -0.189517
v 0.166147 0.788088 -0.166614
v -0.166147 0.788088 -0.166614
v -0.166147 0.960067 -0.331376
v 0.166147 0.960067 -0.331376
v 0.166147 0.372286 -0.392095
v -0.166147 0.372286 -0.392095
v 0.166147 0.647832 -0.308613
v 0.166147 0.960067 -0.248485
v -0.166147 0.960067 -0.248485
v -0.166147 0.647832 -0.308613
vt 0.648282 0.664773
vt 0.628272 0.335227
vt 0.655783 0.489715
vt 0.675598 0.664773
vt 0.600754 0.335227
vt 0.600754 0.664773
vt 0.702578 0.568351
vt 0.695031 0.664773
vt 0.761506 0.599618
vt 0.761506 0.664773
vt 0.827982 0.664773
vt 0.820434 0.568351
vt 0.847414 0.664773
vt 0.867229 0.489715
vt 0.874730 0.664773
vt 0.894740 0.335227
vt 0.922258 0.335227
vt 0.922258 0.664773
vt 0.360082 0.664773
vt 0.379897 0.489715
vt 0.407408 0.335227
vt 0.387398 0.664773
vt 0.340649 0.664773
vt 0.333102 0.568351
vt 0.434926 0.335227
vt 0.434926 0.664773
vt 0.274174 0.664773
vt 0.274174 0.599618
vt 0.207698 0.664773
vt 0.215246 0.568351
vt 0.188266 0.664773
vt 0.168451 0.489715
vt 0.160949 0.664773
vt 0.140939 0.335227
vt 0.113421 0.664773
vt 0.113421 0.335227
vt 0.386341 0.331538
vt 0.386341 0.001992
vt 0.413657 0.001992
vt 0.413657 0.331538
vt 0.338813 0.331538
vt 0.338813 0.001992
vt 0.433090 0.001992
vt 0.433090 0.331538
vt 0.499565 0.001992
vt 0.499565 0.331538
vt 0.566041 0.331538
vt 0.566041 0.001992
vt 0.585473 0.331538
vt 0.585473 0.001992
vt 0.612790 0.331538
vt 0.612790 0.001992
vt 0.660317 0.331538
vt 0.660317 0.001992
vt 0.080234 0.664773
vt 0.080234 0.335227
vt 0.107752 0.335227
vt 0.107752 0.664773
vt 0.107564 0.998008
vt 0.107564 0.668462
vt 0.166492 0.668462
vt 0.166492 0.998008
vt 0.048636 0.998008
vt 0.048636 0.668462
vt 0.213287 0.668462
vt 0.213287 0.998008
vt 0.001841 0.998008
vt 0.001841 0.668462
vt 0.744546 0.998008
vt 0.717028 0.998008
vt 0.717028 0.668462
vt 0.744546 0.668462
vt 0.001841 0.001992
vt 0.331387 0.001992
vt 0.331387 0.331538
vt 0.001841 0.331538
vt 0.440596 0.664773
vt 0.440596 0.335227
vt 0.595084 0.335227
vt 0.595084 0.664773
vt 0.219945 0.998008
vt 0.219945 0.668462
vt 0.549491 0.668462
vt 0.549491 0.998008
vt 0.711225 0.998008
vt 0.556737 0.998008
vt 0.556737 0.668462
vt 0.711225 0.668462
vn 0.000000 0.000000 1.000000
vn 0.000000 0.000000 1.000000
vn 0.000000 0.000000 1.000000
vn 0.000000 0.000000 1.000000
vn 0.000000 1.000000 0.000000
vn 0.000000 1.000000 0.000000
vn 0.000000 1.000000 0.000000
vn 0.000000 1.000000 0.000000
vn 1.000000 0.000000 0.000000
vn 1.000000 0.000000 0.000000
vn 1.000000 0.000000 0.000000
vn 1.000000 0.000000 0.000000
vn 0.000000 -0.476700 -0.879066
vn 0.000000 -0.476700 -0.879066
vn 0.000000 -0.518274 -0.855214
vn 0.000000 -0.518274 -0.855214
vn -1.000000 0.000000 0.000000
vn -1.000000 0.000000 0.000000
vn -1.000000 0.000000 0.000000
vn -1.000000 0.000000 0.000000
vn 0.000000 1.000000 0.000000
vn 0.000000 1.000000 0.000000
vn 1.000000 0.000000 0.000000
vn 1.000000 0.000000 0.000000
vn 0.000000 -1.000000 0.000000
vn 0.000000 -1.000000 0.000000
vn -1.000000 0.000000 0.000000
vn -1.000000 0.000000 0.000000
vn 0.000000 1.000000 0.000000
vn 0.000000 1.000000 0.000000
vn 0.000000 1.000000 0.000000
vn 0.000000 1.000000 0.000000
vn 1.000000 -0.000000 -0.000000
vn 1.000000 -0.000000 -0.000000
vn 1.000000 -0.000000 -0.000000
vn 1.000000 -0.000000 -0.000000
vn 0.000000 -0.954650 -0.297729
vn 0.000000 -0.954650 -0.297729
vn 0.000000 -0.853316 -0.521394
vn 0.000000 -0.853316 -0.521394
vn -1.000000 -0.000000 0.000000
vn -1.000000 -0.000000 0.000000
vn -1.000000 -0.000000 0.000000
vn -1.000000 -0.000000 0.000000
vn 0.000000 0.000000 -1.000000
vn 0.000000 0.000000 -1.000000
vn 0.000000 0.000000 -1.000000
vn 0.000000 0.000000 -1.000000
vn 0.000000 1.000000 0.000000
vn 0.000000 1.000000 0.000000
vn 0.000000 1.000000 0.000000
vn 0.000000 1.000000 0.000000
vn 1.000000 0.000000 0.000000
vn 1.000000 -0.000000 0.000000
vn 1.000000 0.000000 0.000000
vn 1.000000 0.000000 0.000000
vn 0.000000 -0.476700 0.879066
vn 0.000000 -0.518274 0.855214
vn 0.000000 -0.518274 0.855214
vn 0.000000 -0.476700 0.879066
vn -1.000000 0.000000 0.000000
vn -1.000000 0.000000 0.000000
vn -1.000000 0.000000 0.000000
vn -1.000000 0.000000 0.000000
vn 0.000000 1.000000 0.000000
vn 0.000000 1.000000 0.000000
vn 1.000000 0.000000 0.000000
vn 1.000000 0.000000 0.000000
vn 0.000000 -1.000000 0.000000
vn 0.000000 -1.000000 0.000000
vn -1.000000 0.000000 0.000000
vn -1.000000 0.000000 0.000000
vn 0.000000 1.000000 0.000000
vn 0.000000 1.000000 0.000000
vn 1.000000 -0.000000 0.000000
vn 1.000000 -0.000000 0.000000
vn 0.000000 -0.954650 0.297729
vn 0.000000 -0.853316 0.521394
vn 0.000000 -0.853316 0.521394
vn 0.000000 -0.954650 0.297729
vn -1.000000 -0.000000 0.000000
vn -1.000000 -0.000000 0.000000
s off
g pCube1
usemtl lambert2SG
f 1/73/1 2/74/2 4/75/3 3/76/4
s 1
f 9/37/5 10/38/6 18/39/7 19/40/8
s 2
f 10/1/9 11/2/10 17/3/11 18/4/12
s 3
f 20/77/13 17/78/14 11/79/15 12/80/16
s 4
f 19/19/17 20/20/18 12/21/19 9/22/20
s 1
f 3/41/21 4/42/22 10/38/6 9/37/5
s 2
f 2/5/23 11/2/10 10/1/9 4/6/24
s 3
f 12/55/16 11/56/15 2/57/25 1/58/26
s 4
f 9/22/20 12/21/19 1/25/27 3/26/28
s 1
f 5/44/29 6/43/30 14/45/31 13/46/32
s 2
f 6/8/33 7/7/34 15/9/35 14/10/36
s 3
f 16/59/37 15/60/38 7/61/39 8/62/40
s 4
f 13/27/41 16/28/42 8/24/43 5/23/44
s 2
f 18/4/12 17/3/11 7/7/34 6/8/33
s 1
f 19/40/8 18/39/7 6/43/30 5/44/29
s 4
f 5/23/44 8/24/43 20/20/18 19/19/17
s 3
f 8/62/40 7/61/39 17/65/14 20/66/13
s off
f 21/81/45 23/82/46 24/83/47 22/84/48
s 1
f 29/51/49 35/49/50 34/50/51 30/52/52
s 2
f 30/15/53 34/13/54 33/14/55 31/16/56
s 8
f 36/85/57 32/86/58 31/87/59 33/88/60
s 4
f 35/31/61 29/33/62 32/34/63 36/32/64
s 1
f 23/53/65 29/51/49 30/52/52 24/54/66
s 2
f 22/17/67 24/18/68 30/15/53 31/16/56
s 8
f 32/69/58 21/70/69 22/71/70 31/72/59
s 4
f 29/33/62 23/35/71 21/36/72 32/34/63
s 1
f 25/47/73 13/46/32 14/45/31 26/48/74
s 2
f 26/11/75 14/10/36 15/9/35 27/12/76
s 8
f 16/59/77 28/63/78 27/64/79 15/60/80
s 4
f 13/27/41 25/29/81 28/30/82 16/28/42
s 2
f 34/13/54 26/11/75 27/12/76 33/14/55
s 1
f 35/49/50 25/47/73 26/48/74 34/50/51
s 4
f 25/29/81 35/31/61 36/32/64 28/30/82
s 8
f 28/63/78 36/67/57 33/68/60 27/64/79
