# This file uses centimeters as units for non-parametric coordinates.

mtllib rectangleBlock.mtl
g default
v -197.071365 -97.071358 40.000999
v -190.001007 -100.000000 40.000999
v -190.001007 -97.071358 47.071362
v -190.001007 -90.000999 50.000000
v -197.071365 -90.000999 47.071362
v -200.000000 -90.000999 40.000999
v 197.071365 -97.071358 40.000999
v 200.000000 -90.000999 40.000999
v 197.071365 -90.000999 47.071362
v 190.001007 -90.000999 50.000000
v 190.001007 -97.071358 47.071362
v 190.001007 -100.000000 40.000999
v -197.071365 97.071358 40.000999
v -200.000000 90.000999 40.000999
v -197.071365 90.000999 47.071362
v -190.001007 90.000999 50.000000
v -190.001007 97.071358 47.071362
v -190.001007 100.000000 40.000999
v 197.071365 97.071358 40.000999
v 190.001007 100.000000 40.000999
v 190.001007 97.071358 47.071362
v 190.001007 90.000999 50.000000
v 197.071365 90.000999 47.071362
v 200.000000 90.000999 40.000999
v -197.071365 90.000999 -47.071362
v -200.000000 90.000999 -40.000999
v -197.071365 97.071358 -40.000999
v -190.001007 100.000000 -40.000999
v -190.001007 97.071358 -47.071362
v -190.001007 90.000999 -50.000000
v 197.071365 90.000999 -47.071362
v 190.001007 90.000999 -50.000000
v 190.001007 97.071358 -47.071362
v 190.001007 100.000000 -40.000999
v 197.071365 97.071358 -40.000999
v 200.000000 90.000999 -40.000999
v -197.071365 -97.071358 -40.000999
v -200.000000 -90.000999 -40.000999
v -197.071365 -90.000999 -47.071362
v -190.001007 -90.000999 -50.000000
v -190.001007 -97.071358 -47.071362
v -190.001007 -100.000000 -40.000999
v 197.071365 -97.071358 -40.000999
v 190.001007 -100.000000 -40.000999
v 190.001007 -97.071358 -47.071362
v 190.001007 -90.000999 -50.000000
v 197.071365 -90.000999 -47.071362
v 200.000000 -90.000999 -40.000999
v -195.771912 -95.771912 45.771908
v 195.771912 -95.771912 45.771908
v -195.771912 95.771912 45.771908
v 195.771912 95.771912 45.771908
v -195.771912 95.771912 -45.771908
v 195.771912 95.771912 -45.771908
v -195.771912 -95.771912 -45.771908
v 195.771912 -95.771912 -45.771908
vt 0.986949 0.622340
vt 0.986949 0.633399
vt 0.861813 0.633399
vt 0.861813 0.622340
vt 0.998008 0.633399
vt 0.995975 0.624372
vt 0.986949 0.914950
vt 0.861813 0.914950
vt 0.850754 0.633399
vt 0.852787 0.624372
vt 0.998008 0.914950
vt 0.986949 0.926009
vt 0.861813 0.926009
vt 0.850754 0.914950
vt 0.995975 0.923976
vt 0.852787 0.923976
vt 0.708424 0.633399
vt 0.708424 0.622340
vt 0.833560 0.622340
vt 0.833560 0.633399
vt 0.697365 0.633399
vt 0.699398 0.624372
vt 0.844619 0.633399
vt 0.842586 0.624372
vt 0.833560 0.914950
vt 0.708424 0.914950
vt 0.697365 0.914950
vt 0.844619 0.914950
vt 0.708424 0.926009
vt 0.833560 0.926009
vt 0.699398 0.923976
vt 0.842586 0.923976
vt 0.138187 0.607289
vt 0.138187 0.618348
vt 0.013051 0.618348
vt 0.013051 0.607289
vt 0.149246 0.607289
vt 0.147213 0.616316
vt 0.001992 0.607289
vt 0.004025 0.616316
vt 0.013051 0.012907
vt 0.138187 0.012907
vt 0.149246 0.012907
vt 0.001992 0.012907
vt 0.138187 0.001848
vt 0.013051 0.001848
vt 0.147213 0.003881
vt 0.004025 0.003881
vt 0.477097 0.618348
vt 0.477097 0.607289
vt 0.602232 0.607289
vt 0.602232 0.618348
vt 0.466038 0.607289
vt 0.468070 0.616316
vt 0.477097 0.012907
vt 0.602232 0.012907
vt 0.613291 0.607289
vt 0.611259 0.616316
vt 0.466038 0.012907
vt 0.477097 0.001848
vt 0.602232 0.001848
vt 0.613291 0.012907
vt 0.468070 0.003881
vt 0.611259 0.003881
vt 0.167213 0.607289
vt 0.156154 0.607289
vt 0.156154 0.012907
vt 0.167213 0.012907
vt 0.167213 0.618348
vt 0.158187 0.616316
vt 0.167213 0.001848
vt 0.158187 0.003881
vt 0.448764 0.012907
vt 0.448764 0.607289
vt 0.448764 0.618348
vt 0.448764 0.001848
vt 0.459823 0.607289
vt 0.459823 0.012907
vt 0.457791 0.616316
vt 0.457791 0.003881
vt 0.631064 0.618348
vt 0.631064 0.607289
vt 0.912615 0.607289
vt 0.912615 0.618348
vt 0.620005 0.607289
vt 0.622037 0.616316
vt 0.631064 0.012907
vt 0.912615 0.012907
vt 0.923674 0.607289
vt 0.921641 0.616316
vt 0.620005 0.012907
vt 0.631064 0.001848
vt 0.912615 0.001848
vt 0.923674 0.012907
vt 0.622037 0.003881
vt 0.921641 0.003881
vn -0.007352 -0.999415 0.033416
vn -0.380230 -0.924649 0.021207
vn -0.380230 -0.924649 -0.021207
vn -0.007352 -0.999415 -0.033416
vn -0.924649 -0.380229 0.021207
vn -0.999333 -0.015218 0.033199
vn -0.999333 -0.015218 -0.033199
vn -0.924649 -0.380229 -0.021207
vn -0.007467 -0.015557 0.999851
vn -0.004694 -0.382156 0.924086
vn 0.004694 -0.382156 0.924086
vn 0.007467 -0.015557 0.999851
vn -0.004694 -0.924086 0.382156
vn 0.007352 -0.999415 0.033416
vn 0.004694 -0.924086 0.382156
vn -0.924286 -0.009761 0.381575
vn -0.924286 0.009761 0.381575
vn -0.999333 0.015218 0.033199
vn -0.381576 -0.009761 0.924286
vn -0.007467 0.015557 0.999851
vn -0.381575 0.009761 0.924286
vn 0.999333 -0.015218 0.033199
vn 0.924649 -0.380229 0.021207
vn 0.924649 -0.380229 -0.021207
vn 0.999333 -0.015218 -0.033199
vn 0.380230 -0.924649 0.021207
vn 0.007352 -0.999415 -0.033416
vn 0.380230 -0.924649 -0.021207
vn 0.381575 -0.009761 0.924286
vn 0.381576 0.009761 0.924286
vn 0.007467 0.015557 0.999851
vn 0.924286 -0.009761 0.381575
vn 0.999333 0.015218 0.033199
vn 0.924286 0.009761 0.381575
vn -0.924649 0.380229 0.021207
vn -0.924649 0.380229 -0.021207
vn -0.999333 0.015218 -0.033199
vn -0.380230 0.924649 0.021207
vn -0.007352 0.999415 0.033416
vn -0.007352 0.999415 -0.033416
vn -0.380230 0.924649 -0.021207
vn -0.004694 0.924086 0.382156
vn 0.004694 0.924086 0.382156
vn 0.007352 0.999415 0.033416
vn -0.004694 0.382156 0.924086
vn 0.004694 0.382156 0.924086
vn 0.380230 0.924649 0.021207
vn 0.380230 0.924649 -0.021207
vn 0.007352 0.999415 -0.033416
vn 0.924649 0.380229 0.021207
vn 0.999333 0.015218 -0.033199
vn 0.924649 0.380229 -0.021207
vn -0.924286 0.009761 -0.381575
vn -0.924286 -0.009761 -0.381575
vn -0.381576 0.009761 -0.924286
vn -0.007467 0.015557 -0.999851
vn -0.007467 -0.015557 -0.999851
vn -0.381575 -0.009761 -0.924286
vn -0.004694 0.382156 -0.924086
vn 0.004694 0.382156 -0.924086
vn 0.007467 0.015557 -0.999851
vn -0.004694 0.924086 -0.382156
vn 0.004694 0.924086 -0.382156
vn 0.381575 0.009761 -0.924286
vn 0.381576 -0.009761 -0.924286
vn 0.007467 -0.015557 -0.999851
vn 0.924286 0.009761 -0.381575
vn 0.924286 -0.009761 -0.381575
vn -0.004694 -0.924086 -0.382156
vn 0.004694 -0.924086 -0.382156
vn -0.004694 -0.382156 -0.924086
vn 0.004694 -0.382156 -0.924086
vn -0.887919 -0.325269 0.325269
vn -0.325270 -0.887918 0.325270
vn -0.325270 -0.325270 0.887918
vn 0.325270 -0.887919 0.325269
vn 0.887919 -0.325269 0.325269
vn 0.325270 -0.325270 0.887918
vn -0.325270 0.887919 0.325269
vn -0.887919 0.325269 0.325269
vn -0.325270 0.325270 0.887918
vn 0.887919 0.325269 0.325269
vn 0.325270 0.887918 0.325270
vn 0.325270 0.325270 0.887918
vn -0.325270 0.325270 -0.887918
vn -0.887919 0.325269 -0.325269
vn -0.325270 0.887918 -0.325270
vn 0.887919 0.325269 -0.325269
vn 0.325270 0.325270 -0.887918
vn 0.325270 0.887919 -0.325269
vn -0.325270 -0.887919 -0.325269
vn -0.887919 -0.325269 -0.325269
vn -0.325270 -0.325270 -0.887918
vn 0.887919 -0.325269 -0.325269
vn 0.325270 -0.887918 -0.325270
vn 0.325270 -0.325270 -0.887918
s 1
g pCube1
usemtl lambert2SG
f 2/33/1 1/34/2 37/35/3 42/36/4
s 2
f 1/1/5 6/2/6 38/3/7 37/4/8
s 3
f 4/65/9 3/66/10 11/67/11 10/68/12
s 1
f 3/37/13 2/33/1 12/42/14 11/43/15
s 2
f 6/2/6 5/5/16 15/11/17 14/7/18
s 3
f 5/69/19 4/65/9 16/74/20 15/75/21
s 4
f 8/17/22 7/18/23 43/19/24 48/20/25
s 1
f 7/45/26 12/42/14 44/41/27 43/46/28
s 3
f 10/68/12 9/71/29 23/76/30 22/73/31
s 4
f 9/21/32 8/17/22 24/26/33 23/27/34
s 2
f 14/7/18 13/12/35 27/13/36 26/8/37
s 5
f 13/49/38 18/50/39 28/51/40 27/52/41
f 18/50/39 17/53/42 21/59/43 20/55/44
s 3
f 17/77/45 16/74/20 22/73/31 21/78/46
s 5
f 20/55/44 19/60/47 35/61/48 34/56/49
s 4
f 19/29/50 24/26/33 36/25/51 35/30/52
s 2
f 26/8/37 25/14/53 39/9/54 38/3/7
s 6
f 25/81/55 30/82/56 40/83/57 39/84/58
f 30/82/56 29/85/59 33/91/60 32/87/61
s 5
f 29/57/62 28/51/40 34/56/49 33/62/63
s 6
f 32/87/61 31/92/64 47/93/65 46/88/66
s 4
f 31/28/67 36/25/51 48/20/25 47/23/68
s 1
f 42/36/4 41/39/69 45/44/70 44/41/27
s 6
f 41/89/71 40/83/57 46/88/66 45/94/72
s 3
f 4/65/9 10/68/12 22/73/31 16/74/20
s 5
f 18/50/39 20/55/44 34/56/49 28/51/40
s 6
f 30/82/56 32/87/61 46/88/66 40/83/57
s 1
f 42/36/4 44/41/27 12/42/14 2/33/1
s 4
f 8/17/22 48/20/25 36/25/51 24/26/33
s 2
f 38/3/7 6/2/6 14/7/18 26/8/37
f 5/5/16 6/2/6 1/1/5 49/6/73
s 1
f 1/34/2 2/33/1 3/37/13 49/38/74
s 3
f 3/66/10 4/65/9 5/69/19 49/70/75
s 1
f 11/43/15 12/42/14 7/45/26 50/47/76
s 4
f 7/18/23 8/17/22 9/21/32 50/22/77
s 3
f 9/71/29 10/68/12 11/67/11 50/72/78
s 5
f 17/53/42 18/50/39 13/49/38 51/54/79
s 2
f 13/12/35 14/7/18 15/11/17 51/15/80
s 3
f 15/75/21 16/74/20 17/77/45 51/79/81
s 4
f 23/27/34 24/26/33 19/29/50 52/31/82
s 5
f 19/60/47 20/55/44 21/59/43 52/63/83
s 3
f 21/78/46 22/73/31 23/76/30 52/80/84
s 6
f 29/85/59 30/82/56 25/81/55 53/86/85
s 2
f 25/14/53 26/8/37 27/13/36 53/16/86
s 5
f 27/52/41 28/51/40 29/57/62 53/58/87
s 4
f 35/30/52 36/25/51 31/28/67 54/32/88
s 6
f 31/92/64 32/87/61 33/91/60 54/95/89
s 5
f 33/62/63 34/56/49 35/61/48 54/64/90
s 1
f 41/39/69 42/36/4 37/35/3 55/40/91
s 2
f 37/4/8 38/3/7 39/9/54 55/10/92
s 6
f 39/84/58 40/83/57 41/89/71 55/90/93
s 4
f 47/23/68 48/20/25 43/19/24 56/24/94
s 1
f 43/46/28 44/41/27 45/44/70 56/48/95
s 6
f 45/94/72 46/88/66 47/93/65 56/96/96
