# This file uses centimeters as units for non-parametric coordinates.

mtllib Wood_Block_3.mtl
g default
v -5.455801 -281.145691 -281.123077
v 5.455877 -281.145691 -281.123077
v 14.905666 -281.145691 -275.667236
v 12.619515 -290.102112 -278.339966
v 6.903157 -297.293854 -276.804565
v 0.000037 -300.000000 -271.718567
v -6.903082 -297.293854 -276.804565
v -12.619441 -290.102112 -278.339966
v -14.905593 -281.145691 -275.667236
v -281.123077 -281.145691 5.455813
v -281.123077 -281.145691 -5.455864
v -275.667236 -281.145691 -14.905653
v -278.339966 -290.102112 -12.619502
v -276.804565 -297.293854 -6.903159
v -271.718567 -300.000000 -0.000024
v -276.804565 -297.293854 6.903094
v -278.339966 -290.102112 12.619453
v -275.667236 -281.145691 14.905604
v 5.455826 -281.145691 281.123077
v -5.455851 -281.145691 281.123077
v -14.905641 -281.145691 275.667236
v -12.619490 -290.102112 278.339966
v -6.903131 -297.293854 276.804565
v -0.000027 -300.000000 271.718567
v 6.903107 -297.293854 276.804565
v 12.619466 -290.102112 278.339966
v 14.905617 -281.145691 275.667236
v 281.123077 -281.145691 -5.455839
v 281.123077 -281.145691 5.455839
v 275.667236 -281.145691 14.905629
v 278.339966 -290.102112 12.619478
v 276.804565 -297.293854 6.903134
v 271.718567 -300.000000 -0.000001
v 276.804565 -297.293854 -6.903120
v 278.339966 -290.102112 -12.619479
v 275.667236 -281.145691 -14.905630
v 14.905629 248.467621 6.011551
v 14.905631 248.467621 -6.011552
v 14.905632 240.377487 -14.905630
v 6.011554 248.467621 -14.905630
v -6.011549 248.467621 -14.905630
v -14.905627 240.377487 -14.905630
v -14.905628 248.467621 -6.011553
v -14.905629 248.467621 6.011550
v -14.905629 240.377487 14.905627
v -6.011552 248.467621 14.905628
v 6.011551 248.467621 14.905629
v 14.905628 240.377487 14.905629
v -5.259192 -288.790039 -282.822418
v 5.259269 -288.790039 -282.822418
v 0.000037 -295.747162 -280.902344
v -282.822418 -288.790039 5.259204
v -282.822418 -288.790039 -5.259256
v -280.902344 -295.747162 -0.000025
v 5.259217 -288.790039 282.822418
v -5.259243 -288.790039 282.822418
v -0.000027 -295.747162 280.902344
v 282.822418 -288.790039 -5.259230
v 282.822418 -288.790039 5.259231
v 280.902344 -295.747162 -0.000001
v 6.013474 256.538910 6.013474
v 6.013476 256.538910 -6.013476
v -6.013474 256.538910 -6.013475
v -6.013474 256.538910 6.013474
vt 0.679265 0.019972
vt 0.687026 0.019972
vt 0.686569 0.454917
vt 0.679265 0.448273
vt 0.681143 0.012616
vt 0.687187 0.013694
vt 0.695987 0.019972
vt 0.696443 0.454917
vt 0.679265 0.454917
vt 0.686568 0.461546
vt 0.465115 0.019972
vt 0.462920 0.012616
vt 0.685837 0.006710
vt 0.691506 0.007980
vt 0.695826 0.013694
vt 0.703748 0.019972
vt 0.703748 0.448273
vt 0.696445 0.461546
vt 0.460634 0.019972
vt 0.459238 0.013694
vt 0.464181 0.006710
vt 0.701870 0.012616
vt 0.917898 0.019972
vt 0.703748 0.454917
vt 0.697176 0.006710
vt 0.920093 0.012616
vt 0.918832 0.006710
vt 0.922379 0.019972
vt 0.923774 0.013694
vt 0.217168 0.019972
vt 0.224929 0.019972
vt 0.224473 0.454917
vt 0.217168 0.448273
vt 0.219046 0.012616
vt 0.225091 0.013694
vt 0.233890 0.019972
vt 0.234347 0.454917
vt 0.217168 0.454917
vt 0.224471 0.461546
vt 0.003018 0.019972
vt 0.000823 0.012616
vt 0.223741 0.006710
vt 0.229410 0.007980
vt 0.233729 0.013694
vt 0.241651 0.019972
vt 0.241651 0.448273
vt 0.234348 0.461546
vt -0.001463 0.019972
vt -0.002858 0.013694
vt 0.002084 0.006710
vt 0.239773 0.012616
vt 0.455802 0.019972
vt 0.241651 0.454917
vt 0.235079 0.006710
vt 0.457997 0.012616
vt 0.456736 0.006710
vt 0.460282 0.019972
vt 0.461678 0.013694
vt 0.925107 0.543288
vt 0.932069 0.544344
vt 0.932069 0.857814
vt 0.925107 0.858869
vt 0.924052 0.536326
vt 0.930440 0.537955
vt 0.924052 0.865831
vt 0.930440 0.864202
vt 0.609527 0.858869
vt 0.609527 0.543288
vt 0.610582 0.536326
vt 0.610582 0.865831
vt 0.602564 0.544344
vt 0.602564 0.857814
vt 0.604194 0.537955
vt 0.604194 0.864202
vt 0.232068 0.477690
vt 0.232068 0.487567
vt 0.222191 0.487567
vt 0.222191 0.477690
vt 0.232066 0.494870
vt 0.222192 0.494870
vt 0.222192 0.470387
vt 0.232066 0.470387
vt 0.293303 0.905333
vt 0.285543 0.905333
vt 0.285999 0.470387
vt 0.293303 0.477031
vt 0.276582 0.905333
vt 0.276125 0.470387
vt 0.276743 0.911610
vt 0.285381 0.911610
vt 0.268821 0.905333
vt 0.268821 0.477031
vt 0.281062 0.917324
vt 0.291426 0.912688
vt 0.286731 0.918594
vt 0.275393 0.918594
vt 0.270698 0.912688
vt 0.238203 0.483649
vt 0.245964 0.483649
vt 0.245507 0.918594
vt 0.238203 0.911950
vt 0.254925 0.483649
vt 0.255381 0.918594
vt 0.254763 0.477371
vt 0.246125 0.477371
vt 0.262686 0.483649
vt 0.262686 0.911950
vt 0.250444 0.471658
vt 0.240081 0.476294
vt 0.244775 0.470387
vt 0.256114 0.470387
vt 0.260808 0.476294
vn 0.653537 0.326700 -0.682756
vn 0.185516 0.437629 -0.879810
vn 0.151356 0.452353 -0.878902
vn 0.659961 0.359031 -0.659961
vn -0.185516 0.437629 -0.879810
vn -0.151356 0.452353 -0.878902
vn -0.653537 0.326700 -0.682757
vn -0.659961 0.359031 -0.659961
vn 0.000000 -0.999961 -0.008882
vn 0.211980 -0.952600 -0.218214
vn 0.218212 -0.952600 -0.211982
vn 0.008882 -0.999961 -0.000000
vn 0.570230 -0.578344 -0.583400
vn 0.573277 -0.579566 -0.579186
vn 0.579187 -0.579566 -0.573276
vn 0.583401 -0.578344 -0.570229
vn 0.700671 0.034687 -0.712640
vn 0.682757 0.326699 -0.653537
vn 0.712641 0.034687 -0.700671
vn -0.700671 0.034687 -0.712640
vn -0.712641 0.034687 -0.700671
vn -0.682756 0.326699 -0.653537
vn -0.573276 -0.579567 -0.579187
vn -0.570229 -0.578345 -0.583401
vn -0.583400 -0.578344 -0.570230
vn -0.579186 -0.579566 -0.573277
vn -0.211981 -0.952601 -0.218210
vn -0.008882 -0.999961 0.000000
vn -0.218212 -0.952601 -0.211978
vn -0.879809 0.437629 -0.185516
vn -0.878902 0.452353 -0.151357
vn -0.879810 0.437629 0.185516
vn -0.878902 0.452353 0.151357
vn -0.682757 0.326699 0.653537
vn -0.659961 0.359031 0.659961
vn -0.712640 0.034687 0.700672
vn -0.700670 0.034687 0.712641
vn -0.653537 0.326699 0.682756
vn -0.579187 -0.579566 0.573276
vn -0.583401 -0.578344 0.570229
vn -0.570230 -0.578345 0.583400
vn -0.573277 -0.579567 0.579186
vn -0.218212 -0.952601 0.211979
vn -0.000000 -0.999961 0.008882
vn -0.211981 -0.952601 0.218210
vn -0.185516 0.437629 0.879810
vn -0.151356 0.452353 0.878902
vn 0.185516 0.437629 0.879810
vn 0.151356 0.452353 0.878902
vn 0.653537 0.326700 0.682756
vn 0.659961 0.359031 0.659961
vn 0.700672 0.034688 0.712640
vn 0.712641 0.034688 0.700671
vn 0.682756 0.326700 0.653537
vn 0.573276 -0.579566 0.579187
vn 0.570229 -0.578344 0.583401
vn 0.583400 -0.578344 0.570230
vn 0.579186 -0.579566 0.573277
vn 0.211980 -0.952601 0.218210
vn 0.218212 -0.952601 0.211978
vn 0.879810 0.437629 0.185516
vn 0.878902 0.452353 0.151357
vn 0.879810 0.437629 -0.185516
vn 0.878902 0.452353 -0.151356
vn -0.511880 0.146382 -0.846494
vn -0.182717 -0.165527 -0.969131
vn 0.182716 -0.165527 -0.969131
vn 0.511879 0.146382 -0.846494
vn -0.000000 -0.473326 -0.880887
vn 0.000000 -0.907428 -0.420207
vn -0.846493 0.146379 0.511882
vn -0.969131 -0.165525 0.182718
vn -0.969131 -0.165525 -0.182718
vn -0.846493 0.146380 -0.511882
vn -0.880888 -0.473324 0.000000
vn -0.420211 -0.907426 0.000000
vn 0.511881 0.146382 0.846493
vn 0.182716 -0.165527 0.969131
vn -0.182716 -0.165527 0.969131
vn -0.511879 0.146382 0.846494
vn -0.000000 -0.473326 0.880887
vn 0.000000 -0.907427 0.420210
vn 0.846493 0.146379 -0.511882
vn 0.969131 -0.165525 -0.182718
vn 0.969131 -0.165526 0.182717
vn 0.846493 0.146381 0.511881
vn 0.880888 -0.473326 -0.000001
vn 0.420213 -0.907426 0.000000
vn 0.558066 0.614105 0.558066
vn 0.672103 0.740457 -0.000001
vn 0.672103 0.740457 -0.000001
vn 0.558066 0.614106 -0.558065
vn 0.000000 0.740458 -0.672103
vn 0.000000 0.740458 -0.672103
vn -0.558065 0.614105 -0.558066
vn -0.672103 0.740457 0.000002
vn -0.672103 0.740457 0.000002
vn -0.558066 0.614106 0.558065
vn 0.000000 0.740457 0.672104
vn 0.000000 0.740457 0.672104
vn 0.000000 1.000000 -0.000002
vn 0.000000 1.000000 -0.000002
vn 0.000000 1.000000 -0.000002
vn 0.000000 1.000000 -0.000002
s 1
g pCone1
usemtl lambert2SG
f 3/83/1 2/84/2 40/85/3 39/86/4
f 2/84/2 1/87/5 41/88/6 40/85/3
f 1/87/5 9/91/7 42/92/8 41/88/6
s 2
f 6/59/9 5/60/10 34/61/11 33/62/12
s 1
f 5/56/13 4/55/14 35/51/15 34/54/16
f 4/55/17 3/52/1 36/45/18 35/51/19
f 9/11/7 8/12/20 13/5/21 12/1/22
f 8/12/23 7/21/24 14/13/25 13/5/26
s 2
f 7/63/27 6/59/9 15/68/28 14/69/29
s 1
f 12/1/22 11/2/30 43/3/31 42/4/8
f 11/2/30 10/7/32 44/8/33 43/3/31
f 10/7/32 18/16/34 45/17/35 44/8/33
f 18/16/34 17/22/36 22/26/37 21/23/38
f 17/22/39 16/25/40 23/27/41 22/26/42
s 2
f 16/71/43 15/68/28 24/67/44 23/72/45
s 1
f 21/98/38 20/99/46 46/100/47 45/101/35
f 20/99/46 19/102/48 47/103/49 46/100/47
f 19/102/48 27/106/50 48/107/51 47/103/49
f 27/40/50 26/41/52 31/34/53 30/30/54
f 26/41/55 25/50/56 32/42/57 31/34/58
s 2
f 25/70/59 24/67/44 33/62/12 32/65/60
s 1
f 30/30/54 29/31/61 37/32/62 48/33/51
f 29/31/61 28/36/63 38/37/64 37/32/62
f 28/36/63 36/45/18 39/46/4 38/37/64
s 2
f 6/59/9 33/62/12 24/67/44 15/68/28
s 1
f 9/11/7 12/1/22 42/4/8
f 18/16/34 21/23/38 45/17/35
f 27/40/50 30/30/54 48/33/51
f 36/45/18 3/52/1 39/46/4
f 8/12/20 9/11/7 1/19/5 49/20/65
f 49/89/66 1/87/5 2/84/2 50/90/67
f 2/57/2 3/52/1 4/55/17 50/58/68
f 50/90/67 4/94/14 5/95/13 51/93/69
s 2
f 5/60/10 6/59/9 7/63/27 51/64/70
s 1
f 51/93/69 7/96/24 8/97/23 49/89/66
f 49/89/66 50/90/67 51/93/69
f 17/22/36 18/16/34 10/7/32 52/15/71
f 52/15/72 10/7/32 11/2/30 53/6/73
f 11/2/30 12/1/22 13/5/21 53/6/74
f 53/6/73 13/5/26 14/13/25 54/14/75
s 2
f 14/69/29 15/68/28 16/71/43 54/73/76
s 1
f 54/14/75 16/25/40 17/22/39 52/15/72
f 52/15/72 53/6/73 54/14/75
f 26/41/52 27/40/50 19/48/48 55/49/77
f 55/104/78 19/102/48 20/99/46 56/105/79
f 20/28/46 21/23/38 22/26/37 56/29/80
f 56/105/79 22/109/42 23/110/41 57/108/81
s 2
f 23/72/45 24/67/44 25/70/59 57/74/82
s 1
f 57/108/81 25/111/56 26/112/55 55/104/78
f 55/104/78 56/105/79 57/108/81
f 35/51/19 36/45/18 28/36/63 58/44/83
f 58/44/84 28/36/63 29/31/61 59/35/85
f 29/31/61 30/30/54 31/34/53 59/35/86
f 59/35/85 31/34/58 32/42/57 60/43/87
s 2
f 32/65/60 33/62/12 34/61/11 60/66/88
s 1
f 60/43/87 34/54/16 35/51/15 58/44/84
f 58/44/84 59/35/85 60/43/87
f 47/38/49 48/33/51 37/32/62 61/39/89
f 61/39/90 37/32/62 38/37/64 62/47/91
f 38/37/64 39/46/4 40/53/3 62/47/92
f 62/76/93 40/79/3 41/80/6 63/77/94
f 41/9/6 42/4/8 43/3/31 63/10/95
f 63/10/96 43/3/31 44/8/33 64/18/97
f 44/8/33 45/17/35 46/24/47 64/18/98
f 64/78/99 46/81/47 47/82/49 61/75/100
s off
f 61/75/101 62/76/102 63/77/103 64/78/104
