# This file uses centimeters as units for non-parametric coordinates.

mtllib Wood_Block.mtl
g default
v -299.467314 -65.537636 131.075272
v -292.147545 -72.857414 131.075272
v -282.148563 -75.536636 131.075272
v -282.148563 -72.857414 141.074281
v -282.148563 -65.537636 148.394042
v -282.148563 -55.538636 151.073273
v -292.147545 -55.538636 148.394042
v -299.467314 -55.538636 141.074281
v -302.146545 -55.538636 131.075272
v 292.147545 -72.857414 131.075272
v 299.467314 -65.537636 131.075272
v 302.146545 -55.538636 131.075272
v 299.467314 -55.538636 141.074281
v 292.147545 -55.538636 148.394042
v 282.148563 -55.538636 151.073273
v 282.148563 -65.537636 148.394042
v 282.148563 -72.857414 141.074281
v 282.148563 -75.536636 131.075272
v -292.147545 72.857414 131.075272
v -299.467314 65.537636 131.075272
v -302.146545 55.538636 131.075272
v -299.467314 55.538636 141.074281
v -292.147545 55.538636 148.394042
v -282.148563 55.538636 151.073273
v -282.148563 65.537636 148.394042
v -282.148563 72.857414 141.074281
v -282.148563 75.536636 131.075272
v 299.467314 65.537636 131.075272
v 292.147545 72.857414 131.075272
v 282.148563 75.536636 131.075272
v 282.148563 72.857414 141.074281
v 282.148563 65.537636 148.394042
v 282.148563 55.538636 151.073273
v 292.147545 55.538636 148.394042
v 299.467314 55.538636 141.074281
v 302.146545 55.538636 131.075272
v -292.147545 55.538636 -148.394042
v -299.467314 55.538636 -141.074281
v -302.146545 55.538636 -131.075272
v -299.467314 65.537636 -131.075272
v -292.147545 72.857414 -131.075272
v -282.148563 75.536636 -131.075272
v -282.148563 72.857414 -141.074281
v -282.148563 65.537636 -148.394042
v -282.148563 55.538636 -151.073273
v 299.467314 55.538636 -141.074281
v 292.147545 55.538636 -148.394042
v 282.148563 55.538636 -151.073273
v 282.148563 65.537636 -148.394042
v 282.148563 72.857414 -141.074281
v 282.148563 75.536636 -131.075272
v 292.147545 72.857414 -131.075272
v 299.467314 65.537636 -131.075272
v 302.146545 55.538636 -131.075272
v -292.147545 -72.857414 -131.075272
v -299.467314 -65.537636 -131.075272
v -302.146545 -55.538636 -131.075272
v -299.467314 -55.538636 -141.074281
v -292.147545 -55.538636 -148.394042
v -282.148563 -55.538636 -151.073273
v -282.148563 -65.537636 -148.394042
v -282.148563 -72.857414 -141.074281
v -282.148563 -75.536636 -131.075272
v 299.467314 -65.537636 -131.075272
v 292.147545 -72.857414 -131.075272
v 282.148563 -75.536636 -131.075272
v 282.148563 -72.857414 -141.074281
v 282.148563 -65.537636 -148.394042
v 282.148563 -55.538636 -151.073273
v 292.147545 -55.538636 -148.394042
v 299.467314 -55.538636 -141.074281
v 302.146545 -55.538636 -131.075272
v -297.963462 -64.179466 139.716107
v -290.789389 -71.353567 139.716107
v -290.789389 -64.179466 146.890199
v 290.789389 -71.353567 139.716107
v 297.963462 -64.179466 139.716107
v 290.789389 -64.179466 146.890199
v -290.789389 71.353567 139.716107
v -297.963462 64.179466 139.716107
v -290.789389 64.179466 146.890199
v 297.963462 64.179466 139.716107
v 290.789389 71.353567 139.716107
v 290.789389 64.179466 146.890199
v -290.789389 64.179466 -146.890199
v -297.963462 64.179466 -139.716107
v -290.789389 71.353567 -139.716107
v 297.963462 64.179466 -139.716107
v 290.789389 64.179466 -146.890199
v 290.789389 71.353567 -139.716107
v -290.789389 -71.353567 -139.716107
v -297.963462 -64.179466 -139.716107
v -290.789389 -64.179466 -146.890199
v 297.963462 -64.179466 -139.716107
v 290.789389 -71.353567 -139.716107
v 290.789389 -64.179466 -146.890199
vt 0.317044 0.008030
vt 0.317044 0.024542
vt 0.021428 0.024542
vt 0.021428 0.008030
vt 0.326788 0.027604
vt 0.326788 0.011423
vt 0.317044 0.047093
vt 0.021428 0.047093
vt 0.011684 0.011423
vt 0.011684 0.027604
vt 0.317044 0.001992
vt 0.021428 0.001992
vt 0.328322 0.047093
vt 0.328322 0.008030
vt 0.334882 0.027604
vt 0.317044 0.297614
vt 0.021428 0.297614
vt 0.010150 0.047093
vt 0.010150 0.008030
vt 0.003597 0.027604
vt 0.328322 0.297614
vt 0.336576 0.047093
vt 0.336576 0.024542
vt 0.317044 0.320158
vt 0.021428 0.320158
vt 0.010150 0.297614
vt 0.001891 0.047093
vt 0.001891 0.024542
vt 0.336576 0.297614
vt 0.326788 0.317102
vt 0.317044 0.336665
vt 0.021428 0.336665
vt 0.011684 0.317102
vt 0.001891 0.297614
vt 0.334882 0.317102
vt 0.326788 0.333277
vt 0.317044 0.342715
vt 0.021428 0.342715
vt 0.011684 0.333277
vt 0.003597 0.317102
vt 0.328322 0.336665
vt 0.010150 0.336665
vt 0.336576 0.320158
vt 0.001891 0.320158
vt 0.361985 0.047093
vt 0.361985 0.024542
vt 0.657601 0.024542
vt 0.657601 0.047093
vt 0.350719 0.047093
vt 0.352241 0.027604
vt 0.361985 0.008030
vt 0.657601 0.008030
vt 0.668867 0.047093
vt 0.667346 0.027604
vt 0.657601 0.297614
vt 0.361985 0.297614
vt 0.350719 0.297614
vt 0.342448 0.047093
vt 0.344141 0.027604
vt 0.352241 0.011423
vt 0.361985 0.001992
vt 0.657601 0.001992
vt 0.667346 0.011423
vt 0.668867 0.297614
vt 0.675445 0.027604
vt 0.677139 0.047093
vt 0.361985 0.320158
vt 0.657601 0.320158
vt 0.352241 0.317102
vt 0.342448 0.297614
vt 0.350719 0.008030
vt 0.668867 0.008030
vt 0.667346 0.317102
vt 0.677139 0.297614
vt 0.361985 0.336665
vt 0.657601 0.336665
vt 0.352241 0.333277
vt 0.344141 0.317102
vt 0.342448 0.024542
vt 0.677139 0.024542
vt 0.675445 0.317102
vt 0.667346 0.333277
vt 0.361985 0.342715
vt 0.657601 0.342715
vt 0.350719 0.336665
vt 0.668867 0.336665
vt 0.342448 0.320158
vt 0.677139 0.320158
vt 0.001897 0.679811
vt 0.013175 0.679811
vt 0.013175 0.997983
vt 0.001897 0.997983
vt 0.308791 0.679811
vt 0.308791 0.997983
vt 0.320069 0.679811
vt 0.320069 0.997983
vt 0.338932 0.998008
vt 0.327666 0.998008
vt 0.327666 0.679811
vt 0.338932 0.679811
vt 0.634548 0.679811
vt 0.634548 0.998008
vt 0.645814 0.998008
vt 0.645814 0.679811
vt 0.657718 0.670306
vt 0.635167 0.670306
vt 0.635167 0.352134
vt 0.657718 0.352134
vt 0.657718 0.675939
vt 0.638229 0.675178
vt 0.618655 0.670306
vt 0.618655 0.352134
vt 0.657718 0.346501
vt 0.638229 0.347262
vt 0.908239 0.352134
vt 0.908239 0.670306
vt 0.908239 0.675939
vt 0.908239 0.346501
vt 0.930783 0.670306
vt 0.930783 0.352134
vt 0.927727 0.675178
vt 0.927727 0.347262
vt 0.947290 0.670306
vt 0.947290 0.352134
vt 0.323260 0.676007
vt 0.323260 0.670361
vt 0.573812 0.670361
vt 0.573812 0.676007
vt 0.300728 0.670361
vt 0.303772 0.675221
vt 0.323260 0.352164
vt 0.573812 0.352164
vt 0.596344 0.670361
vt 0.593300 0.675221
vt 0.300728 0.352164
vt 0.323260 0.346519
vt 0.573812 0.346519
vt 0.596344 0.352164
vt 0.284234 0.670361
vt 0.284234 0.352164
vt 0.303772 0.347305
vt 0.593300 0.347305
vt 0.612838 0.670361
vt 0.612838 0.352164
vn -0.004598 -0.999942 0.009779
vn -0.257978 -0.966115 0.008334
vn -0.257978 -0.966115 -0.008334
vn -0.004598 -0.999942 -0.009779
vn -0.707094 -0.707094 0.006002
vn -0.865393 -0.501035 0.007632
vn -0.865393 -0.501035 -0.007632
vn -0.707094 -0.707094 -0.006002
vn -0.999712 -0.021950 0.009664
vn -0.999712 -0.021950 -0.009664
vn -0.004569 -0.022032 0.999747
vn -0.003460 -0.500793 0.865560
vn 0.003460 -0.500793 0.865560
vn 0.004569 -0.022032 0.999747
vn -0.002632 -0.707103 0.707105
vn 0.002632 -0.707103 0.707105
vn -0.003617 -0.966016 0.258456
vn 0.004598 -0.999942 0.009779
vn 0.003617 -0.966016 0.258456
vn -0.865954 -0.017298 0.499824
vn -0.865954 0.017298 0.499824
vn -0.999712 0.021950 0.009664
vn -0.498786 -0.017136 0.866556
vn -0.498786 0.017136 0.866556
vn -0.004569 0.022032 0.999747
vn 0.999712 -0.021950 0.009664
vn 0.865393 -0.501035 0.007632
vn 0.865393 -0.501035 -0.007632
vn 0.999712 -0.021950 -0.009664
vn 0.707094 -0.707094 0.006002
vn 0.707094 -0.707094 -0.006002
vn 0.257978 -0.966115 0.008334
vn 0.004598 -0.999942 -0.009779
vn 0.257978 -0.966115 -0.008334
vn 0.498786 -0.017136 0.866556
vn 0.498786 0.017136 0.866556
vn 0.004569 0.022032 0.999747
vn 0.865954 -0.017298 0.499824
vn 0.865954 0.017298 0.499824
vn 0.999712 0.021950 0.009664
vn -0.865393 0.501035 0.007632
vn -0.865393 0.501035 -0.007632
vn -0.999712 0.021950 -0.009664
vn -0.707094 0.707094 0.006002
vn -0.707094 0.707094 -0.006002
vn -0.257978 0.966115 0.008334
vn -0.004598 0.999942 0.009779
vn -0.004598 0.999942 -0.009779
vn -0.257978 0.966115 -0.008334
vn -0.003617 0.966016 0.258456
vn 0.003617 0.966016 0.258456
vn 0.004598 0.999942 0.009779
vn -0.002632 0.707103 0.707105
vn -0.003460 0.500793 0.865560
vn 0.003460 0.500793 0.865560
vn 0.002632 0.707103 0.707105
vn 0.257978 0.966115 0.008334
vn 0.257978 0.966115 -0.008334
vn 0.004598 0.999942 -0.009779
vn 0.707094 0.707094 0.006002
vn 0.865393 0.501035 0.007632
vn 0.865393 0.501035 -0.007632
vn 0.707094 0.707094 -0.006002
vn 0.999712 0.021950 -0.009664
vn -0.865954 0.017298 -0.499824
vn -0.865954 -0.017298 -0.499824
vn -0.498786 0.017136 -0.866556
vn -0.498786 -0.017136 -0.866556
vn -0.004569 0.022032 -0.999747
vn -0.004569 -0.022032 -0.999747
vn -0.003460 0.500793 -0.865560
vn 0.003460 0.500793 -0.865560
vn 0.004569 0.022032 -0.999747
vn -0.002632 0.707103 -0.707105
vn 0.002632 0.707103 -0.707105
vn -0.003617 0.966016 -0.258456
vn 0.003617 0.966016 -0.258456
vn 0.498786 0.017136 -0.866556
vn 0.498786 -0.017136 -0.866556
vn 0.004569 -0.022032 -0.999747
vn 0.865954 0.017298 -0.499824
vn 0.865954 -0.017298 -0.499824
vn -0.003617 -0.966016 -0.258456
vn 0.003617 -0.966016 -0.258456
vn -0.002632 -0.707103 -0.707105
vn -0.003460 -0.500793 -0.865560
vn 0.003460 -0.500793 -0.865560
vn 0.002632 -0.707103 -0.707105
vn -0.946103 -0.229008 0.229007
vn -0.698361 -0.490674 0.521087
vn -0.486093 -0.719115 0.496576
vn -0.229007 -0.946104 0.229007
vn -0.529698 -0.473859 0.703475
vn -0.229008 -0.229007 0.946103
vn 0.229007 -0.946104 0.229007
vn 0.486092 -0.719115 0.496576
vn 0.698360 -0.490675 0.521087
vn 0.946103 -0.229008 0.229007
vn 0.529698 -0.473860 0.703475
vn 0.229008 -0.229007 0.946103
vn -0.229007 0.946104 0.229007
vn -0.486092 0.719115 0.496576
vn -0.698360 0.490675 0.521087
vn -0.946103 0.229008 0.229007
vn -0.529698 0.473860 0.703475
vn -0.229008 0.229007 0.946103
vn 0.946103 0.229008 0.229007
vn 0.698361 0.490674 0.521087
vn 0.486093 0.719115 0.496576
vn 0.229007 0.946104 0.229007
vn 0.529698 0.473859 0.703475
vn 0.229008 0.229007 0.946103
vn -0.229008 0.229007 -0.946103
vn -0.529698 0.473859 -0.703475
vn -0.698361 0.490674 -0.521087
vn -0.946103 0.229008 -0.229007
vn -0.486093 0.719115 -0.496576
vn -0.229007 0.946104 -0.229007
vn 0.946103 0.229008 -0.229007
vn 0.698360 0.490675 -0.521087
vn 0.529698 0.473860 -0.703475
vn 0.229008 0.229007 -0.946103
vn 0.486092 0.719115 -0.496576
vn 0.229007 0.946104 -0.229007
vn -0.229007 -0.946104 -0.229007
vn -0.486092 -0.719115 -0.496576
vn -0.698360 -0.490675 -0.521087
vn -0.946103 -0.229008 -0.229007
vn -0.529698 -0.473860 -0.703475
vn -0.229008 -0.229007 -0.946103
vn 0.946103 -0.229008 -0.229007
vn 0.698361 -0.490674 -0.521087
vn 0.486093 -0.719115 -0.496576
vn 0.229007 -0.946104 -0.229007
vn 0.529698 -0.473859 -0.703475
vn 0.229008 -0.229007 -0.946103
s 1
g pCube1
usemtl lambert2SG
f 3/11/1 2/1/2 55/4/3 63/12/4
s 2
f 2/1/5 1/2/6 56/3/7 55/4/8
f 1/2/6 9/7/9 57/8/10 56/3/7
f 6/105/11 5/106/12 16/107/13 15/108/14
f 5/106/12 4/111/15 17/112/16 16/107/13
s 1
f 4/89/17 3/90/1 18/91/18 17/92/19
s 2
f 9/7/9 8/13/20 22/21/21 21/16/22
f 8/13/20 7/22/23 23/29/24 22/21/21
f 7/109/23 6/105/11 24/116/25 23/117/24
f 12/45/26 11/46/27 64/47/28 72/48/29
f 11/46/27 10/51/30 65/52/31 64/47/28
s 1
f 10/51/32 18/61/18 66/62/33 65/52/34
s 2
f 15/108/14 14/113/35 34/118/36 33/115/37
f 14/58/35 13/49/38 35/57/39 34/70/36
f 13/49/38 12/45/26 36/56/40 35/57/39
f 21/16/22 20/24/41 40/25/42 39/17/43
f 20/24/41 19/31/44 41/32/45 40/25/42
s 5
f 19/31/46 27/37/47 42/38/48 41/32/49
f 27/97/47 26/98/50 31/99/51 30/100/52
s 2
f 26/123/53 25/119/54 32/120/55 31/124/56
f 25/119/54 24/116/25 33/115/37 32/120/55
s 5
f 30/83/52 29/75/57 52/76/58 51/84/59
s 2
f 29/75/60 28/67/61 53/68/62 52/76/63
f 28/67/61 36/56/40 54/55/64 53/68/62
f 39/17/43 38/26/65 58/18/66 57/8/10
f 38/26/65 37/34/67 59/27/68 58/18/66
f 37/125/67 45/126/69 60/127/70 59/128/68
f 45/126/69 44/129/71 49/135/72 48/131/73
f 44/129/71 43/139/74 50/140/75 49/135/72
s 5
f 43/103/76 42/102/48 51/101/59 50/104/77
s 2
f 48/131/73 47/136/78 70/137/79 69/132/80
f 47/74/78 46/64/81 71/53/82 70/66/79
f 46/64/81 54/55/64 72/48/29 71/53/82
s 1
f 63/93/4 62/95/83 67/96/84 66/94/33
s 2
f 62/143/85 61/133/86 68/138/87 67/144/88
f 61/133/86 60/127/70 69/132/80 68/138/87
f 6/105/11 15/108/14 33/115/37 24/116/25
s 5
f 27/97/47 30/100/52 51/101/59 42/102/48
s 2
f 45/126/69 48/131/73 69/132/80 60/127/70
s 1
f 63/93/4 66/94/33 18/91/18 3/90/1
s 2
f 12/45/26 72/48/29 54/55/64 36/56/40
f 57/8/10 9/7/9 21/16/22 39/17/43
f 8/13/20 9/7/9 1/2/6 73/5/89
f 73/5/90 1/2/6 2/1/5 74/6/91
s 1
f 2/1/2 3/11/1 4/14/17 74/6/92
s 2
f 74/6/91 4/14/15 5/23/12 75/15/93
f 5/106/12 6/105/11 7/109/23 75/110/94
f 75/15/93 7/22/23 8/13/20 73/5/90
f 73/5/90 74/6/91 75/15/93
s 1
f 17/71/19 18/61/18 10/51/32 76/60/95
s 2
f 76/60/96 10/51/30 11/46/27 77/50/97
f 11/46/27 12/45/26 13/49/38 77/50/98
f 77/50/97 13/49/38 14/58/35 78/59/99
f 14/113/35 15/108/14 16/107/13 78/114/100
f 78/59/99 16/79/13 17/71/16 76/60/96
f 76/60/96 77/50/97 78/59/99
s 5
f 26/41/50 27/37/47 19/31/46 79/36/101
s 2
f 79/36/102 19/31/44 20/24/41 80/30/103
f 20/24/41 21/16/22 22/21/21 80/30/104
f 80/30/103 22/21/21 23/29/24 81/35/105
f 23/117/24 24/116/25 25/119/54 81/121/106
f 81/35/105 25/43/54 26/41/53 79/36/102
f 79/36/102 80/30/103 81/35/105
f 35/57/39 36/56/40 28/67/61 82/69/107
f 82/69/108 28/67/61 29/75/60 83/77/109
s 5
f 29/75/57 30/83/52 31/85/51 83/77/110
s 2
f 83/77/109 31/85/56 32/87/55 84/78/111
f 32/120/55 33/115/37 34/118/36 84/122/112
f 84/78/111 34/70/36 35/57/39 82/69/108
f 82/69/108 83/77/109 84/78/111
f 44/129/71 45/126/69 37/125/67 85/130/113
f 85/40/114 37/34/67 38/26/65 86/33/115
f 38/26/65 39/17/43 40/25/42 86/33/116
f 86/33/115 40/25/42 41/32/45 87/39/117
s 5
f 41/32/49 42/38/48 43/42/76 87/39/118
s 2
f 87/39/117 43/42/74 44/44/71 85/40/114
f 85/40/114 86/33/115 87/39/117
f 53/68/62 54/55/64 46/64/81 88/73/119
f 88/73/120 46/64/81 47/74/78 89/81/121
f 47/136/78 48/131/73 49/135/72 89/141/122
f 89/81/121 49/88/72 50/86/75 90/82/123
s 5
f 50/86/77 51/84/59 52/76/58 90/82/124
s 2
f 90/82/123 52/76/63 53/68/62 88/73/120
f 88/73/120 89/81/121 90/82/123
s 1
f 62/19/83 63/12/4 55/4/3 91/9/125
s 2
f 91/9/126 55/4/8 56/3/7 92/10/127
f 56/3/7 57/8/10 58/18/66 92/10/128
f 92/10/127 58/18/66 59/27/68 93/20/129
f 59/128/68 60/127/70 61/133/86 93/134/130
f 93/20/129 61/28/86 62/19/85 91/9/126
f 91/9/126 92/10/127 93/20/129
f 71/53/82 72/48/29 64/47/28 94/54/131
f 94/54/132 64/47/28 65/52/31 95/63/133
s 1
f 65/52/34 66/62/33 67/72/84 95/63/134
s 2
f 95/63/133 67/72/88 68/80/87 96/65/135
f 68/138/87 69/132/80 70/137/79 96/142/136
f 96/65/135 70/66/79 71/53/82 94/54/132
f 94/54/132 95/63/133 96/65/135
