# This file uses centimeters as units for non-parametric coordinates.

mtllib model001.mtl
g default
v -75.000015 96.199249 50.000000
v -75.000015 96.199249 -50.000000
v -75.000000 96.199356 -50.000000
v -75.000000 96.199356 50.000000
v -75.000000 96.799683 50.000000
v -75.000000 96.799683 -50.000000
v -74.916176 96.799683 50.000000
v -74.916176 96.799683 -50.000000
v -71.329262 122.488853 50.000000
v -71.329262 122.488853 -50.000000
v -60.676292 146.205048 -50.000000
v -60.676292 146.205048 50.000000
v -44.083912 165.026337 -50.000000
v -44.083912 165.026337 50.000000
v -23.176287 177.110352 -50.000000
v -23.176287 177.110352 50.000000
v 0.000000 181.274216 -50.000000
v 0.000000 181.274216 50.000000
v 75.000000 96.799683 50.000000
v 75.000000 96.799683 -50.000000
v 74.916161 96.799683 50.000000
v 74.916161 96.799683 -50.000000
v 71.329285 122.488861 -50.000000
v 71.329285 122.488861 50.000000
v 23.176287 177.110352 -50.000000
v 23.176287 177.110352 50.000000
v 60.676315 146.205063 -50.000000
v 60.676315 146.205063 50.000000
v 44.083920 165.026352 -50.000000
v 44.083920 165.026352 50.000000
v 98.535683 198.535675 -50.000000
v 98.535683 198.535675 50.000000
v -98.535683 198.535675 50.000000
v -98.535683 198.535675 -50.000000
v 75.183060 -199.816956 -50.000000
v 75.183060 -199.816956 50.000000
v 99.816948 -199.816925 50.000000
v 99.816948 -199.816925 -50.000000
v -99.816948 -199.816925 -50.000000
v -99.816948 -199.816925 50.000000
v -75.183060 -199.816956 -50.000000
v -75.183060 -199.816956 50.000000
v 75.624939 -200.000000 49.521736
v 75.495522 -199.946396 49.859921
v 99.504478 -199.946396 49.859921
v 99.375061 -200.000000 49.521736
v 75.495522 -199.946396 -49.859921
v 75.624939 -200.000000 -49.521736
v 99.375061 -200.000000 -49.521736
v 99.504478 -199.946396 -49.859921
v -99.375061 -200.000000 49.521736
v -99.504478 -199.946396 49.859921
v -75.495522 -199.946396 49.859921
v -75.624939 -200.000000 49.521736
v -99.504478 -199.946396 -49.859921
v -99.375061 -200.000000 -49.521736
v -75.624939 -200.000000 -49.521736
v -75.495522 -199.946396 -49.859921
v 98.535332 198.535828 -50.000000
v 96.035828 199.571152 -48.879372
v 95.000465 200.000000 -46.173916
v -98.535332 198.535828 -50.000000
v -95.000542 200.000000 -46.173916
v -96.035828 199.571152 -48.879372
v 98.535332 198.535828 50.000000
v 95.000465 200.000000 46.173946
v 96.035828 199.571152 48.879372
v -98.535332 198.535828 50.000000
v -96.035828 199.571152 48.879372
v -95.000542 200.000000 46.173946
v 99.816971 195.442368 50.000000
v 99.946388 195.129929 49.859921
v 100.000000 195.000504 49.521732
v 100.000000 -199.375061 49.521736
v 99.946388 -199.504471 49.859921
v -99.816971 195.442368 50.000000
v -100.000000 195.000504 49.521732
v -99.946388 195.129929 49.859921
v -99.946388 -199.504471 49.859921
v -100.000000 -199.375061 49.521736
v 99.946388 195.129929 -49.859921
v 99.816971 195.442368 -50.000000
v 100.000000 195.000504 -49.521732
v 99.946388 -199.504471 -49.859921
v 100.000000 -199.375061 -49.521736
v -99.946388 195.129929 -49.859921
v -100.000000 195.000504 -49.521732
v -99.816971 195.442368 -50.000000
v -100.000000 -199.375061 -49.521736
v -99.946388 -199.504471 -49.859921
v 75.000000 96.210144 -50.000000
v 75.000000 96.202438 -49.996807
v 75.000000 96.199249 -49.989105
v 75.003891 -199.384460 -50.000000
v 75.000000 -199.375061 -49.989822
v 75.001137 -199.377808 -49.997021
v -75.000450 96.202271 -49.996841
v -75.001526 96.209824 -50.000000
v -75.000000 96.199142 -49.989212
v -75.003891 -199.384460 -50.000000
v -75.001137 -199.377808 -49.997021
v -75.000000 -199.375061 -49.989822
v 75.000000 96.202438 49.996807
v 75.000000 96.210144 50.000000
v 75.000000 96.199249 49.989105
v 75.003891 -199.384460 50.000000
v 75.001137 -199.377808 49.997021
v 75.000000 -199.375061 49.989822
v -75.000450 96.202271 49.996841
v -75.000000 96.199142 49.989212
v -75.001526 96.209824 50.000000
v -75.003891 -199.384460 50.000000
v -75.000000 -199.375061 49.989822
v -75.001137 -199.377808 49.997021
vt 0.197972 0.977851
vt 0.667960 0.004205
vt 0.431412 0.686459
vt 0.197982 0.977899
vt 0.517518 0.027921
vt 0.518831 0.027925
vt 0.518097 0.246626
vt 0.517335 0.027920
vt 0.516784 0.246622
vt 0.460607 0.027730
vt 0.516601 0.246621
vt 0.459873 0.246431
vt 0.403013 0.246240
vt 0.403748 0.027539
vt 0.348140 0.246056
vt 0.348874 0.027355
vt 0.295327 0.245878
vt 0.296061 0.027178
vt 0.243828 0.245705
vt 0.244563 0.027005
vt 0.192330 0.245533
vt 0.193064 0.026832
vt 0.084643 0.245171
vt 0.027783 0.244980
vt 0.028518 0.026279
vt 0.085377 0.026470
vt 0.139517 0.245355
vt 0.140251 0.026655
vt 0.541286 0.306944
vt 0.216283 0.276947
vt 0.113860 0.917439
vt 0.779857 0.874522
vt 0.841057 0.973368
vt 0.758300 0.892220
vt 0.020803 0.990290
vt 0.091402 0.900759
vt 0.817399 0.985663
vt 0.817276 0.986481
vt 0.841838 0.973596
vt 0.779726 0.875346
vt 0.006999 0.967812
vt 0.006197 0.967751
vt 0.020634 0.991108
vt 0.112982 0.917457
vt 0.817474 0.986083
vt 0.541507 0.306442
vt 0.841412 0.973644
vt 0.563011 0.284045
vt 0.757973 0.892003
vt 0.779640 0.874914
vt 0.006599 0.967920
vt 0.216670 0.276912
vt 0.020556 0.990678
vt 0.243477 0.290618
vt 0.091562 0.900431
vt 0.113417 0.917304
vt 0.522030 0.529849
vt 0.315784 0.545837
vt 0.521371 0.417925
vt 0.309990 0.437074
vt 0.526822 0.534299
vt 0.516555 0.422673
vt 0.320308 0.541171
vt 0.304895 0.432862
vt 0.523448 0.532950
vt 0.319148 0.544258
vt 0.517890 0.419542
vt 0.308400 0.434105
vt 0.563371 0.283955
vt 0.091370 0.900082
vt 0.520760 0.413798
vt 0.305655 0.428762
vt 0.215786 0.277210
vt 0.527477 0.536979
vt 0.671248 0.253365
vt 0.201926 0.481358
vt 0.639792 0.426565
vt 0.641302 0.430006
vt 0.520229 0.413331
vt 0.639089 0.426068
vt 0.563880 0.284095
vt 0.671692 0.252760
vt 0.304970 0.428757
vt 0.202332 0.485806
vt 0.201495 0.481876
vt 0.099261 0.277282
vt 0.099812 0.277813
vt 0.520430 0.413450
vt 0.563524 0.284106
vt 0.305371 0.428652
vt 0.216156 0.277136
vt 0.639488 0.426201
vt 0.527878 0.537162
vt 0.671624 0.253182
vt 0.779853 0.874157
vt 0.201570 0.481467
vt 0.315340 0.548878
vt 0.091346 0.899719
vt 0.099405 0.277668
vt 0.315724 0.548671
vt 0.315781 0.545835
vt 0.526824 0.534299
vt 0.757571 0.892118
vt 0.568392 0.640212
vt 0.567990 0.639698
vt 0.567921 0.639763
vt 0.545636 0.618684
vt 0.513966 0.599110
vt 0.478648 0.580147
vt 0.448192 0.565939
vt 0.422841 0.561829
vt 0.398459 0.569254
vt 0.371609 0.588539
vt 0.335603 0.609759
vt 0.304307 0.631404
vt 0.283311 0.653894
vt 0.283238 0.653834
vt 0.282952 0.654188
vt 0.282952 0.654188
vt 0.114278 0.917168
vt 0.849843 0.527843
vt 0.243810 0.291014
vt 0.301004 0.365183
vt 0.301003 0.365177
vt 0.301003 0.365177
vt 0.301175 0.365434
vt 0.301239 0.365363
vt 0.312953 0.374203
vt 0.334545 0.381657
vt 0.361915 0.393649
vt 0.387797 0.404226
vt 0.411938 0.407208
vt 0.435356 0.401184
vt 0.458681 0.387971
vt 0.482323 0.373811
vt 0.500745 0.365714
vt 0.509148 0.357934
vt 0.509223 0.357993
vt 0.541056 0.307164
vt 0.521373 0.417925
vt 0.304894 0.432862
vt 0.836041 0.442895
vt 0.757132 0.891874
vt 0.282955 0.654181
vt 0.852352 0.876211
vt 0.509310 0.357778
vt 0.984878 0.007989
vt 0.967680 0.527241
vt 0.244108 0.291215
vt 0.983428 0.443729
vt 0.983425 0.444597
vt 0.983451 0.444718
vt 0.983236 0.482929
vt 0.835850 0.482115
vt 0.836021 0.443903
vt 0.836021 0.443779
vt 0.836025 0.442911
vt 0.983411 0.443713
vt 0.837689 0.007756
vt 0.837674 0.007741
vt 0.837673 0.007051
vt 0.984897 0.007284
vt 0.984893 0.007974
vt 0.757566 0.338762
vt 0.667898 0.004260
vt 0.667924 0.004213
vt 0.757597 0.338793
vt 0.757561 0.338802
vt 0.970051 0.875179
vt 0.970057 0.875730
vt 0.852342 0.876774
vt 0.852340 0.876223
vt 0.970039 0.875167
vt 0.836030 0.442900
vt 0.568395 0.640222
vt 0.757125 0.891872
vt 0.837679 0.007751
vt 0.667901 0.004231
vt 0.849834 0.527839
vt 0.282952 0.654188
vt 0.852344 0.876214
vt 0.114285 0.917166
vt 0.983423 0.443718
vt 0.509312 0.357775
vt 0.984888 0.007985
vt 0.541053 0.307162
vt 0.757584 0.338785
vt 0.301002 0.365179
vt 0.967690 0.527237
vt 0.244114 0.291218
vt 0.970047 0.875170
vt 0.431365 0.686462
vn 0.990727 -0.135871 0.000000
vn 1.000000 -0.000049 0.000000
vn 1.000000 -0.000049 0.000000
vn 0.990727 -0.135871 0.000000
vn 0.990391 -0.138297 0.000000
vn 0.990392 -0.138286 0.000000
vn 0.989945 -0.141454 0.000000
vn 0.989945 -0.141453 0.000000
vn 0.946648 -0.322268 0.000000
vn 0.946648 -0.322269 0.000000
vn -1.000000 0.000000 0.000000
vn -1.000000 -0.000004 -0.000007
vn -1.000000 -0.000314 0.000007
vn -1.000000 -0.000973 0.000000
vn 0.842079 -0.539354 0.000000
vn 0.842079 -0.539354 0.000000
vn 0.999991 0.003944 0.001308
vn 0.999999 -0.000237 0.001320
vn 0.999999 0.000345 -0.001320
vn 0.999999 -0.000236 -0.001320
vn 0.635989 -0.771699 0.000000
vn 0.635989 -0.771699 0.000000
vn 0.345826 -0.938299 0.000000
vn 0.345826 -0.938299 0.000000
vn 0.000000 -1.000000 0.000000
vn 0.000000 -1.000000 0.000000
vn -0.345826 -0.938299 0.000000
vn -0.345826 -0.938299 0.000000
vn 0.002043 0.999994 -0.002792
vn -0.002043 0.999994 -0.002821
vn -0.001931 0.999994 0.002792
vn 0.001931 0.999994 0.002822
vn -0.842079 -0.539354 0.000000
vn -0.946575 -0.322483 0.000001
vn -0.946648 -0.322268 0.000000
vn -0.842079 -0.539354 0.000000
vn -0.635988 -0.771699 0.000000
vn -0.635988 -0.771699 0.000000
vn -0.999991 0.003944 -0.001308
vn -0.999999 -0.000236 -0.001320
vn -0.999999 0.000345 0.001320
vn -0.999999 -0.000237 0.001320
vn 0.001971 -0.999998 0.000663
vn -0.001971 -0.999998 0.000663
vn -0.001957 -0.999998 -0.000663
vn 0.001957 -0.999998 -0.000663
vn 1.000000 0.000000 0.000003
vn 1.000000 -0.000004 0.000007
vn 1.000000 -0.000314 -0.000007
vn 1.000000 0.000000 -0.000003
vn 0.001971 -0.999998 0.000663
vn -0.001971 -0.999998 0.000663
vn -0.001957 -0.999998 -0.000663
vn 0.001957 -0.999998 -0.000663
vn 0.000000 0.000000 -1.000000
vn -0.000000 0.000000 -1.000000
vn 0.000000 0.000000 -1.000000
vn -0.000004 0.000000 -1.000000
vn -0.000000 0.000000 -1.000000
vn 0.000000 0.000000 -1.000000
vn -0.000000 0.000000 -1.000000
vn 0.000002 0.000000 -1.000000
vn 0.000000 0.000000 -1.000000
vn 0.000000 0.000000 -1.000000
vn 0.000000 0.000000 -1.000000
vn 0.000000 0.000000 -1.000000
vn 0.000000 0.000000 -1.000000
vn 0.000000 0.000000 -1.000000
vn 0.000000 0.000000 -1.000000
vn 0.000000 0.000000 -1.000000
vn 0.000000 0.000000 -1.000000
vn 0.000000 0.000000 -1.000000
vn -0.000000 0.000000 -1.000000
vn -0.000000 0.000000 -1.000000
vn 0.000000 0.000000 -1.000000
vn 0.000000 0.000000 -1.000000
vn 0.000000 0.000000 -1.000000
vn 0.000000 0.000000 -1.000000
vn -0.000001 0.000000 -1.000000
vn -0.000000 0.000000 -1.000000
vn 0.000000 0.000000 -1.000000
vn 0.000000 0.000000 -1.000000
vn 0.000000 0.000000 -1.000000
vn 0.000000 0.000000 1.000000
vn 0.000000 0.000000 1.000000
vn -0.000000 0.000000 1.000000
vn -0.000007 0.000000 1.000000
vn 0.000000 0.000000 1.000000
vn 0.000000 0.000000 1.000000
vn 0.000000 0.000000 1.000000
vn -0.000002 0.000000 1.000000
vn -0.000000 0.000000 1.000000
vn -0.000002 0.000000 1.000000
vn 0.000000 0.000000 1.000000
vn 0.000000 0.000000 1.000000
vn -0.000000 0.000000 1.000000
vn 0.000000 0.000000 1.000000
vn 0.000000 0.000000 1.000000
vn 0.000000 0.000000 1.000000
vn 0.000000 0.000000 1.000000
vn -0.000000 0.000000 1.000000
vn -0.000001 0.000000 1.000000
vn -0.000000 0.000000 1.000000
vn 0.000000 0.000000 1.000000
vn 0.000000 0.000000 1.000000
vn 0.000000 0.000000 1.000000
vn -0.000000 0.000000 1.000000
vn -0.000001 0.000000 1.000000
vn -0.000001 0.000000 1.000000
vn 0.000000 0.000000 1.000000
vn -0.000000 0.000000 1.000000
vn -0.000000 0.000000 1.000000
vn 0.000001 -0.734367 0.678753
vn 0.000001 -0.734367 0.678753
vn 0.000001 -0.734367 0.678753
vn 0.000001 -0.734367 0.678753
vn -0.304684 -0.951836 0.034280
vn 0.304567 -0.951872 0.034348
vn -0.304502 -0.951892 -0.034366
vn 0.304726 -0.951823 -0.034294
vn 0.000001 -0.734367 -0.678753
vn 0.000001 -0.734367 -0.678753
vn 0.000001 -0.734367 -0.678753
vn 0.000001 -0.734367 -0.678753
vn -0.000001 -0.734367 0.678753
vn -0.000001 -0.734367 0.678753
vn -0.000001 -0.734367 0.678753
vn -0.000001 -0.734367 0.678753
vn -0.304760 -0.951812 0.034281
vn 0.304538 -0.951881 0.034352
vn -0.304532 -0.951882 -0.034362
vn 0.304649 -0.951847 -0.034293
vn -0.000001 -0.734367 -0.678753
vn -0.000001 -0.734367 -0.678753
vn -0.000001 -0.734367 -0.678753
vn -0.000001 -0.734367 -0.678753
vn -0.382705 -0.923871 0.000000
vn -0.382735 -0.923858 0.000000
vn 0.382807 -0.923828 0.000000
vn 0.382761 -0.923848 0.000000
vn -0.382807 -0.923828 0.000000
vn -0.382761 -0.923848 0.000000
vn 0.382705 -0.923871 0.000000
vn 0.382735 -0.923858 0.000000
vn 0.184622 0.979165 -0.084560
vn -0.185595 0.979015 -0.084166
vn 0.000000 0.734508 -0.678600
vn 0.000000 0.734508 -0.678600
vn 0.000000 0.734508 -0.678600
vn 0.000000 0.734508 -0.678600
vn 0.000000 0.734508 0.678600
vn 0.000000 0.734508 0.678600
vn 0.000000 0.734508 0.678600
vn 0.000000 0.734508 0.678600
vn 0.185204 0.979075 0.084327
vn -0.184220 0.979227 0.084724
vn 0.398144 0.917323 0.000000
vn 0.398144 0.917323 0.000000
vn 0.382685 0.923879 0.000000
vn 0.382683 0.923880 0.000000
vn -0.398144 0.917323 0.000000
vn -0.398144 0.917323 0.000000
vn -0.382685 0.923879 0.000000
vn -0.382683 0.923880 0.000000
vn 0.987842 0.003049 0.155433
vn 0.989040 -0.069939 0.130029
vn 0.734538 0.000000 0.678568
vn 0.734538 -0.000000 0.678568
vn 0.734429 -0.000000 0.678685
vn 0.734429 -0.000000 0.678685
vn -0.734504 -0.000000 0.678604
vn -0.734504 -0.000000 0.678604
vn -0.734463 -0.000000 0.678649
vn -0.734463 0.000000 0.678649
vn -0.989030 0.070497 0.129808
vn -0.989044 -0.069774 0.130087
vn 0.734504 -0.000000 -0.678604
vn 0.734504 -0.000000 -0.678604
vn 0.734463 -0.000000 -0.678649
vn 0.734463 0.000000 -0.678649
vn 0.989030 0.070497 -0.129808
vn 0.989045 -0.069747 -0.130099
vn -0.987842 0.003049 -0.155433
vn -0.989041 -0.069913 -0.130041
vn -0.734538 0.000000 -0.678568
vn -0.734538 -0.000000 -0.678568
vn -0.734429 -0.000000 -0.678685
vn -0.734429 -0.000000 -0.678685
vn 0.923880 0.382683 0.000000
vn 0.923877 0.382688 0.000000
vn 0.923879 0.382684 -0.000000
vn 0.923873 0.382701 0.000000
vn 0.923844 -0.382768 0.000000
vn 0.923877 -0.382690 0.000000
vn -0.923880 0.382683 0.000000
vn -0.923877 0.382688 -0.000000
vn -0.923879 0.382684 0.000000
vn -0.923871 0.382703 -0.000033
vn -0.923844 -0.382768 0.000000
vn -0.923877 -0.382690 0.000000
vn -1.000000 -0.000002 -0.000005
vn -0.924508 -0.086169 -0.371295
vn -1.000000 -0.000004 -0.000009
vn -0.733925 -0.000010 -0.679231
vn 0.946593 -0.000008 -0.322430
vn 0.981221 -0.000005 -0.192886
vn 0.734135 -0.000001 -0.679004
vn 0.887865 -0.000008 -0.460105
vn -0.999335 -0.000220 0.036456
vn -0.999954 -0.005454 0.007922
vn -0.734684 -0.000002 0.678409
vn -0.888225 -0.000508 0.459409
vn 0.981224 -0.000001 0.192873
vn 0.924608 -0.086111 0.371059
vn 0.946602 -0.000002 0.322404
vn 0.733921 -0.000006 0.679235
vn -0.989845 -0.142146 -0.001012
vn -0.992881 -0.118970 0.005883
vn -0.989947 -0.141439 -0.000019
vn -0.990094 -0.140402 -0.000843
vn -0.923861 -0.382728 0.000000
vn -0.923860 -0.382730 -0.000000
vn -0.923869 -0.382710 0.000000
vn -0.923944 -0.382528 0.000000
vn 0.991588 0.129434 0.000000
vn 0.991588 0.129434 0.000000
vn 0.991588 0.129434 0.000000
vn 0.991588 0.129434 0.000000
vn 0.991588 0.129434 0.000000
vn 0.991588 0.129434 0.000000
vn 0.991588 0.129434 0.000000
vn 0.991588 0.129434 0.000000
vn 0.923861 -0.382728 0.000000
vn 0.923860 -0.382730 -0.000000
vn 0.923869 -0.382710 -0.000000
vn 0.923872 -0.382703 -0.000004
s 1
g pCube5
usemtl initialShadingGroup
f 2/192/1 3/3/2 4/4/3 1/1/4
f 4/6/3 3/7/2 5/5/5
f 3/7/2 6/9/6 5/5/5
f 5/5/5 6/9/6 7/8/7
f 6/9/6 8/11/8 7/8/7
f 8/11/8 10/12/9 7/8/7
f 10/12/9 9/10/10 7/8/7
f 93/142/11 95/159/12 108/147/13 105/158/14
f 10/12/9 11/13/15 12/14/16 9/10/10
s 3
f 73/71/17 74/81/18 83/80/19
f 83/80/19 74/81/18 85/75/20
s 1
f 11/13/15 13/15/21 14/16/22 12/14/16
f 13/15/21 15/17/23 16/18/24 14/16/22
f 15/17/23 17/19/25 18/20/26 16/18/24
f 17/19/25 25/21/27 26/22/28 18/20/26
s 4
f 61/57/29 63/63/30 70/60/31 66/62/32
s 1
f 27/23/33 23/24/34 24/25/35 28/26/36
f 25/21/27 29/27/37 30/28/38 26/22/28
f 29/27/37 27/23/33 28/26/36 30/28/38
s 6
f 87/76/39 89/87/40 77/83/41
f 77/83/41 89/87/40 80/73/42
s 7
f 46/33/43 43/37/44 48/34/45 49/40/46
s 8
f 110/148/47 113/173/48 102/145/49 99/121/50
s 9
f 54/35/51 51/41/52 56/36/53 57/44/54
s 10
f 2/119/55 98/144/56 3/118/57
f 3/118/57 98/144/56 6/117/58
f 39/70/59 88/100/60 41/31/61
f 41/31/61 88/100/60 100/120/62
f 100/120/62 88/100/60 98/144/56
f 98/144/56 88/100/60 6/117/58
f 38/32/63 35/103/64 82/74/65
f 35/103/64 94/143/66 82/74/65
f 94/143/66 91/104/67 82/74/65
f 91/104/67 20/105/68 82/74/65
f 22/106/69 23/107/70 20/105/68
f 20/105/68 23/107/70 82/74/65
f 23/107/70 27/108/71 82/74/65
f 27/108/71 29/109/72 82/74/65
f 82/74/65 29/109/72 31/102/73
f 31/102/73 29/109/72 59/61/74
f 8/116/75 6/117/58 10/115/76
f 6/117/58 88/100/60 10/115/76
f 10/115/76 88/100/60 11/114/77
f 11/114/77 88/100/60 13/113/78
f 88/100/60 34/101/79 13/113/78
f 34/101/79 62/58/80 13/113/78
f 29/109/72 25/110/81 59/61/74
f 13/113/78 62/58/80 15/112/82
f 25/110/81 17/111/83 59/61/74
f 15/112/82 62/58/80 17/111/83
f 62/58/80 59/61/74 17/111/83
s 13
f 1/124/84 4/125/85 111/123/86
f 4/125/85 5/126/87 111/123/86
f 37/69/88 71/79/89 36/29/90
f 36/29/90 71/79/89 106/139/91
f 106/139/91 71/79/89 104/146/92
f 104/146/92 71/79/89 19/138/93
f 40/30/94 42/122/95 76/72/96
f 42/122/95 112/149/97 76/72/96
f 112/149/97 111/123/86 76/72/96
f 111/123/86 5/126/87 76/72/96
f 7/127/98 9/128/99 5/126/87
f 5/126/87 9/128/99 76/72/96
f 9/128/99 12/129/100 76/72/96
f 12/129/100 14/130/101 76/72/96
f 76/72/96 14/130/101 33/141/102
f 33/141/102 14/130/101 68/64/103
f 21/137/104 19/138/93 24/136/105
f 19/138/93 71/79/89 24/136/105
f 24/136/105 71/79/89 28/135/106
f 28/135/106 71/79/89 30/134/107
f 71/79/89 32/140/108 30/134/107
f 32/140/108 65/59/109 30/134/107
f 14/130/101 16/131/110 68/64/103
f 30/134/107 65/59/109 26/133/111
f 16/131/110 18/132/112 68/64/103
f 26/133/111 65/59/109 18/132/112
f 18/132/112 65/59/109 68/64/103
s off
f 36/29/113 44/46/114 45/48/115 37/69/116
s 7
f 44/45/117 43/37/44 46/33/43 45/47/118
f 48/34/45 47/49/119 50/50/120 49/40/46
s off
f 47/49/121 35/103/122 38/32/123 50/50/124
f 40/30/125 52/52/126 53/54/127 42/122/128
s 9
f 52/51/129 51/41/52 54/35/51 53/53/130
f 56/36/53 55/55/131 58/56/132 57/44/54
s off
f 55/55/133 39/70/134 41/31/135 58/56/136
s 7
f 36/38/137 35/103/138 44/45/117
f 35/103/138 47/49/119 44/45/117
f 44/45/117 47/49/119 43/37/44
f 43/37/44 47/49/119 48/34/45
f 38/32/139 37/39/140 50/50/120
f 37/39/140 45/47/118 50/50/120
f 45/47/118 46/33/43 50/50/120
f 46/33/43 49/40/46 50/50/120
s 9
f 40/42/141 39/70/142 52/51/129
f 39/70/142 55/55/131 52/51/129
f 52/51/129 55/55/131 51/41/52
f 51/41/52 55/55/131 56/36/53
f 41/31/143 42/43/144 58/56/132
f 42/43/144 53/53/130 58/56/132
f 53/53/130 54/35/51 58/56/132
f 54/35/51 57/44/54 58/56/132
s 4
f 61/57/29 60/65/145 63/63/30
f 63/63/30 60/65/145 64/66/146
s off
f 60/65/147 59/61/148 62/58/149 64/66/150
f 65/59/151 67/67/152 69/68/153 68/64/154
s 4
f 67/67/155 66/62/32 69/68/156
f 69/68/156 66/62/32 70/60/31
f 32/140/157 31/102/158 65/59/159
f 31/102/158 59/61/160 65/59/159
f 65/59/159 59/61/160 67/67/155
f 59/61/160 60/65/145 67/67/155
f 60/65/145 61/57/29 67/67/155
f 61/57/29 66/62/32 67/67/155
f 34/101/161 33/141/162 62/58/163
f 33/141/162 68/64/164 62/58/163
f 62/58/163 68/64/164 64/66/146
f 68/64/164 69/68/156 64/66/146
f 64/66/146 69/68/156 63/63/30
f 63/63/30 69/68/156 70/60/31
s 3
f 73/71/17 72/88/165 75/89/166 74/81/18
s 22
f 72/88/167 71/79/168 75/89/169
f 75/89/169 71/79/168 37/69/170
s 23
f 76/72/171 78/90/172 40/30/173
f 40/30/173 78/90/172 79/91/174
s 6
f 78/90/175 77/83/41 80/73/42 79/91/176
s 24
f 82/74/177 81/93/178 38/32/179
f 38/32/179 81/93/178 84/95/180
s 3
f 81/92/181 83/80/19 85/75/20 84/94/182
s 6
f 87/76/39 86/96/183 90/99/184 89/87/40
s 25
f 86/97/185 88/100/186 90/98/187
f 90/98/187 88/100/186 39/70/188
s 3
f 31/78/189 32/140/190 82/77/191
f 82/77/191 32/140/190 81/92/181
f 81/92/181 32/140/190 83/80/19
f 83/80/19 32/140/190 73/71/17
f 73/71/17 32/140/190 72/88/165
f 32/140/190 71/79/192 72/88/165
f 37/69/193 38/82/194 75/89/166
f 38/82/194 84/94/182 75/89/166
f 75/89/166 84/94/182 74/81/18
f 74/81/18 84/94/182 85/75/20
s 6
f 33/141/195 34/84/196 76/72/197
f 76/72/197 34/84/196 78/90/175
f 78/90/175 34/84/196 77/83/41
f 77/83/41 34/84/196 87/76/39
f 87/76/39 34/84/196 86/96/183
f 86/96/183 34/84/196 88/85/198
f 39/86/199 40/30/200 90/99/184
f 40/30/200 79/91/176 90/99/184
f 79/91/176 80/73/42 90/99/184
f 80/73/42 89/87/40 90/99/184
s 1
f 93/142/11 92/174/201 95/159/12
f 95/159/12 92/174/201 96/177/202
f 92/175/201 91/104/203 96/176/202
f 96/176/202 91/104/203 94/143/204
s 8
f 98/144/205 97/180/206 100/120/207
f 100/120/207 97/180/206 101/182/208
f 97/179/206 99/121/50 101/181/208
f 101/181/208 99/121/50 102/145/49
s 1
f 104/146/209 103/184/210 106/139/211
f 106/139/211 103/184/210 107/186/212
f 103/183/210 105/158/14 107/185/212
f 107/185/212 105/158/14 108/147/13
s 8
f 110/148/47 109/189/213 113/173/48
f 113/173/48 109/189/213 114/191/214
f 109/188/213 111/123/215 114/190/214
f 114/190/214 111/123/215 112/149/216
s 1
f 24/153/35 23/154/34 21/152/217
f 21/152/217 23/154/34 19/151/218
f 19/151/218 23/154/34 104/150/209
f 104/150/209 23/154/34 103/183/210
f 103/183/210 23/154/34 105/158/14
f 23/154/34 22/155/219 105/158/14
f 22/155/219 20/156/220 105/158/14
f 105/158/14 20/156/220 93/142/11
f 93/142/11 20/156/220 92/174/201
f 20/156/220 91/157/203 92/174/201
f 35/161/221 36/162/222 94/160/223
f 94/160/223 36/162/222 96/177/202
f 96/177/202 36/162/222 95/159/12
f 95/159/12 36/162/222 108/147/13
f 108/147/13 36/162/222 107/185/212
f 36/162/222 106/163/224 107/185/212
s off
f 109/187/225 110/164/226 99/165/227 97/178/228 98/166/229 2/2/230 1/167/231 111/168/232
s 8
f 42/170/233 41/171/234 112/169/235
f 112/169/235 41/171/234 114/191/214
f 114/191/214 41/171/234 113/173/48
f 113/173/48 41/171/234 102/145/49
f 41/171/234 100/172/236 102/145/49
f 100/172/236 101/181/208 102/145/49
