# This file uses centimeters as units for non-parametric coordinates.

mtllib woodenFence.mtl
g default
v -1.876345 -3.867385 0.727179
v 1.876345 -3.867385 0.727179
v -1.876345 21.025813 0.727179
v 1.876345 21.025813 0.727179
v -1.876345 21.025813 -0.727179
v 1.876345 21.025813 -0.727179
v -1.876345 -3.867385 -0.727179
v 1.876345 -3.867385 -0.727179
v 0.000000 -3.867385 0.727179
v 0.000000 -3.867385 -0.727179
v 0.000000 24.810164 -0.727179
v 0.000000 24.810164 0.727179
vt 0.001879 0.684404
vt 0.315483 0.684404
vt 0.315483 0.998008
vt 0.001879 0.998008
vt 0.321888 0.684404
vt 0.635491 0.684404
vt 0.635491 0.998008
vt 0.321888 0.998008
vt 0.837527 0.680640
vt 0.837527 0.367036
vt 0.994329 0.367036
vt 0.994329 0.680640
vt 0.680725 0.367036
vt 0.680725 0.680640
vt 0.465039 0.680640
vt 0.465039 0.367036
vt 0.621841 0.367036
vt 0.621841 0.680640
vt 0.308237 0.367036
vt 0.308237 0.680640
vt 0.158681 0.363271
vt 0.158681 0.001992
vt 0.315483 0.001992
vt 0.315483 0.315596
vt 0.001879 0.001992
vt 0.001879 0.315596
vt 0.839394 0.363271
vt 0.839394 0.001992
vt 0.996196 0.049667
vt 0.996196 0.363271
vt 0.682592 0.049667
vt 0.682592 0.363271
vn 0.000000 0.000000 1.000000
vn 0.000000 0.000000 1.000000
vn 0.000000 0.000000 1.000000
vn 0.000000 0.000000 1.000000
vn 0.000000 1.000000 0.000000
vn 0.000000 1.000000 0.000000
vn 0.895921 0.444213 0.000000
vn 0.895921 0.444213 0.000000
vn 0.000000 0.000000 -1.000000
vn 0.000000 0.000000 -1.000000
vn 0.000000 0.000000 -1.000000
vn 0.000000 0.000000 -1.000000
vn 0.000000 -1.000000 0.000000
vn 0.000000 -1.000000 0.000000
vn 0.000000 -1.000000 0.000000
vn 0.000000 -1.000000 0.000000
vn 1.000000 0.000000 0.000000
vn 1.000000 0.000000 0.000000
vn 1.000000 0.000000 0.000000
vn 1.000000 0.000000 0.000000
vn -1.000000 0.000000 0.000000
vn -1.000000 0.000000 0.000000
vn -1.000000 0.000000 0.000000
vn -1.000000 0.000000 0.000000
vn 0.000000 -1.000000 0.000000
vn 0.000000 -1.000000 0.000000
vn 0.000000 0.000000 -1.000000
vn 0.000000 0.000000 -1.000000
vn -0.895921 0.444213 0.000000
vn -0.895921 0.444213 0.000000
vn 0.000000 0.000000 1.000000
vn 0.000000 0.000000 1.000000
s 1
g pCube1
usemtl initialShadingGroup
f 12/21/1 9/22/2 2/23/3 4/24/4
s 2
f 11/9/5 12/10/6 4/11/7 6/12/8
s 3
f 10/27/9 11/28/10 6/29/11 8/30/12
s 4
f 9/15/13 10/16/14 8/17/15 2/18/16
s off
f 2/1/17 8/2/18 6/3/19 4/4/20
f 7/5/21 1/6/22 3/7/23 5/8/24
s 4
f 7/19/25 10/16/14 9/15/13 1/20/26
s 3
f 5/31/27 11/28/10 10/27/9 7/32/28
s 2
f 3/13/29 12/10/6 11/9/5 5/14/30
s 1
f 1/25/31 9/22/2 12/21/1 3/26/32
g default
v 2.029947 -3.867385 0.727179
v 5.782637 -3.867385 0.727179
v 2.029947 21.025813 0.727179
v 5.782637 21.025813 0.727179
v 2.029947 21.025813 -0.727179
v 5.782637 21.025813 -0.727179
v 2.029947 -3.867385 -0.727179
v 5.782637 -3.867385 -0.727179
v 3.906292 -3.867385 0.727179
v 3.906292 -3.867385 -0.727179
v 3.906292 24.810164 -0.727179
v 3.906292 24.810164 0.727179
vt 0.001879 0.684404
vt 0.315483 0.684404
vt 0.315483 0.998008
vt 0.001879 0.998008
vt 0.321888 0.684404
vt 0.635491 0.684404
vt 0.635491 0.998008
vt 0.321888 0.998008
vt 0.837527 0.680640
vt 0.837527 0.367036
vt 0.994329 0.367036
vt 0.994329 0.680640
vt 0.680725 0.367036
vt 0.680725 0.680640
vt 0.465039 0.680640
vt 0.465039 0.367036
vt 0.621841 0.367036
vt 0.621841 0.680640
vt 0.308237 0.367036
vt 0.308237 0.680640
vt 0.158681 0.363271
vt 0.158681 0.001992
vt 0.315483 0.001992
vt 0.315483 0.315596
vt 0.001879 0.001992
vt 0.001879 0.315596
vt 0.839394 0.363271
vt 0.839394 0.001992
vt 0.996196 0.049667
vt 0.996196 0.363271
vt 0.682592 0.049667
vt 0.682592 0.363271
vn 0.000000 0.000000 1.000000
vn 0.000000 0.000000 1.000000
vn 0.000000 0.000000 1.000000
vn 0.000000 0.000000 1.000000
vn 0.000000 1.000000 0.000000
vn 0.000000 1.000000 0.000000
vn 0.895921 0.444213 0.000000
vn 0.895921 0.444213 0.000000
vn 0.000000 0.000000 -1.000000
vn 0.000000 0.000000 -1.000000
vn 0.000000 0.000000 -1.000000
vn 0.000000 0.000000 -1.000000
vn 0.000000 -1.000000 0.000000
vn 0.000000 -1.000000 0.000000
vn 0.000000 -1.000000 0.000000
vn 0.000000 -1.000000 0.000000
vn 1.000000 0.000000 0.000000
vn 1.000000 0.000000 0.000000
vn 1.000000 0.000000 0.000000
vn 1.000000 0.000000 0.000000
vn -1.000000 0.000000 0.000000
vn -1.000000 0.000000 0.000000
vn -1.000000 0.000000 0.000000
vn -1.000000 0.000000 0.000000
vn 0.000000 -1.000000 0.000000
vn 0.000000 -1.000000 0.000000
vn 0.000000 0.000000 -1.000000
vn 0.000000 0.000000 -1.000000
vn -0.895921 0.444213 0.000000
vn -0.895921 0.444213 0.000000
vn 0.000000 0.000000 1.000000
vn 0.000000 0.000000 1.000000
s 1
g pCube2
usemtl initialShadingGroup
f 24/53/33 21/54/34 14/55/35 16/56/36
s 2
f 23/41/37 24/42/38 16/43/39 18/44/40
s 3
f 22/59/41 23/60/42 18/61/43 20/62/44
s 4
f 21/47/45 22/48/46 20/49/47 14/50/48
s off
f 14/33/49 20/34/50 18/35/51 16/36/52
f 19/37/53 13/38/54 15/39/55 17/40/56
s 4
f 19/51/57 22/48/46 21/47/45 13/52/58
s 3
f 17/63/59 23/60/42 22/59/41 19/64/60
s 2
f 15/45/61 24/42/38 23/41/37 17/46/62
s 1
f 13/57/63 21/54/34 24/53/33 15/58/64
g default
v 5.892905 -3.867385 0.727179
v 9.645594 -3.867385 0.727179
v 5.892905 21.025813 0.727179
v 9.645594 21.025813 0.727179
v 5.892905 21.025813 -0.727179
v 9.645594 21.025813 -0.727179
v 5.892905 -3.867385 -0.727179
v 9.645594 -3.867385 -0.727179
v 7.769250 -3.867385 0.727179
v 7.769250 -3.867385 -0.727179
v 7.769250 24.810164 -0.727179
v 7.769250 24.810164 0.727179
vt 0.001879 0.684404
vt 0.315483 0.684404
vt 0.315483 0.998008
vt 0.001879 0.998008
vt 0.321888 0.684404
vt 0.635491 0.684404
vt 0.635491 0.998008
vt 0.321888 0.998008
vt 0.837527 0.680640
vt 0.837527 0.367036
vt 0.994329 0.367036
vt 0.994329 0.680640
vt 0.680725 0.367036
vt 0.680725 0.680640
vt 0.465039 0.680640
vt 0.465039 0.367036
vt 0.621841 0.367036
vt 0.621841 0.680640
vt 0.308237 0.367036
vt 0.308237 0.680640
vt 0.158681 0.363271
vt 0.158681 0.001992
vt 0.315483 0.001992
vt 0.315483 0.315596
vt 0.001879 0.001992
vt 0.001879 0.315596
vt 0.839394 0.363271
vt 0.839394 0.001992
vt 0.996196 0.049667
vt 0.996196 0.363271
vt 0.682592 0.049667
vt 0.682592 0.363271
vn 0.000000 0.000000 1.000000
vn 0.000000 0.000000 1.000000
vn 0.000000 0.000000 1.000000
vn 0.000000 0.000000 1.000000
vn 0.000000 1.000000 0.000000
vn 0.000000 1.000000 0.000000
vn 0.895921 0.444213 0.000000
vn 0.895921 0.444213 0.000000
vn 0.000000 0.000000 -1.000000
vn 0.000000 0.000000 -1.000000
vn 0.000000 0.000000 -1.000000
vn 0.000000 0.000000 -1.000000
vn 0.000000 -1.000000 0.000000
vn 0.000000 -1.000000 0.000000
vn 0.000000 -1.000000 0.000000
vn 0.000000 -1.000000 0.000000
vn 1.000000 0.000000 0.000000
vn 1.000000 0.000000 0.000000
vn 1.000000 0.000000 0.000000
vn 1.000000 0.000000 0.000000
vn -1.000000 0.000000 0.000000
vn -1.000000 0.000000 0.000000
vn -1.000000 0.000000 0.000000
vn -1.000000 0.000000 0.000000
vn 0.000000 -1.000000 0.000000
vn 0.000000 -1.000000 0.000000
vn 0.000000 0.000000 -1.000000
vn 0.000000 0.000000 -1.000000
vn -0.895921 0.444213 0.000000
vn -0.895921 0.444213 0.000000
vn 0.000000 0.000000 1.000000
vn 0.000000 0.000000 1.000000
s 1
g pCube3
usemtl initialShadingGroup
f 36/85/65 33/86/66 26/87/67 28/88/68
s 2
f 35/73/69 36/74/70 28/75/71 30/76/72
s 3
f 34/91/73 35/92/74 30/93/75 32/94/76
s 4
f 33/79/77 34/80/78 32/81/79 26/82/80
s off
f 26/65/81 32/66/82 30/67/83 28/68/84
f 31/69/85 25/70/86 27/71/87 29/72/88
s 4
f 31/83/89 34/80/78 33/79/77 25/84/90
s 3
f 29/95/91 35/92/74 34/91/73 31/96/92
s 2
f 27/77/93 36/74/70 35/73/69 29/78/94
s 1
f 25/89/95 33/86/66 36/85/65 27/90/96
g default
v -5.672610 -3.867385 0.727179
v -1.919920 -3.867385 0.727179
v -5.672610 21.025813 0.727179
v -1.919920 21.025813 0.727179
v -5.672610 21.025813 -0.727179
v -1.919920 21.025813 -0.727179
v -5.672610 -3.867385 -0.727179
v -1.919920 -3.867385 -0.727179
v -3.796265 -3.867385 0.727179
v -3.796265 -3.867385 -0.727179
v -3.796265 24.810164 -0.727179
v -3.796265 24.810164 0.727179
vt 0.001879 0.684404
vt 0.315483 0.684404
vt 0.315483 0.998008
vt 0.001879 0.998008
vt 0.321888 0.684404
vt 0.635491 0.684404
vt 0.635491 0.998008
vt 0.321888 0.998008
vt 0.837527 0.680640
vt 0.837527 0.367036
vt 0.994329 0.367036
vt 0.994329 0.680640
vt 0.680725 0.367036
vt 0.680725 0.680640
vt 0.465039 0.680640
vt 0.465039 0.367036
vt 0.621841 0.367036
vt 0.621841 0.680640
vt 0.308237 0.367036
vt 0.308237 0.680640
vt 0.158681 0.363271
vt 0.158681 0.001992
vt 0.315483 0.001992
vt 0.315483 0.315596
vt 0.001879 0.001992
vt 0.001879 0.315596
vt 0.839394 0.363271
vt 0.839394 0.001992
vt 0.996196 0.049667
vt 0.996196 0.363271
vt 0.682592 0.049667
vt 0.682592 0.363271
vn 0.000000 0.000000 1.000000
vn 0.000000 0.000000 1.000000
vn 0.000000 0.000000 1.000000
vn 0.000000 0.000000 1.000000
vn 0.000000 1.000000 0.000000
vn 0.000000 1.000000 0.000000
vn 0.895921 0.444213 0.000000
vn 0.895921 0.444213 0.000000
vn 0.000000 0.000000 -1.000000
vn 0.000000 0.000000 -1.000000
vn 0.000000 0.000000 -1.000000
vn 0.000000 0.000000 -1.000000
vn 0.000000 -1.000000 0.000000
vn 0.000000 -1.000000 0.000000
vn 0.000000 -1.000000 0.000000
vn 0.000000 -1.000000 0.000000
vn 1.000000 0.000000 0.000000
vn 1.000000 0.000000 0.000000
vn 1.000000 0.000000 0.000000
vn 1.000000 0.000000 0.000000
vn -1.000000 0.000000 0.000000
vn -1.000000 0.000000 0.000000
vn -1.000000 0.000000 0.000000
vn -1.000000 0.000000 0.000000
vn 0.000000 -1.000000 0.000000
vn 0.000000 -1.000000 0.000000
vn 0.000000 0.000000 -1.000000
vn 0.000000 0.000000 -1.000000
vn -0.895921 0.444213 0.000000
vn -0.895921 0.444213 0.000000
vn 0.000000 0.000000 1.000000
vn 0.000000 0.000000 1.000000
s 1
g pCube4
usemtl initialShadingGroup
f 48/117/97 45/118/98 38/119/99 40/120/100
s 2
f 47/105/101 48/106/102 40/107/103 42/108/104
s 3
f 46/123/105 47/124/106 42/125/107 44/126/108
s 4
f 45/111/109 46/112/110 44/113/111 38/114/112
s off
f 38/97/113 44/98/114 42/99/115 40/100/116
f 43/101/117 37/102/118 39/103/119 41/104/120
s 4
f 43/115/121 46/112/110 45/111/109 37/116/122
s 3
f 41/127/123 47/124/106 46/123/105 43/128/124
s 2
f 39/109/125 48/106/102 47/105/101 41/110/126
s 1
f 37/121/127 45/118/98 48/117/97 39/122/128
g default
v -9.492114 -3.867385 0.727179
v -5.739424 -3.867385 0.727179
v -9.492114 21.025813 0.727179
v -5.739424 21.025813 0.727179
v -9.492114 21.025813 -0.727179
v -5.739424 21.025813 -0.727179
v -9.492114 -3.867385 -0.727179
v -5.739424 -3.867385 -0.727179
v -7.615769 -3.867385 0.727179
v -7.615769 -3.867385 -0.727179
v -7.615769 24.810164 -0.727179
v -7.615769 24.810164 0.727179
vt 0.001879 0.684404
vt 0.315483 0.684404
vt 0.315483 0.998008
vt 0.001879 0.998008
vt 0.321888 0.684404
vt 0.635491 0.684404
vt 0.635491 0.998008
vt 0.321888 0.998008
vt 0.837527 0.680640
vt 0.837527 0.367036
vt 0.994329 0.367036
vt 0.994329 0.680640
vt 0.680725 0.367036
vt 0.680725 0.680640
vt 0.465039 0.680640
vt 0.465039 0.367036
vt 0.621841 0.367036
vt 0.621841 0.680640
vt 0.308237 0.367036
vt 0.308237 0.680640
vt 0.158681 0.363271
vt 0.158681 0.001992
vt 0.315483 0.001992
vt 0.315483 0.315596
vt 0.001879 0.001992
vt 0.001879 0.315596
vt 0.839394 0.363271
vt 0.839394 0.001992
vt 0.996196 0.049667
vt 0.996196 0.363271
vt 0.682592 0.049667
vt 0.682592 0.363271
vn 0.000000 0.000000 1.000000
vn 0.000000 0.000000 1.000000
vn 0.000000 0.000000 1.000000
vn 0.000000 0.000000 1.000000
vn 0.000000 1.000000 0.000000
vn 0.000000 1.000000 0.000000
vn 0.895921 0.444213 0.000000
vn 0.895921 0.444213 0.000000
vn 0.000000 0.000000 -1.000000
vn 0.000000 0.000000 -1.000000
vn 0.000000 0.000000 -1.000000
vn 0.000000 0.000000 -1.000000
vn 0.000000 -1.000000 0.000000
vn 0.000000 -1.000000 0.000000
vn 0.000000 -1.000000 0.000000
vn 0.000000 -1.000000 0.000000
vn 1.000000 0.000000 0.000000
vn 1.000000 0.000000 0.000000
vn 1.000000 0.000000 0.000000
vn 1.000000 0.000000 0.000000
vn -1.000000 0.000000 0.000000
vn -1.000000 0.000000 0.000000
vn -1.000000 0.000000 0.000000
vn -1.000000 0.000000 0.000000
vn 0.000000 -1.000000 0.000000
vn 0.000000 -1.000000 0.000000
vn 0.000000 0.000000 -1.000000
vn 0.000000 0.000000 -1.000000
vn -0.895921 0.444213 0.000000
vn -0.895921 0.444213 0.000000
vn 0.000000 0.000000 1.000000
vn 0.000000 0.000000 1.000000
s 1
g pCube5
usemtl initialShadingGroup
f 60/149/129 57/150/130 50/151/131 52/152/132
s 2
f 59/137/133 60/138/134 52/139/135 54/140/136
s 3
f 58/155/137 59/156/138 54/157/139 56/158/140
s 4
f 57/143/141 58/144/142 56/145/143 50/146/144
s off
f 50/129/145 56/130/146 54/131/147 52/132/148
f 55/133/149 49/134/150 51/135/151 53/136/152
s 4
f 55/147/153 58/144/142 57/143/141 49/148/154
s 3
f 53/159/155 59/156/138 58/155/137 55/160/156
s 2
f 51/141/157 60/138/134 59/137/133 53/142/158
s 1
f 49/153/159 57/150/130 60/149/129 51/154/160
