# This file uses centimeters as units for non-parametric coordinates.

mtllib CurveBlock.mtl
g default
v -66.666672 0.000000 -66.666656
v -66.666672 100.000000 -66.666656
v -197.541275 -0.000000 197.541275
v -198.482193 0.187159 198.482193
v -199.279861 0.720144 199.279861
v -199.812836 1.517861 199.812836
v 0.037226 1.517861 199.812775
v 0.143246 0.720144 199.279785
v 0.301922 0.187150 198.482071
v -200.000000 2.499750 66.666672
v -199.816010 1.543137 66.715225
v -199.292068 0.732160 66.853485
v -198.507935 0.190282 67.060417
v -197.582993 -0.000000 67.304504
v -197.541275 0.000000 -66.666656
v -198.482193 0.187159 -66.666656
v -199.279861 0.720144 -66.666656
v -199.812836 1.517812 -66.666656
v -200.000000 2.458726 -66.666656
v -197.541275 0.000000 -197.541275
v -198.482193 0.187159 -198.482193
v -199.279861 0.720144 -199.279861
v -199.812836 1.517861 -199.812836
v -66.666672 0.000000 -197.541275
v -66.666672 0.187159 -198.482193
v -66.666672 0.720144 -199.279861
v -66.666672 1.517812 -199.812836
v -66.666672 2.458726 -200.000000
v 66.666656 2.499750 -200.000000
v 66.715210 1.543137 -199.816010
v 66.853477 0.732160 -199.292068
v 67.060410 0.190282 -198.507935
v 67.304497 0.000000 -197.582993
v 197.541275 0.000000 -197.541275
v 198.482193 0.187159 -198.482193
v 199.279861 0.720144 -199.279861
v 199.812836 1.517861 -199.812836
v -199.812836 98.482140 199.812836
v -199.279861 99.279854 199.279861
v -198.482193 99.812843 198.482193
v -197.541275 100.000000 197.541275
v 0.301922 99.812851 198.482071
v 0.143246 99.279854 199.279785
v 0.037227 98.482140 199.812775
v -200.000000 97.500252 66.666672
v -199.816010 98.456863 66.715225
v -199.292068 99.267838 66.853485
v -198.507935 99.809715 67.060417
v -197.582993 100.000000 67.304504
v -200.000000 97.541275 -66.666656
v -199.812836 98.482185 -66.666656
v -199.279861 99.279854 -66.666656
v -198.482193 99.812843 -66.666656
v -197.541275 100.000000 -66.666656
v -66.666672 97.541275 -200.000000
v -66.666672 98.482185 -199.812836
v -66.666672 99.279854 -199.279861
v -66.666672 99.812843 -198.482193
v -66.666672 100.000000 -197.541275
v -197.541275 100.000000 -197.541275
v -198.482193 99.812843 -198.482193
v -199.279861 99.279854 -199.279861
v -199.812836 98.482140 -199.812836
v 66.666656 97.500252 -200.000000
v 66.715210 98.456863 -199.816010
v 66.853477 99.267838 -199.292068
v 67.060410 99.809715 -198.507935
v 67.304497 100.000000 -197.582993
v 199.812836 98.482140 -199.812836
v 199.279861 99.279854 -199.279861
v 198.482193 99.812843 -198.482193
v 197.541275 100.000000 -197.541275
v 198.482254 0.187150 0.301935
v 199.279968 0.720144 0.143260
v 199.812958 1.517861 0.037242
v 199.812958 98.482140 0.037242
v 199.279968 99.279854 0.143260
v 198.482254 99.812851 0.301935
v -199.146774 2.458758 199.894791
v -199.595169 2.458850 199.595169
v -199.894791 2.458988 199.146774
v -200.000000 2.459151 198.617844
v -198.617844 2.458726 200.000000
v -199.894791 97.541008 199.146774
v -199.595169 97.541153 199.595169
v -199.146774 97.541245 199.894791
v -198.617844 97.541275 200.000000
v -200.000000 97.540848 198.617844
v -199.894791 2.458726 -199.146774
v -199.595169 2.458726 -199.595169
v -199.146774 2.458726 -199.894791
v -198.617844 2.458726 -200.000000
v -200.000000 2.458726 -198.617844
v -199.146774 97.541275 -199.894791
v -199.595169 97.541275 -199.595169
v -199.894791 97.541275 -199.146774
v -200.000000 97.541275 -198.617844
v -198.617844 97.541275 -200.000000
v 199.146774 2.458988 -199.894791
v 199.595169 2.458850 -199.595169
v 199.894791 2.458758 -199.146774
v 200.000000 2.458726 -198.617844
v 198.617844 2.459151 -200.000000
v 199.894791 97.541245 -199.146774
v 199.595169 97.541153 -199.595169
v 199.146774 97.541008 -199.894791
v 198.617844 97.540848 -200.000000
v 200.000000 97.541275 -198.617844
v 15.238612 0.700900 123.441551
v 15.182682 0.432290 123.429001
v 15.034450 0.204981 123.376579
v 14.816273 0.053255 123.292198
v 14.561078 -0.000000 123.188599
v 58.071411 0.000000 58.071285
v 58.265545 0.053561 58.265419
v 58.430122 0.206091 58.430000
v 58.540089 0.434368 58.539967
v 58.578705 0.703639 58.578583
v 123.463402 0.703639 15.224060
v 123.442505 0.434368 15.173606
v 123.382988 0.206091 15.029926
v 123.293922 0.053561 14.814894
v 123.188858 0.000000 14.561246
v -0.507415 -0.000000 197.541199
v -0.156666 0.015010 197.616653
v 0.127283 0.057202 197.828766
v 0.290543 0.118514 198.137009
v 197.541382 0.000000 -0.507402
v 198.137192 0.118514 0.290557
v 197.828949 0.057202 0.127296
v 197.616837 0.015010 -0.156653
v 14.561308 100.000000 123.188698
v 14.814966 99.946442 123.293747
v 15.030020 99.793915 123.382782
v 15.173732 99.565636 123.442245
v 15.224224 99.296364 123.463089
v -0.507415 100.000000 197.541199
v 0.290544 99.881485 198.137009
v 0.127283 99.942795 197.828766
v -0.156665 99.984993 197.616653
v 58.071411 100.000000 58.071289
v 58.265545 99.946442 58.265423
v 58.430122 99.793907 58.430000
v 58.540089 99.565636 58.539967
v 58.578705 99.296364 58.578583
v 123.190376 100.000000 14.564919
v 123.293640 99.946686 14.818347
v 123.378380 99.794800 15.034682
v 123.431778 99.567299 15.181227
v 123.445778 99.298553 15.235837
v 197.541382 100.000000 -0.507402
v 197.616837 99.984993 -0.156652
v 197.828949 99.942795 0.127296
v 198.137192 99.881485 0.290557
v -0.959971 2.458726 199.999924
v -0.049487 1.880658 199.884933
v -0.268133 2.185342 199.945541
v -0.587031 2.387811 199.985825
v -0.959971 97.541275 199.999924
v -0.587031 97.612190 199.985825
v -0.268133 97.814659 199.945541
v -0.049487 98.119347 199.884933
v 200.000107 2.458726 -0.959956
v 199.986008 2.387811 -0.587016
v 199.945724 2.185342 -0.268118
v 199.885117 1.880657 -0.049472
v 200.000107 97.541275 -0.959956
v 199.885117 98.119347 -0.049472
v 199.945724 97.814659 -0.268118
v 199.986008 97.612190 -0.587016
vt 0.003639 0.163660
vt 0.004800 0.163719
vt 0.004750 0.325617
vt 0.003608 0.325617
vt 0.003608 0.002048
vt 0.004751 0.003499
vt 0.120153 0.163719
vt 0.120203 0.325617
vt 0.004750 0.485837
vt 0.003608 0.487288
vt 0.002654 0.163492
vt 0.002639 0.325617
vt 0.004751 0.002857
vt 0.120202 0.003499
vt 0.002639 0.002696
vt 0.121315 0.163660
vt 0.121345 0.325617
vt 0.120203 0.485837
vt 0.004750 0.486479
vt 0.002639 0.486641
vt 0.001996 0.163241
vt 0.001992 0.325617
vt 0.004750 0.002313
vt 0.120202 0.002857
vt 0.121345 0.002048
vt 0.001992 0.003664
vt 0.122299 0.163492
vt 0.122314 0.325617
vt 0.121345 0.487288
vt 0.120203 0.486479
vt 0.004750 0.487023
vt 0.001992 0.485672
vt 0.004750 0.001949
vt 0.120203 0.002313
vt 0.122314 0.002696
vt 0.122957 0.163241
vt 0.122961 0.325617
vt 0.122314 0.486641
vt 0.120203 0.487023
vt 0.004750 0.487387
vt 0.120203 0.001949
vt 0.122961 0.003664
vt 0.122961 0.485672
vt 0.120203 0.487387
vt 0.380002 0.732737
vt 0.264550 0.732737
vt 0.264550 0.492734
vt 0.380002 0.492734
vt 0.264464 0.733190
vt 0.380089 0.733190
vt 0.263408 0.733948
vt 0.263408 0.491283
vt 0.264218 0.733577
vt 0.263848 0.733843
vt 0.264550 0.492092
vt 0.380002 0.492092
vt 0.381145 0.491283
vt 0.381145 0.733948
vt 0.380704 0.733843
vt 0.380334 0.733577
vt 0.262439 0.491930
vt 0.262439 0.734077
vt 0.264550 0.491547
vt 0.380002 0.491547
vt 0.382114 0.491930
vt 0.382114 0.734077
vt 0.261792 0.492899
vt 0.261792 0.734269
vt 0.264550 0.491183
vt 0.380002 0.491183
vt 0.382761 0.492899
vt 0.382761 0.734269
vt 0.010955 0.622826
vt 0.011281 0.622841
vt 0.010657 0.713958
vt 0.010574 0.713539
vt 0.010957 0.544036
vt 0.011284 0.544083
vt 0.130010 0.715574
vt 0.012273 0.715574
vt 0.011304 0.714927
vt 0.130999 0.622868
vt 0.131626 0.713958
vt 0.130979 0.714927
vt 0.010679 0.622763
vt 0.010499 0.713165
vt 0.010680 0.543902
vt 0.010957 0.491379
vt 0.011284 0.491440
vt 0.130999 0.544083
vt 0.012713 0.715662
vt 0.129570 0.715662
vt 0.131326 0.622842
vt 0.131709 0.713539
vt 0.131002 0.491454
vt 0.131326 0.544036
vt 0.131603 0.622770
vt 0.131784 0.713165
vt 0.131328 0.491388
vt 0.131603 0.543902
vt 0.133525 0.326296
vt 0.132402 0.325999
vt 0.132433 0.163623
vt 0.133576 0.163623
vt 0.133576 0.484434
vt 0.132433 0.485576
vt 0.132433 0.003569
vt 0.133576 0.004711
vt 0.292488 0.163623
vt 0.391118 0.394152
vt 0.373804 0.485576
vt 0.372821 0.484434
vt 0.373247 0.484525
vt 0.373592 0.484783
vt 0.373790 0.485157
vt 0.292488 0.003569
vt 0.292488 0.004711
vt 0.523018 0.262253
vt 0.443950 0.315085
vt 0.131465 0.486545
vt 0.373611 0.486545
vt 0.391428 0.394278
vt 0.391693 0.394381
vt 0.131465 0.002600
vt 0.292488 0.002600
vt 0.454864 0.003537
vt 0.455161 0.004660
vt 0.444185 0.315320
vt 0.523145 0.262561
vt 0.130818 0.487192
vt 0.373483 0.487192
vt 0.444385 0.315520
vt 0.130818 0.001953
vt 0.292488 0.001953
vt 0.454613 0.002585
vt 0.614441 0.003569
vt 0.613299 0.004711
vt 0.613299 0.243956
vt 0.613391 0.244382
vt 0.523253 0.262822
vt 0.454445 0.001949
vt 0.615410 0.002600
vt 0.614441 0.244939
vt 0.614022 0.244925
vt 0.613648 0.244727
vt 0.444519 0.315654
vt 0.523326 0.262997
vt 0.616057 0.001953
vt 0.674439 0.973665
vt 0.674439 0.974807
vt 0.514385 0.974807
vt 0.515527 0.973665
vt 0.837112 0.973715
vt 0.836815 0.974838
vt 0.674439 0.975776
vt 0.513416 0.975776
vt 0.514385 0.814752
vt 0.515527 0.814752
vt 0.674439 0.814752
vt 0.904970 0.716118
vt 0.995250 0.973665
vt 0.996392 0.974807
vt 0.836564 0.975790
vt 0.674439 0.976423
vt 0.512769 0.976423
vt 0.514353 0.652376
vt 0.515476 0.652080
vt 0.773069 0.584223
vt 0.825901 0.663291
vt 0.995250 0.734419
vt 0.996392 0.733437
vt 0.995342 0.733993
vt 0.995599 0.733649
vt 0.995973 0.733450
vt 0.997361 0.975776
vt 0.836396 0.976427
vt 0.514385 0.492799
vt 0.515527 0.493942
vt 0.754772 0.493942
vt 0.773377 0.584096
vt 0.826136 0.663055
vt 0.905096 0.715810
vt 0.905199 0.715548
vt 0.905264 0.715370
vt 0.998008 0.976423
vt 0.755755 0.492799
vt 0.755741 0.493218
vt 0.755543 0.493593
vt 0.755198 0.493850
vt 0.773638 0.583988
vt 0.826336 0.662855
vt 0.826470 0.662722
vt 0.513416 0.491831
vt 0.755562 0.491831
vt 0.512769 0.491183
vt 0.755434 0.491184
vt 0.506603 0.652795
vt 0.505441 0.652854
vt 0.505490 0.492635
vt 0.506633 0.491183
vt 0.506634 0.814752
vt 0.505491 0.814752
vt 0.390039 0.492635
vt 0.390088 0.652854
vt 0.505491 0.491992
vt 0.506633 0.976423
vt 0.505491 0.974972
vt 0.390038 0.814752
vt 0.390039 0.491992
vt 0.388927 0.652795
vt 0.388896 0.491183
vt 0.505491 0.975614
vt 0.390038 0.974972
vt 0.388896 0.814752
vt 0.390038 0.975614
vt 0.388896 0.976423
vt 0.139062 0.492394
vt 0.254514 0.492394
vt 0.254514 0.732397
vt 0.139062 0.732397
vt 0.138975 0.491942
vt 0.254600 0.491942
vt 0.255656 0.491183
vt 0.255656 0.733848
vt 0.254846 0.491554
vt 0.255216 0.491289
vt 0.139062 0.733040
vt 0.254514 0.733040
vt 0.137919 0.733848
vt 0.137919 0.491183
vt 0.138360 0.491289
vt 0.138730 0.491554
vt 0.018179 0.826555
vt 0.017852 0.826580
vt 0.017468 0.735883
vt 0.017552 0.735464
vt 0.138521 0.735464
vt 0.137896 0.826576
vt 0.018199 0.734496
vt 0.019168 0.733849
vt 0.136905 0.733849
vt 0.137874 0.734496
vt 0.138223 0.826593
vt 0.138604 0.735883
vn -0.468781 -0.540989 0.698266
vn 0.000000 -0.647659 0.761930
vn 0.000000 -0.718871 0.695144
vn 0.000000 -0.403559 0.914954
vn -0.199835 -0.933017 0.299240
vn 0.000000 -0.927067 0.374896
vn -0.001020 -1.000000 0.000000
vn -0.388271 -0.921546 -0.000001
vn -0.385668 -0.922638 -0.000018
vn -0.001132 -0.999999 -0.000000
vn -0.713144 -0.701017 -0.000004
vn -0.710216 -0.703983 -0.000001
vn -0.926080 -0.377328 0.000001
vn -0.924948 -0.380094 0.000017
vn -0.999998 -0.001937 0.000000
vn -0.999998 -0.001946 0.000000
vn 0.000000 -1.000000 -0.001020
vn -0.000001 -0.921545 -0.388271
vn 0.299239 -0.933017 -0.199837
vn 0.002565 -0.999995 -0.001707
vn -0.000004 -0.701019 -0.713143
vn -0.000011 -0.641106 -0.767452
vn 0.000001 -0.377328 -0.926080
vn 0.698261 -0.540997 -0.468779
vn -0.000000 -0.001937 -0.999998
vn 0.000784 -0.003018 -0.999995
vn -0.199836 0.933016 0.299242
vn 0.000000 0.647658 0.761931
vn 0.000000 0.718869 0.695146
vn 0.000000 0.927066 0.374898
vn -0.468780 0.540988 0.698267
vn 0.000000 0.403557 0.914954
vn -0.000000 0.999999 -0.001132
vn -0.000018 0.922638 -0.385667
vn -0.248714 0.936100 -0.248714
vn -0.002099 0.999996 -0.002099
vn -0.000001 0.703985 -0.710215
vn 0.000000 0.647514 -0.762054
vn 0.000017 0.380091 -0.924949
vn -0.590231 0.550686 -0.590231
vn 0.000000 0.001946 -0.999998
vn -0.000784 0.003043 -0.999995
vn -0.001132 0.999999 -0.000000
vn 0.000000 1.000000 0.000000
vn -0.002099 -0.999996 -0.002099
vn -0.000000 -0.999999 -0.001132
vn 0.000000 -1.000000 -0.000000
vn -0.999995 -0.003018 0.000784
vn -0.999995 0.003018 0.000784
vn -0.999998 0.001937 0.000000
vn -0.999998 0.001946 0.000000
vn 0.000000 -0.001946 -0.999998
vn -0.000784 -0.003043 -0.999995
vn -0.999995 0.003043 -0.000784
vn -0.999995 -0.003043 -0.000784
vn -0.000000 0.001937 -0.999998
vn 0.000784 0.003018 -0.999995
vn 0.000079 -0.003646 0.999993
vn 0.000079 0.003646 0.999993
vn -0.000523 0.003054 0.999995
vn -0.000523 -0.003054 0.999995
vn 0.999993 0.003646 0.000078
vn 0.999993 -0.003646 0.000078
vn 0.999995 -0.003054 -0.000524
vn 0.999995 0.003054 -0.000524
vn -0.001707 -0.999995 0.002565
vn -0.767452 -0.641106 -0.000011
vn -0.590231 -0.550686 -0.590231
vn -0.762052 -0.647516 -0.000000
vn -0.248713 -0.936100 -0.248713
vn 0.000017 -0.380090 -0.924950
vn -0.000000 -0.647514 -0.762053
vn -0.000001 -0.703985 -0.710215
vn -0.000018 -0.922638 -0.385667
vn 0.761923 -0.647668 -0.000000
vn 0.914950 -0.403567 -0.000001
vn 0.695138 -0.718876 -0.000000
vn 0.374892 -0.927068 -0.000000
vn -0.001707 0.999995 0.002565
vn -0.001020 1.000000 0.000000
vn -0.388272 0.921545 -0.000001
vn -0.767452 0.641107 -0.000011
vn -0.713145 0.701017 -0.000004
vn -0.926079 0.377329 0.000001
vn -0.385669 0.922637 -0.000018
vn -0.710217 0.703983 -0.000001
vn -0.924948 0.380095 0.000017
vn 0.000000 1.000000 -0.001020
vn -0.000001 0.921545 -0.388271
vn -0.000004 0.701018 -0.713143
vn 0.000001 0.377329 -0.926079
vn -0.762052 0.647516 -0.000000
vn 0.002565 0.999995 -0.001707
vn 0.299241 0.933017 -0.199836
vn -0.000011 0.641103 -0.767455
vn 0.698260 0.540997 -0.468781
vn 0.761923 0.647668 -0.000000
vn 0.374894 0.927068 -0.000000
vn 0.695139 0.718875 -0.000000
vn 0.914950 0.403568 -0.000001
vn -0.924000 0.000710 0.382392
vn -0.924000 -0.000710 0.382392
vn -0.707097 0.001673 0.707115
vn -0.707097 -0.001673 0.707115
vn -0.382357 0.000710 0.924014
vn -0.382358 -0.000710 0.924014
vn -0.382355 0.000710 -0.924016
vn -0.382355 -0.000710 -0.924015
vn -0.707105 0.001673 -0.707107
vn -0.707105 -0.001673 -0.707107
vn -0.924014 0.000710 -0.382359
vn -0.924014 -0.000710 -0.382359
vn 0.924016 0.000710 -0.382353
vn 0.924016 -0.000710 -0.382353
vn 0.707116 0.001673 -0.707095
vn 0.707117 -0.001673 -0.707095
vn 0.382388 0.000710 -0.924002
vn 0.382389 -0.000710 -0.924001
vn 0.000115 -1.000000 0.000054
vn 0.248932 -0.961502 0.116394
vn 0.031151 -0.984014 0.175347
vn 0.000106 -0.999996 0.002875
vn 0.520120 -0.818754 0.243139
vn 0.060211 -0.980597 0.186559
vn 0.779067 -0.509801 0.364907
vn 0.598611 -0.792429 0.117139
vn 0.924087 -0.000605 0.382181
vn 0.980773 -0.000031 0.195154
vn 0.910754 -0.371963 0.179360
vn 0.707106 -0.000566 0.707108
vn 0.648609 -0.397879 0.648844
vn 0.366252 -0.506140 0.780821
vn 0.382117 -0.000642 0.924114
vn 0.486004 -0.726206 0.486235
vn 0.244948 -0.816680 0.522526
vn 0.251124 -0.934776 0.251259
vn 0.117576 -0.960951 0.250499
vn 0.000214 -1.000000 0.000215
vn 0.000054 -1.000000 0.000115
vn 0.002875 -0.999996 0.000106
vn 0.000000 -0.980786 0.195089
vn 0.195087 -0.980786 -0.000000
vn 0.186715 -0.980552 0.060460
vn 0.175439 -0.983993 0.031294
vn 0.180045 -0.362322 0.914498
vn 0.195140 -0.000118 0.980775
vn 0.117972 -0.788962 0.603011
vn 0.924116 0.000646 0.382112
vn 0.780813 0.506158 0.366245
vn 0.914471 0.362396 0.180033
vn 0.980773 0.000127 0.195154
vn 0.522518 0.816689 0.244935
vn 0.060461 0.980552 0.186716
vn 0.602990 0.788978 0.117967
vn 0.250490 0.960953 0.117575
vn 0.031294 0.983993 0.175440
vn 0.000115 1.000000 0.000054
vn 0.000106 0.999996 0.002875
vn 0.000215 1.000000 0.000215
vn 0.000054 1.000000 0.000115
vn 0.002875 0.999996 0.000106
vn 0.707103 0.000565 0.707110
vn 0.382173 0.000606 0.924091
vn 0.980773 0.000049 0.195154
vn 0.980773 0.000049 0.195154
vn 0.980773 0.000049 0.195154
vn 0.980773 0.000049 0.195154
vn 0.195140 0.000039 0.980775
vn 0.195141 -0.000040 0.980775
vn 0.195141 -0.000040 0.980775
vn 0.195141 -0.000040 0.980775
vn 0.195141 -0.000040 0.980775
vn 0.000000 0.980786 0.195089
vn 0.175418 0.984000 0.031189
vn 0.186630 0.980580 0.060272
vn 0.195085 0.980786 -0.000000
vn 0.648978 0.397349 0.648800
vn 0.486642 0.725633 0.486453
vn 0.251628 0.934569 0.251526
vn 0.365422 0.508076 0.779952
vn 0.243930 0.817623 0.521527
vn 0.116913 0.961196 0.249867
vn 0.179550 0.369412 0.911755
vn 0.117481 0.791086 0.600317
vn 0.015726 -0.160817 0.986859
vn 0.015726 0.160817 0.986859
vn 0.030261 -0.168795 0.985187
vn 0.030261 0.168795 0.985187
vn 0.041725 -0.182278 0.982361
vn 0.041724 0.182277 0.982361
vn 0.639652 -0.000000 0.768665
vn 0.639652 -0.000000 0.768665
vn 0.768667 -0.000000 0.639650
vn 0.982362 -0.182276 0.041724
vn 0.982362 0.182276 0.041724
vn 0.768667 -0.000000 0.639649
vn 0.985187 -0.168794 0.030264
vn 0.985187 0.168794 0.030264
vn 0.986859 -0.160816 0.015737
vn 0.986859 0.160816 0.015737
s 1
g pPlane1
usemtl lambert3SG
f 6/130/1 5/120/2 8/121/3 7/131/4
f 5/120/2 4/106/5 9/111/6 8/121/3
f 14/101/7 13/102/8 16/103/9 15/104/10
f 13/21/8 12/11/11 17/12/12 16/22/9
f 12/11/11 11/1/13 18/4/14 17/12/12
f 11/1/13 10/2/15 19/3/16 18/4/14
f 33/127/17 32/126/18 35/136/19 34/137/20
f 32/126/18 31/135/21 36/142/22 35/136/19
f 31/135/21 30/141/23 37/148/24 36/142/22
f 30/197/23 29/198/25 103/199/26 37/200/24
f 40/177/27 39/193/28 43/194/29 42/186/30
f 39/193/28 38/195/31 44/196/32 43/194/29
f 59/149/33 58/150/34 61/151/35 60/152/36
f 58/150/34 57/155/37 62/156/38 61/151/35
f 57/155/37 56/164/39 63/165/40 62/156/38
f 56/214/39 55/208/41 98/213/42 63/216/40
f 54/158/43 2/159/44 59/149/33 60/152/36
f 15/104/10 20/108/45 24/117/46 1/109/47
f 10/2/15 82/6/48 88/14/49 45/7/50
f 19/3/16 10/2/15 45/7/50 50/8/51
f 28/202/52 92/207/53 98/213/42 55/208/41
f 97/18/54 93/9/55 19/3/16 50/8/51
f 29/198/25 28/202/52 55/208/41 64/204/56
f 107/203/57 103/199/26 29/198/25 64/204/56
f 155/217/58 159/218/59 87/219/60 83/220/61
f 167/45/62 163/46/63 102/47/64 108/48/65
f 3/105/66 4/106/5 13/102/8 14/101/7
f 4/26/5 5/15/67 12/11/11 13/21/8
f 5/15/67 6/5/1 11/1/13 12/11/11
f 6/5/1 82/6/48 10/2/15 11/1/13
f 18/4/14 19/3/16 93/9/55 23/10/68
f 17/12/12 18/4/14 23/10/68 22/20/69
f 15/104/10 16/103/9 21/107/70 20/108/45
f 16/22/9 17/12/12 22/20/69 21/32/70
f 23/206/68 92/207/53 28/202/52 27/201/71
f 22/124/72 23/133/68 27/134/71 26/125/73
f 20/108/45 21/107/70 25/116/74 24/117/46
f 21/107/70 22/124/72 26/125/73 25/116/74
f 24/117/46 25/116/74 32/126/18 33/127/17
f 25/116/74 26/125/73 31/135/21 32/126/18
f 26/125/73 27/134/71 30/141/23 31/135/21
f 27/201/71 28/202/52 29/198/25 30/197/23
f 36/61/75 37/52/24 75/51/76 74/62/77
f 35/67/19 36/61/75 74/62/77 73/68/78
f 40/177/27 41/178/79 49/167/80 48/166/81
f 39/35/82 40/42/27 48/36/81 47/27/83
f 38/25/31 39/35/82 47/27/83 46/16/84
f 48/166/81 49/167/80 54/158/43 53/157/85
f 47/27/83 48/36/81 53/37/85 52/28/86
f 45/7/50 46/16/84 51/17/87 50/8/51
f 46/16/84 47/27/83 52/28/86 51/17/87
f 58/150/34 59/149/33 68/153/88 67/154/89
f 57/155/37 58/150/34 67/154/89 66/163/90
f 55/208/41 56/214/39 65/210/91 64/204/56
f 56/164/39 57/155/37 66/163/90 65/176/91
f 50/8/51 51/17/87 63/29/40 97/18/54
f 51/17/87 52/28/86 62/38/92 63/29/40
f 52/28/86 53/37/85 61/43/35 62/38/92
f 53/157/85 54/158/43 60/152/36 61/151/35
f 67/154/89 68/153/88 72/161/93 71/162/94
f 66/163/90 67/154/89 71/162/94 70/175/95
f 64/204/56 65/210/91 69/211/96 107/203/57
f 65/176/91 66/163/90 70/175/95 69/185/96
f 70/65/97 71/71/94 78/72/98 77/66/99
f 69/57/96 70/65/97 77/66/99 76/58/100
f 88/14/49 38/25/31 46/16/84 45/7/50
f 82/6/48 81/13/101 84/24/102 88/14/49
f 81/13/101 80/23/103 85/34/104 84/24/102
f 80/23/103 79/33/105 86/41/106 85/34/104
f 79/227/105 83/220/61 87/219/60 86/228/106
f 92/207/53 91/212/107 94/215/108 98/213/42
f 91/40/107 90/31/109 95/39/110 94/44/108
f 90/31/109 89/19/111 96/30/112 95/39/110
f 89/19/111 93/9/55 97/18/54 96/30/112
f 102/47/64 101/55/113 104/56/114 108/48/65
f 101/55/113 100/63/115 105/64/116 104/56/114
f 100/63/115 99/69/117 106/70/118 105/64/116
f 99/205/117 103/199/26 107/203/57 106/209/118
f 6/229/1 83/220/61 79/227/105
f 6/5/1 79/33/105 80/23/103
f 6/5/1 80/23/103 81/13/101
f 6/5/1 81/13/101 82/6/48
f 38/25/31 88/14/49 84/24/102
f 38/25/31 84/24/102 85/34/104
f 38/25/31 85/34/104 86/41/106
f 38/224/31 86/228/106 87/219/60
f 23/10/68 93/9/55 89/19/111
f 23/10/68 89/19/111 90/31/109
f 23/10/68 90/31/109 91/40/107
f 23/206/68 91/212/107 92/207/53
f 63/216/40 98/213/42 94/215/108
f 63/29/40 94/44/108 95/39/110
f 63/29/40 95/39/110 96/30/112
f 63/29/40 96/30/112 97/18/54
f 37/200/24 103/199/26 99/205/117
f 37/52/24 99/69/117 100/63/115
f 37/52/24 100/63/115 101/55/113
f 37/52/24 101/55/113 102/47/64
f 69/57/96 108/48/65 104/56/114
f 69/57/96 104/56/114 105/64/116
f 69/57/96 105/64/116 106/70/118
f 69/211/96 106/209/118 107/203/57
f 113/110/119 112/122/120 125/113/121 124/112/122
f 112/122/120 111/123/123 126/114/124 125/113/121
f 111/85/123 110/73/125 127/76/126 126/86/124
f 110/73/125 109/74/127 9/75/128 127/76/129
f 118/78/130 117/77/131 120/88/132 119/89/133
f 117/146/131 116/132/134 121/140/135 120/147/132
f 116/132/134 115/128/136 122/129/137 121/140/135
f 115/128/136 114/119/138 123/118/139 122/129/137
f 113/110/119 1/109/47 123/118/139 114/119/138
f 3/105/66 14/101/7 113/110/119 124/112/122
f 14/101/7 15/104/10 1/109/47 113/110/119
f 1/109/47 24/117/46 33/127/17 123/118/139
f 123/118/139 33/127/17 34/137/20 128/138/140
f 9/111/6 4/106/5 3/105/66 124/112/122 125/113/121 126/114/124 127/115/141
f 128/138/140 34/137/20 35/136/19 73/143/78 129/144/142 130/145/143 131/139/144
f 109/74/127 110/73/125 117/77/131 118/78/130
f 110/73/125 111/85/123 116/87/134 117/77/131
f 111/123/123 112/122/120 115/128/136 116/132/134
f 112/122/120 113/110/119 114/119/138 115/128/136
f 122/129/137 123/118/139 128/138/140 131/139/144
f 121/140/135 122/129/137 131/139/144 130/145/143
f 119/233/133 120/234/132 129/235/145 73/236/146
f 120/147/132 121/140/135 130/145/143 129/144/147
f 136/82/148 135/93/149 138/94/150 42/83/151
f 135/93/149 134/97/152 139/98/153 138/94/154
f 134/190/152 133/180/155 140/189/156 139/188/153
f 133/180/155 132/168/157 137/179/158 140/189/156
f 132/168/157 141/169/159 146/160/160 2/159/44
f 41/178/79 137/179/158 132/168/157 49/167/80
f 49/167/80 132/168/157 2/159/44 54/158/43
f 2/159/44 146/160/160 68/153/88 59/149/33
f 146/160/160 151/170/161 72/161/93 68/153/88
f 109/74/127 118/78/130 145/90/162 136/82/148
f 118/78/130 119/89/133 150/95/163 145/90/162
f 44/79/164 7/80/165 8/81/166 9/75/128 109/74/127 136/82/148 42/83/151 43/84/167
f 78/237/168 150/238/163 119/233/133 73/236/146 74/239/169 75/240/170 76/241/171 77/242/172
f 137/179/158 41/178/79 40/177/27 42/186/30 138/187/173 139/188/153 140/189/156
f 78/171/98 71/162/94 72/161/93 151/170/161 152/172/174 153/173/175 154/174/176
f 135/93/149 136/82/148 145/90/162 144/96/177
f 134/97/152 135/93/149 144/96/177 143/100/178
f 132/168/157 133/180/155 142/181/179 141/169/159
f 133/180/155 134/190/152 143/191/178 142/181/179
f 144/96/177 145/90/162 150/95/163 149/99/180
f 143/191/178 144/192/177 149/184/180 148/183/181
f 141/169/159 142/181/179 147/182/182 146/160/160
f 142/181/179 143/191/178 148/183/181 147/182/182
f 149/243/180 150/238/163 78/237/168 154/244/183
f 148/183/181 149/184/180 154/174/184 153/173/175
f 146/160/160 147/182/182 152/172/174 151/170/161
f 147/182/182 148/183/181 153/173/175 152/172/174
f 155/217/58 158/221/185 160/222/186 159/218/59
f 158/221/185 157/232/187 161/225/188 160/222/186
f 157/232/187 156/231/189 162/226/190 161/225/188
f 156/91/189 7/80/191 44/79/192 162/92/190
f 75/51/193 166/54/194 168/59/195 76/58/196
f 166/54/194 165/53/197 169/60/198 168/59/195
f 165/53/197 164/49/199 170/50/200 169/60/198
f 164/49/199 163/46/63 167/45/62 170/50/200
f 155/217/58 83/220/61 6/229/1 7/230/4 156/231/189 157/232/187 158/221/185
f 44/223/32 38/224/31 87/219/60 159/218/59 160/222/186 161/225/188 162/226/190
f 75/51/76 37/52/24 102/47/64 163/46/63 164/49/199 165/53/197 166/54/194
f 167/45/62 108/48/65 69/57/96 76/58/100 168/59/195 169/60/198 170/50/200
