# OBJ File Generated by UnrealEd

g windmill-blade_8

v 124.5401 220.0764 -174.9022
v 124.5401 220.0764 -166.0813
v 121.4433 220.0764 -166.0813
v 121.4433 220.0764 -174.9022
v 122.4320 289.9394 -225.8607
v 122.4323 445.0194 -225.8607
v 123.5514 289.9394 -225.8607
v 123.5516 445.0194 -225.8607
v 125.7493 445.0194 -161.4671
v 120.2346 289.9395 -161.4671
v 125.7490 289.9394 -161.4671
v 120.2349 445.0195 -161.4671
v 121.4433 220.0764 -166.0813
v 121.4434 289.9395 -166.0813
v 121.4433 220.0764 -174.9022
v 121.4434 289.9395 -174.9022
v 124.5401 220.0764 -174.9022
v 121.4434 289.9395 -174.9022
v 124.5402 289.9394 -174.9022
v 121.4433 220.0764 -174.9022
v 124.5402 289.9394 -166.0813
v 124.5401 220.0764 -166.0813
v 124.5402 289.9394 -174.9022
v 124.5401 220.0764 -174.9022
v 121.4434 289.9395 -166.0813
v 121.4433 220.0764 -166.0813
v 124.5402 289.9394 -166.0813
v 124.5401 220.0764 -166.0813
v 123.5514 289.9394 -225.8607
v 120.2346 289.9395 -190.7452
v 122.4320 289.9394 -225.8607
v 125.7490 289.9394 -190.7452
v 124.5402 289.9394 -174.9022
v 125.7490 289.9394 -161.4671
v 121.4434 289.9395 -174.9022
v 124.5402 289.9394 -166.0813
v 120.2346 289.9395 -161.4671
v 120.2346 289.9395 -190.7452
v 121.4434 289.9395 -166.0813
v 125.7493 445.0194 -161.4671
v 125.7490 289.9394 -161.4671
v 125.7492 445.0194 -190.7452
v 125.7490 289.9394 -190.7452
v 123.5514 289.9394 -225.8607
v 123.5516 445.0194 -225.8607
v 125.7493 445.0194 -161.4671
v 120.2348 445.0195 -190.7452
v 120.2349 445.0195 -161.4671
v 125.7492 445.0194 -190.7452
v 123.5516 445.0194 -225.8607
v 122.4323 445.0194 -225.8607
v 120.2346 289.9395 -161.4671
v 120.2349 445.0195 -161.4671
v 120.2346 289.9395 -190.7452
v 120.2348 445.0195 -190.7452
v 122.4323 445.0194 -225.8607
v 122.4320 289.9394 -225.8607

vt 0.0668 0.0942
vt 0.0668 0.0757
vt 0.1245 0.0757
vt 0.1245 0.0942
vt 0.9893 0.2495
vt 0.9893 0.9862
vt 0.9785 0.2495
vt 0.9785 0.9862
vt 0.6816 0.9836
vt 0.6489 0.2593
vt 0.6816 0.2593
vt 0.6489 0.9836
vt 0.2766 0.0986
vt 0.7310 0.0986
vt 0.2766 0.1372
vt 0.7310 0.1372
vt 0.7222 0.1772
vt 0.2771 0.1934
vt 0.2771 0.1772
vt 0.7222 0.1934
vt 0.2778 0.0400
vt 0.7305 0.0400
vt 0.2778 0.0830
vt 0.7305 0.0830
vt 0.2773 0.1499
vt 0.7251 0.1499
vt 0.2773 0.1650
vt 0.7251 0.1650
vt 0.6250 0.9891
vt 0.4885 0.9585
vt 0.6250 0.9585
vt 0.4885 0.9891
vt 0.4885 0.9891
vt 0.3750 0.9891
vt 0.4885 0.9585
vt 0.3750 0.9891
vt 0.3750 0.9585
vt 0.4885 0.9585
vt 0.3750 0.9585
vt 0.7144 0.9889
vt 0.7144 0.2500
vt 0.8281 0.9889
vt 0.8281 0.2500
vt 0.9644 0.2500
vt 0.9644 0.9889
vt 0.3750 0.2500
vt 0.4885 0.2808
vt 0.3750 0.2808
vt 0.4885 0.2500
vt 0.6250 0.2500
vt 0.6250 0.2808
vt 0.3750 0.9585
vt 0.3750 0.2808
vt 0.4885 0.9585
vt 0.4885 0.2808
vt 0.6250 0.2808
vt 0.6250 0.9585

vn -0.000 -0.029 -0.000
vn -0.000 -0.029 -0.000
vn -0.000 -0.029 -0.000
vn -0.000 -0.029 -0.000
vn -0.000 0.000 -0.029
vn -0.000 0.000 -0.029
vn -0.000 0.000 -0.029
vn -0.000 0.000 -0.029
vn 0.000 -0.000 0.029
vn 0.000 -0.000 0.029
vn 0.000 -0.000 0.029
vn 0.000 -0.000 0.029
vn -0.029 0.000 0.000
vn -0.029 0.000 0.000
vn -0.029 0.000 0.000
vn -0.029 0.000 0.000
vn -0.000 0.000 -0.029
vn -0.000 0.000 -0.029
vn -0.000 0.000 -0.029
vn -0.000 0.000 -0.029
vn 0.029 -0.000 -0.000
vn 0.029 -0.000 -0.000
vn 0.029 -0.000 -0.000
vn 0.029 -0.000 -0.000
vn 0.000 -0.000 0.029
vn 0.000 -0.000 0.029
vn 0.000 -0.000 0.029
vn 0.000 -0.000 0.029
vn -0.000 -0.029 -0.000
vn -0.000 -0.029 -0.000
vn -0.000 -0.029 -0.000
vn -0.000 -0.029 -0.000
vn -0.000 -0.029 -0.000
vn -0.000 -0.029 -0.000
vn -0.000 -0.029 -0.000
vn -0.000 -0.029 -0.000
vn -0.000 -0.029 -0.000
vn -0.000 -0.029 -0.000
vn -0.000 -0.029 -0.000
vn 0.029 -0.000 -0.000
vn 0.029 -0.000 -0.000
vn 0.029 -0.000 -0.001
vn 0.029 -0.000 -0.001
vn 0.029 -0.000 -0.002
vn 0.029 -0.000 -0.002
vn 0.000 0.029 0.000
vn 0.000 0.029 0.000
vn 0.000 0.029 0.000
vn 0.000 0.029 0.000
vn 0.000 0.029 0.000
vn 0.000 0.029 0.000
vn -0.029 0.000 0.000
vn -0.029 0.000 0.000
vn -0.029 0.000 -0.001
vn -0.029 0.000 -0.001
vn -0.029 0.000 -0.002
vn -0.029 0.000 -0.002

usemtl /Game/Materials/mi_windmill-blade_mi_windmill-blade
f 30/30/30 33/33/33 35/35/35 
f 1/1/1 3/3/3 4/4/4 
f 5/5/5 6/6/6 7/7/7 
f 8/8/8 7/7/7 6/6/6 
f 9/9/9 10/10/10 11/11/11 
f 10/10/10 9/9/9 12/12/12 
f 13/13/13 14/14/14 15/15/15 
f 15/15/15 14/14/14 16/16/16 
f 17/17/17 18/18/18 19/19/19 
f 18/18/18 17/17/17 20/20/20 
f 21/21/21 22/22/22 23/23/23 
f 23/23/23 22/22/22 24/24/24 
f 25/25/25 26/26/26 27/27/27 
f 28/28/28 27/27/27 26/26/26 
f 29/29/29 30/30/30 31/31/31 
f 29/29/29 32/32/32 30/30/30 
f 33/33/33 30/30/30 32/32/32 
f 32/32/32 34/34/34 33/33/33 
f 1/1/1 2/2/2 3/3/3 
f 33/33/33 34/34/34 36/36/36 
f 37/37/37 36/36/36 34/34/34 
f 37/37/37 38/38/38 35/35/35 
f 36/36/36 37/37/37 39/39/39 
f 37/37/37 35/35/35 39/39/39 
f 40/40/40 41/41/41 42/42/42 
f 42/42/42 41/41/41 43/43/43 
f 42/42/42 43/43/43 44/44/44 
f 44/44/44 45/45/45 42/42/42 
f 46/46/46 47/47/47 48/48/48 
f 46/46/46 49/49/49 47/47/47 
f 50/50/50 47/47/47 49/49/49 
f 47/47/47 50/50/50 51/51/51 
f 52/52/52 53/53/53 54/54/54 
f 54/54/54 53/53/53 55/55/55 
f 54/54/54 55/55/55 56/56/56 
f 56/56/56 57/57/57 54/54/54 

# dElaernU yb detareneG eliF JBO
