# This file uses centimeters as units for non-parametric coordinates.

mtllib block 1 final.mtl
g default
v -1.728108 1.268090 2.669261
v -1.398518 1.199722 2.669261
v -1.398518 1.268090 2.821062
v -1.398518 1.433145 2.883941
v -1.728108 1.433145 2.821062
v -1.864629 1.433145 2.669261
v 1.728108 1.268090 2.669261
v 1.864629 1.433145 2.669261
v 1.728108 1.433145 2.821062
v 1.398518 1.433145 2.883941
v 1.398518 1.268090 2.821062
v 1.398518 1.199722 2.669261
v -1.728108 2.998924 2.669261
v -1.864629 2.833869 2.669261
v -1.728108 2.833869 2.821062
v -1.398518 2.833869 2.883941
v -1.398518 2.998924 2.821062
v -1.398518 3.067292 2.669261
v 1.728108 2.998924 2.669261
v 1.398518 3.067292 2.669261
v 1.398518 2.998924 2.821062
v 1.398518 2.833869 2.883941
v 1.728108 2.833869 2.821062
v 1.864629 2.833869 2.669261
v -1.728108 2.833869 -2.821062
v -1.864629 2.833869 -2.669261
v -1.728108 2.998924 -2.669261
v -1.398518 3.067292 -2.669261
v -1.398518 2.998924 -2.821062
v -1.398518 2.833869 -2.883941
v 1.728108 2.833869 -2.821062
v 1.398518 2.833869 -2.883941
v 1.398518 2.998924 -2.821062
v 1.398518 3.067292 -2.669261
v 1.728108 2.998924 -2.669261
v 1.864629 2.833869 -2.669261
v -1.728108 1.268090 -2.669261
v -1.864629 1.433145 -2.669261
v -1.728108 1.433145 -2.821062
v -1.398518 1.433145 -2.883941
v -1.398518 1.268090 -2.821062
v -1.398518 1.199722 -2.669261
v 1.728108 1.268090 -2.669261
v 1.398518 1.199722 -2.669261
v 1.398518 1.268090 -2.821062
v 1.398518 1.433145 -2.883941
v 1.728108 1.433145 -2.821062
v 1.864629 1.433145 -2.669261
v -1.667533 1.298425 2.793163
v 1.667533 1.298425 2.793163
v -1.667533 2.968589 2.793163
v 1.667533 2.968589 2.793163
v -1.667533 2.968589 -2.793163
v 1.667533 2.968589 -2.793163
v -1.667533 1.298425 -2.793163
v 1.667533 1.298425 -2.793163
vt 0.326105 0.011015
vt 0.356405 0.011015
vt 0.356405 0.328336
vt 0.326105 0.328336
vt 0.356405 0.001992
vt 0.331673 0.003650
vt 0.613545 0.011015
vt 0.613545 0.328336
vt 0.356405 0.337359
vt 0.331673 0.335701
vt 0.613545 0.001992
vt 0.643845 0.011015
vt 0.643845 0.328336
vt 0.613545 0.337359
vt 0.638276 0.003650
vt 0.638276 0.335701
vt 0.655354 0.667473
vt 0.625054 0.667473
vt 0.625054 0.350152
vt 0.655354 0.350152
vt 0.655354 0.676496
vt 0.630623 0.674838
vt 0.655354 0.341130
vt 0.630623 0.342788
vt 0.912494 0.350152
vt 0.912494 0.667473
vt 0.912494 0.676496
vt 0.912494 0.341130
vt 0.942794 0.667473
vt 0.942794 0.350152
vt 0.937226 0.674838
vt 0.937226 0.342788
vt 0.032182 0.328336
vt 0.001882 0.328336
vt 0.001882 0.011015
vt 0.032182 0.011015
vt 0.032182 0.337359
vt 0.007451 0.335701
vt 0.032182 0.001992
vt 0.007451 0.003650
vt 0.289322 0.011015
vt 0.289322 0.328336
vt 0.289322 0.337359
vt 0.289322 0.001992
vt 0.319622 0.328336
vt 0.319622 0.011015
vt 0.314053 0.335701
vt 0.314053 0.003650
vt 0.301518 0.350152
vt 0.331818 0.350152
vt 0.331818 0.667473
vt 0.301518 0.667473
vt 0.331818 0.341130
vt 0.307087 0.342788
vt 0.588958 0.350152
vt 0.588958 0.667473
vt 0.331818 0.676496
vt 0.307087 0.674838
vt 0.588958 0.341130
vt 0.619258 0.350152
vt 0.619258 0.667473
vt 0.588958 0.676496
vt 0.613689 0.342788
vt 0.613689 0.674838
vt 0.032182 0.710567
vt 0.032182 0.680267
vt 0.289322 0.680267
vt 0.289322 0.710567
vt 0.001882 0.710567
vt 0.007451 0.685836
vt 0.319622 0.710567
vt 0.314053 0.685836
vt 0.289322 0.967707
vt 0.032182 0.967707
vt 0.001882 0.967707
vt 0.319622 0.967707
vt 0.032182 0.998008
vt 0.289322 0.998008
vt 0.007451 0.992439
vt 0.314053 0.992439
vt 0.326105 0.710568
vt 0.356405 0.710568
vt 0.356405 0.967708
vt 0.326105 0.967708
vt 0.356405 0.680267
vt 0.331673 0.685836
vt 0.613545 0.710568
vt 0.613545 0.967708
vt 0.356405 0.998008
vt 0.331673 0.992439
vt 0.613545 0.680267
vt 0.643845 0.710568
vt 0.643845 0.967708
vt 0.613545 0.998008
vt 0.638276 0.685836
vt 0.638276 0.992439
vn -0.021626 -0.999695 0.011905
vn -0.202684 -0.979217 0.007281
vn -0.202684 -0.979217 -0.007281
vn -0.021626 -0.999695 -0.011905
vn -0.771195 -0.636496 0.011451
vn -0.996021 -0.085914 0.023686
vn -0.996021 -0.085914 -0.023686
vn -0.771195 -0.636496 -0.011451
vn -0.019529 -0.038997 0.999048
vn -0.012130 -0.353203 0.935468
vn 0.012130 -0.353203 0.935468
vn 0.019529 -0.038997 0.999048
vn -0.015890 -0.913358 0.406846
vn -0.021626 -0.999695 0.011905
vn 0.021626 -0.999695 0.011905
vn 0.015890 -0.913358 0.406847
vn -0.996021 -0.085914 0.023686
vn -0.746189 -0.051765 0.663718
vn -0.746189 0.051765 0.663718
vn -0.996021 0.085914 0.023686
vn -0.185730 -0.025434 0.982272
vn -0.019529 -0.038997 0.999048
vn -0.019529 0.038997 0.999048
vn -0.185730 0.025434 0.982272
vn 0.996021 -0.085914 0.023686
vn 0.771195 -0.636496 0.011451
vn 0.771195 -0.636496 -0.011451
vn 0.996021 -0.085914 -0.023686
vn 0.202684 -0.979217 0.007281
vn 0.021626 -0.999695 0.011905
vn 0.021626 -0.999695 -0.011905
vn 0.202684 -0.979217 -0.007281
vn 0.019529 -0.038997 0.999048
vn 0.185730 -0.025434 0.982272
vn 0.185730 0.025434 0.982272
vn 0.019529 0.038997 0.999048
vn 0.746189 -0.051765 0.663718
vn 0.996021 -0.085914 0.023686
vn 0.996021 0.085914 0.023686
vn 0.746189 0.051765 0.663718
vn -0.996021 0.085914 0.023686
vn -0.771195 0.636496 0.011451
vn -0.771195 0.636496 -0.011451
vn -0.996021 0.085914 -0.023686
vn -0.202684 0.979217 0.007281
vn -0.021626 0.999695 0.011905
vn -0.021626 0.999695 -0.011905
vn -0.202684 0.979217 -0.007281
vn -0.021626 0.999695 0.011905
vn -0.015890 0.913358 0.406847
vn 0.015890 0.913358 0.406846
vn 0.021626 0.999695 0.011905
vn -0.012130 0.353203 0.935468
vn -0.019529 0.038997 0.999048
vn 0.019529 0.038997 0.999048
vn 0.012130 0.353203 0.935468
vn 0.021626 0.999695 0.011905
vn 0.202684 0.979217 0.007281
vn 0.202684 0.979217 -0.007281
vn 0.021626 0.999695 -0.011905
vn 0.771195 0.636496 0.011451
vn 0.996021 0.085914 0.023686
vn 0.996021 0.085914 -0.023686
vn 0.771195 0.636496 -0.011451
vn -0.996021 0.085914 -0.023686
vn -0.746189 0.051765 -0.663718
vn -0.746189 -0.051765 -0.663718
vn -0.996021 -0.085914 -0.023686
vn -0.185730 0.025434 -0.982272
vn -0.019529 0.038997 -0.999048
vn -0.019529 -0.038997 -0.999048
vn -0.185730 -0.025434 -0.982272
vn -0.019529 0.038997 -0.999048
vn -0.012130 0.353203 -0.935468
vn 0.012130 0.353203 -0.935468
vn 0.019529 0.038997 -0.999048
vn -0.015890 0.913358 -0.406846
vn -0.021626 0.999695 -0.011905
vn 0.021626 0.999695 -0.011905
vn 0.015890 0.913358 -0.406847
vn 0.019529 0.038997 -0.999048
vn 0.185730 0.025434 -0.982272
vn 0.185730 -0.025434 -0.982272
vn 0.019529 -0.038997 -0.999048
vn 0.746189 0.051765 -0.663718
vn 0.996021 0.085914 -0.023686
vn 0.996021 -0.085914 -0.023686
vn 0.746189 -0.051765 -0.663718
vn -0.021626 -0.999695 -0.011905
vn -0.015890 -0.913358 -0.406847
vn 0.015890 -0.913358 -0.406846
vn 0.021626 -0.999695 -0.011905
vn -0.012130 -0.353203 -0.935468
vn -0.019529 -0.038997 -0.999048
vn 0.019529 -0.038997 -0.999048
vn 0.012130 -0.353203 -0.935468
vn -0.019529 -0.038997 0.999048
vn 0.019529 -0.038997 0.999048
vn 0.019529 0.038997 0.999048
vn -0.019529 0.038997 0.999048
vn -0.021626 0.999695 0.011905
vn 0.021626 0.999695 0.011905
vn 0.021626 0.999695 -0.011905
vn -0.021626 0.999695 -0.011905
vn -0.019529 0.038997 -0.999048
vn 0.019529 0.038997 -0.999048
vn 0.019529 -0.038997 -0.999048
vn -0.019529 -0.038997 -0.999048
vn -0.021626 -0.999695 -0.011905
vn 0.021626 -0.999695 -0.011905
vn 0.021626 -0.999695 0.011905
vn -0.021626 -0.999695 0.011905
vn 0.996021 -0.085914 0.023686
vn 0.996021 -0.085914 -0.023686
vn 0.996021 0.085914 -0.023686
vn 0.996021 0.085914 0.023686
vn -0.996021 -0.085914 -0.023686
vn -0.996021 -0.085914 0.023686
vn -0.996021 0.085914 0.023686
vn -0.996021 0.085914 -0.023686
vn -0.746189 -0.051765 0.663718
vn -0.996021 -0.085914 0.023686
vn -0.771195 -0.636496 0.011451
vn -0.679204 -0.496838 0.540216
vn -0.202684 -0.979217 0.007281
vn -0.021626 -0.999695 0.011905
vn -0.015890 -0.913358 0.406846
vn -0.168008 -0.915811 0.364778
vn -0.012130 -0.353203 0.935468
vn -0.019529 -0.038997 0.999048
vn -0.185730 -0.025434 0.982272
vn -0.157885 -0.315274 0.935775
vn 0.015890 -0.913358 0.406847
vn 0.021626 -0.999695 0.011905
vn 0.202684 -0.979217 0.007281
vn 0.168008 -0.915811 0.364778
vn 0.771195 -0.636496 0.011451
vn 0.996021 -0.085914 0.023686
vn 0.746189 -0.051765 0.663718
vn 0.679204 -0.496838 0.540216
vn 0.185730 -0.025434 0.982272
vn 0.019529 -0.038997 0.999048
vn 0.012130 -0.353203 0.935468
vn 0.157885 -0.315274 0.935775
vn -0.015890 0.913358 0.406847
vn -0.021626 0.999695 0.011905
vn -0.202684 0.979217 0.007281
vn -0.168008 0.915811 0.364778
vn -0.771195 0.636496 0.011451
vn -0.996021 0.085914 0.023686
vn -0.746189 0.051765 0.663718
vn -0.679204 0.496838 0.540216
vn -0.185730 0.025434 0.982272
vn -0.019529 0.038997 0.999048
vn -0.012130 0.353203 0.935468
vn -0.157885 0.315274 0.935775
vn 0.746189 0.051765 0.663718
vn 0.996021 0.085914 0.023686
vn 0.771195 0.636496 0.011451
vn 0.679204 0.496838 0.540216
vn 0.202684 0.979217 0.007281
vn 0.021626 0.999695 0.011905
vn 0.015890 0.913358 0.406846
vn 0.168008 0.915811 0.364778
vn 0.012130 0.353203 0.935468
vn 0.019529 0.038997 0.999048
vn 0.185730 0.025434 0.982272
vn 0.157885 0.315274 0.935775
vn -0.012130 0.353203 -0.935468
vn -0.019529 0.038997 -0.999048
vn -0.185730 0.025434 -0.982272
vn -0.157885 0.315274 -0.935775
vn -0.746189 0.051765 -0.663718
vn -0.996021 0.085914 -0.023686
vn -0.771195 0.636496 -0.011451
vn -0.679204 0.496838 -0.540216
vn -0.202684 0.979217 -0.007281
vn -0.021626 0.999695 -0.011905
vn -0.015890 0.913358 -0.406846
vn -0.168008 0.915811 -0.364778
vn 0.771195 0.636496 -0.011451
vn 0.996021 0.085914 -0.023686
vn 0.746189 0.051765 -0.663718
vn 0.679204 0.496838 -0.540216
vn 0.185730 0.025434 -0.982272
vn 0.019529 0.038997 -0.999048
vn 0.012130 0.353203 -0.935468
vn 0.157885 0.315274 -0.935775
vn 0.015890 0.913358 -0.406847
vn 0.021626 0.999695 -0.011905
vn 0.202684 0.979217 -0.007281
vn 0.168008 0.915811 -0.364778
vn -0.015890 -0.913358 -0.406847
vn -0.021626 -0.999695 -0.011905
vn -0.202684 -0.979217 -0.007281
vn -0.168008 -0.915811 -0.364778
vn -0.771195 -0.636496 -0.011451
vn -0.996021 -0.085914 -0.023686
vn -0.746189 -0.051765 -0.663718
vn -0.679204 -0.496838 -0.540216
vn -0.185730 -0.025434 -0.982272
vn -0.019529 -0.038997 -0.999048
vn -0.012130 -0.353203 -0.935468
vn -0.157885 -0.315274 -0.935775
vn 0.746189 -0.051765 -0.663718
vn 0.996021 -0.085914 -0.023686
vn 0.771195 -0.636496 -0.011451
vn 0.679204 -0.496838 -0.540216
vn 0.202684 -0.979217 -0.007281
vn 0.021626 -0.999695 -0.011905
vn 0.015890 -0.913358 -0.406846
vn 0.168008 -0.915811 -0.364778
vn 0.012130 -0.353203 -0.935468
vn 0.019529 -0.038997 -0.999048
vn 0.185730 -0.025434 -0.982272
vn 0.157885 -0.315274 -0.935775
s off
g pCube1
usemtl lambert3SG
f 2/33/1 1/34/2 37/35/3 42/36/4
f 1/1/5 6/2/6 38/3/7 37/4/8
f 4/65/9 3/66/10 11/67/11 10/68/12
f 3/37/13 2/33/14 12/42/15 11/43/16
f 6/2/17 5/5/18 15/11/19 14/7/20
f 5/69/21 4/65/22 16/74/23 15/75/24
f 8/17/25 7/18/26 43/19/27 48/20/28
f 7/45/29 12/42/30 44/41/31 43/46/32
f 10/68/33 9/71/34 23/76/35 22/73/36
f 9/21/37 8/17/38 24/26/39 23/27/40
f 14/7/41 13/12/42 27/13/43 26/8/44
f 13/49/45 18/50/46 28/51/47 27/52/48
f 18/50/49 17/53/50 21/59/51 20/55/52
f 17/77/53 16/74/54 22/73/55 21/78/56
f 20/55/57 19/60/58 35/61/59 34/56/60
f 19/29/61 24/26/62 36/25/63 35/30/64
f 26/8/65 25/14/66 39/9/67 38/3/68
f 25/81/69 30/82/70 40/83/71 39/84/72
f 30/82/73 29/85/74 33/91/75 32/87/76
f 29/57/77 28/51/78 34/56/79 33/62/80
f 32/87/81 31/92/82 47/93/83 46/88/84
f 31/28/85 36/25/86 48/20/87 47/23/88
f 42/36/89 41/39/90 45/44/91 44/41/92
f 41/89/93 40/83/94 46/88/95 45/94/96
f 4/65/97 10/68/98 22/73/99 16/74/100
f 18/50/101 20/55/102 34/56/103 28/51/104
f 30/82/105 32/87/106 46/88/107 40/83/108
f 42/36/109 44/41/110 12/42/111 2/33/112
f 8/17/113 48/20/114 36/25/115 24/26/116
f 38/3/117 6/2/118 14/7/119 26/8/120
f 5/5/121 6/2/122 1/1/123 49/6/124
f 1/34/125 2/33/126 3/37/127 49/38/128
f 3/66/129 4/65/130 5/69/131 49/70/132
f 11/43/133 12/42/134 7/45/135 50/47/136
f 7/18/137 8/17/138 9/21/139 50/22/140
f 9/71/141 10/68/142 11/67/143 50/72/144
f 17/53/145 18/50/146 13/49/147 51/54/148
f 13/12/149 14/7/150 15/11/151 51/15/152
f 15/75/153 16/74/154 17/77/155 51/79/156
f 23/27/157 24/26/158 19/29/159 52/31/160
f 19/60/161 20/55/162 21/59/163 52/63/164
f 21/78/165 22/73/166 23/76/167 52/80/168
f 29/85/169 30/82/170 25/81/171 53/86/172
f 25/14/173 26/8/174 27/13/175 53/16/176
f 27/52/177 28/51/178 29/57/179 53/58/180
f 35/30/181 36/25/182 31/28/183 54/32/184
f 31/92/185 32/87/186 33/91/187 54/95/188
f 33/62/189 34/56/190 35/61/191 54/64/192
f 41/39/193 42/36/194 37/35/195 55/40/196
f 37/4/197 38/3/198 39/9/199 55/10/200
f 39/84/201 40/83/202 41/89/203 55/90/204
f 47/23/205 48/20/206 43/19/207 56/24/208
f 43/46/209 44/41/210 45/44/211 56/48/212
f 45/94/213 46/88/214 47/93/215 56/96/216
