# This file uses centimeters as units for non-parametric coordinates.

mtllib Station_Cover_Block.mtl
g default
v -698.820984 -98.820969 397.572144
v -697.571533 -100.000000 397.571533
v -697.570740 -98.820969 398.820984
v -697.571533 -97.571541 400.000000
v -698.820984 -97.571541 398.820984
v -700.000000 -97.571541 397.571533
v 0.000000 -100.000000 397.571533
v 1.717180 -100.000000 397.571533
v 1.717178 -98.820976 398.820984
v 1.717180 -97.571541 400.000000
v 0.000000 -97.571541 400.000000
v -1.717180 -97.571541 400.000000
v -1.717179 -98.820976 398.820984
v -1.717180 -100.000000 397.571533
v 698.820984 -98.820969 397.572144
v 700.000000 -97.571541 397.571533
v 698.820984 -97.571541 398.820984
v 697.571533 -97.571541 400.000000
v 697.570740 -98.820969 398.820984
v 697.571533 -100.000000 397.571533
v -698.978455 -94.224808 397.537720
v -700.000000 -95.634804 397.538300
v -698.844971 -95.455048 398.805023
v -697.622803 -95.256615 400.000000
v -697.757874 -94.025726 398.804962
v -697.891479 -92.864571 397.538300
v 0.000000 99.543900 397.582886
v -1.709150 99.527672 397.582886
v -1.715150 98.300011 398.826477
v -1.721158 96.999031 400.000000
v 0.001557 97.011917 400.000000
v 1.725136 96.992096 400.000000
v 1.717139 98.296646 398.826477
v 1.709150 99.527672 397.582886
v 698.978455 -94.224808 397.537720
v 697.891479 -92.864571 397.538300
v 697.757874 -94.025726 398.804962
v 697.622803 -95.256615 400.000000
v 698.844971 -95.455048 398.805023
v 700.000000 -95.634804 397.538300
v -698.844971 -95.447647 -398.813110
v -700.000000 -95.620033 -397.554932
v -698.978455 -94.217644 -397.546326
v -697.891479 -92.864571 -397.538300
v -697.757874 -94.025726 -398.804962
v -697.622803 -95.256615 -400.000000
v 0.000000 97.008469 -400.000000
v -1.725136 96.992096 -400.000000
v -1.719148 98.296074 -398.823730
v -1.713165 99.526558 -397.577209
v -0.001938 99.543358 -397.580048
v 1.709150 99.527672 -397.582886
v 1.717139 98.296646 -398.826477
v 1.725136 96.992096 -400.000000
v 698.844971 -95.447647 -398.813110
v 697.622803 -95.256615 -400.000000
v 697.765015 -94.027725 -398.813049
v 697.905762 -92.868507 -397.554932
v 698.985352 -94.219551 -397.554657
v 700.000000 -95.620033 -397.554932
v -698.820984 -98.820976 -397.571838
v -700.000000 -97.571541 -397.571533
v -698.820984 -97.571541 -398.820984
v -697.571533 -97.571541 -400.000000
v -697.570740 -98.820969 -398.820984
v -697.571533 -100.000000 -397.571533
v 0.000000 -100.000000 -397.571533
v -1.717180 -100.000000 -397.571533
v -1.717178 -98.820976 -398.820984
v -1.717180 -97.571541 -400.000000
v 0.000000 -97.571541 -400.000000
v 1.717180 -97.571541 -400.000000
v 1.717178 -98.820976 -398.820984
v 1.717180 -100.000000 -397.571533
v 698.820984 -98.820976 -397.571838
v 697.571533 -100.000000 -397.571533
v 697.570740 -98.820969 -398.820984
v 697.571533 -97.571541 -400.000000
v 698.820984 -97.571541 -398.820984
v 700.000000 -97.571541 -397.571533
v -698.417786 -98.418251 398.418579
v -0.000000 -98.820976 398.820984
v 698.417786 -98.418251 398.418579
v -698.540222 -94.558731 398.396454
v 0.000781 98.314621 398.826477
v 698.540222 -94.558731 398.396454
v -698.540161 -94.553925 -398.402039
v -0.000969 98.312668 -398.825104
v 698.544861 -94.555222 -398.407471
v -698.417786 -98.418259 -398.418396
v 0.000000 -98.820976 -398.820984
v 698.417786 -98.418259 -398.418396
vt 0.995757 0.382828
vt 0.995757 0.002497
vt 0.996690 0.002505
vt 0.996683 0.382812
vt 0.995159 0.382828
vt 0.995159 0.002497
vt 0.996772 0.001903
vt 0.995757 0.001899
vt 0.997357 0.382812
vt 0.997360 0.002505
vt 0.995757 0.383425
vt 0.996769 0.383418
vt 0.995351 0.383233
vt 0.994595 0.382828
vt 0.994595 0.002497
vt 0.995351 0.002092
vt 0.997199 0.002097
vt 0.996864 0.001335
vt 0.995757 0.001335
vt 0.997198 0.383222
vt 0.998008 0.382812
vt 0.998006 0.002505
vt 0.995757 0.383989
vt 0.996864 0.383989
vt 0.995159 0.383425
vt 0.995159 0.001899
vt 0.997452 0.001903
vt 0.997453 0.383418
vt 0.985651 0.382828
vt 0.985651 0.002497
vt 0.986577 0.002513
vt 0.986584 0.382820
vt 0.985053 0.002497
vt 0.985053 0.382828
vt 0.985651 0.001899
vt 0.986663 0.001907
vt 0.987251 0.002513
vt 0.987255 0.382816
vt 0.986667 0.383422
vt 0.985651 0.383425
vt 0.985246 0.002092
vt 0.985246 0.383233
vt 0.984489 0.002497
vt 0.984489 0.382828
vt 0.985651 0.001335
vt 0.986758 0.001335
vt 0.987092 0.002102
vt 0.987902 0.002513
vt 0.987902 0.382812
vt 0.987094 0.383225
vt 0.986758 0.383989
vt 0.985651 0.383989
vt 0.985053 0.001899
vt 0.985053 0.383425
vt 0.987347 0.001907
vt 0.987347 0.383418
vt 0.975893 0.334175
vt 0.975893 0.334996
vt 0.595562 0.334996
vt 0.595562 0.334175
vt 0.976491 0.334175
vt 0.976491 0.334996
vt 0.975893 0.335817
vt 0.595562 0.335817
vt 0.594965 0.334175
vt 0.594965 0.334996
vt 0.595562 0.001335
vt 0.975893 0.001335
vt 0.976491 0.001336
vt 0.977055 0.334175
vt 0.977055 0.334996
vt 0.976491 0.335817
vt 0.595562 0.668657
vt 0.975893 0.668657
vt 0.594965 0.335817
vt 0.594965 0.001336
vt 0.594401 0.334996
vt 0.594401 0.334175
vt 0.977055 0.001335
vt 0.977055 0.335817
vt 0.976491 0.668656
vt 0.594965 0.668656
vt 0.594401 0.335817
vt 0.594401 0.001335
vt 0.977055 0.668657
vt 0.594401 0.668657
vt 0.003148 0.335973
vt 0.003148 0.335156
vt 0.383489 0.335157
vt 0.383487 0.335975
vt 0.002553 0.335976
vt 0.002553 0.335156
vt 0.003148 0.334338
vt 0.383490 0.334338
vt 0.384083 0.335978
vt 0.384084 0.335156
vt 0.003169 0.668970
vt 0.383469 0.668970
vt 0.002564 0.668906
vt 0.001992 0.335979
vt 0.001992 0.335155
vt 0.002553 0.334335
vt 0.003169 0.001342
vt 0.383477 0.001335
vt 0.384085 0.334335
vt 0.384074 0.668906
vt 0.384646 0.335156
vt 0.384646 0.335981
vt 0.001992 0.668841
vt 0.001992 0.334331
vt 0.002564 0.001406
vt 0.384078 0.001403
vt 0.384646 0.334331
vt 0.384646 0.668841
vt 0.001992 0.001471
vt 0.384646 0.001471
vt 0.392282 0.335842
vt 0.392282 0.335021
vt 0.485355 0.335020
vt 0.485349 0.335844
vt 0.392282 0.334199
vt 0.485346 0.334195
vt 0.392282 0.668681
vt 0.393390 0.668706
vt 0.392282 0.001360
vt 0.393390 0.001335
vt 0.493349 0.335846
vt 0.493342 0.335021
vt 0.586413 0.335021
vt 0.586413 0.335842
vt 0.493349 0.334195
vt 0.586413 0.334199
vt 0.585305 0.668706
vt 0.586413 0.668681
vt 0.585305 0.001335
vt 0.586413 0.001360
vn -0.686310 -0.727309 0.000000
vn -0.707114 -0.707100 0.000000
vn -0.707114 -0.707100 0.000000
vn -0.686310 -0.727309 0.000000
vn -0.727323 -0.686296 0.000000
vn -0.727323 -0.686296 0.000000
vn 0.000000 -0.686318 0.727301
vn -0.000000 -0.707108 0.707105
vn -0.000000 -0.707108 0.707105
vn 0.000000 -0.686318 0.727301
vn -0.000000 -0.727304 0.686316
vn -0.000000 -0.727304 0.686316
vn -0.733269 0.003929 0.679927
vn -0.712035 -0.002951 0.702138
vn -0.716842 0.161222 0.678340
vn -0.738069 0.127054 0.662655
vn -0.692313 -0.009142 0.721539
vn -0.692314 -0.009142 0.721539
vn 0.000000 -1.000000 0.000000
vn 0.000000 -1.000000 0.000000
vn 0.000000 -1.000000 0.000000
vn 0.000000 -1.000000 0.000000
vn 0.000000 -1.000000 0.000000
vn 0.000000 -1.000000 0.000000
vn 0.000000 -0.686318 0.727301
vn 0.000000 -0.707108 0.707105
vn 0.000000 -0.707108 0.707105
vn 0.000000 -0.686318 0.727301
vn 0.000000 -0.727304 0.686316
vn 0.000000 -0.727304 0.686316
vn 0.000000 0.000000 1.000000
vn 0.000000 0.000000 1.000000
vn 0.000000 0.000000 1.000000
vn 0.000000 0.000000 1.000000
vn 0.000000 0.000000 1.000000
vn 0.000000 0.000000 1.000000
vn 0.727323 -0.686296 0.000000
vn 0.707114 -0.707100 0.000000
vn 0.707114 -0.707100 0.000000
vn 0.727323 -0.686296 0.000000
vn 0.686310 -0.727309 0.000000
vn 0.686310 -0.727309 0.000000
vn 0.692313 -0.009139 0.721540
vn 0.712035 -0.002948 0.702138
vn 0.716841 0.161227 0.678340
vn 0.692313 -0.009139 0.721539
vn 0.733269 0.003932 0.679928
vn 0.738068 0.127061 0.662655
vn -0.809016 0.587787 0.000008
vn -0.794939 0.606690 0.000005
vn -0.794982 0.606633 0.000005
vn -0.809016 0.587787 0.000008
vn -0.780421 0.625254 0.000003
vn -0.780421 0.625254 0.000003
vn -0.195440 0.705456 0.681274
vn -0.189958 0.684810 0.703528
vn -0.189895 0.688785 0.699654
vn -0.194486 0.705588 0.681411
vn -0.184669 0.666364 0.722396
vn -0.183767 0.666488 0.722512
vn -0.265783 0.964033 -0.000000
vn -0.000163 1.000000 -0.000001
vn -0.000153 1.000000 -0.000001
vn -0.265783 0.964033 -0.000000
vn 0.265783 0.964033 0.000000
vn 0.265783 0.964033 0.000000
vn 0.194382 0.705207 0.681834
vn 0.189794 0.688408 0.700052
vn 0.189849 0.684414 0.703943
vn 0.195335 0.705076 0.681698
vn 0.183660 0.666078 0.722917
vn 0.184556 0.665956 0.722802
vn 0.781214 0.624264 0.000011
vn 0.795726 0.605656 0.000011
vn 0.795726 0.605656 0.000011
vn 0.781214 0.624264 0.000011
vn 0.809796 0.586711 0.000011
vn 0.809796 0.586711 0.000011
vn -0.736554 0.124089 -0.664899
vn -0.715050 0.159746 -0.680576
vn -0.710811 -0.005558 -0.703361
vn -0.731983 -0.000192 -0.681323
vn -0.691025 -0.010417 -0.722755
vn -0.691025 -0.010417 -0.722755
vn -0.184661 0.666362 -0.722400
vn -0.189946 0.684810 -0.703531
vn -0.189894 0.688784 -0.699655
vn -0.183770 0.666484 -0.722515
vn -0.195427 0.705459 -0.681276
vn -0.194484 0.705589 -0.681411
vn -0.000000 0.000000 -1.000000
vn 0.000000 0.000000 -1.000000
vn 0.000000 0.000000 -1.000000
vn -0.000000 0.000000 -1.000000
vn 0.000000 0.000000 -1.000000
vn 0.000000 0.000000 -1.000000
vn 0.183324 0.664894 -0.724091
vn 0.189462 0.687259 -0.701270
vn 0.189524 0.683302 -0.705109
vn 0.184214 0.664768 -0.723981
vn 0.194053 0.704090 -0.683082
vn 0.195007 0.703954 -0.682950
vn 0.691025 -0.010425 -0.722755
vn 0.715141 0.157546 -0.680994
vn 0.710811 -0.005565 -0.703361
vn 0.691025 -0.010425 -0.722755
vn 0.736586 0.122152 -0.665222
vn 0.731983 -0.000200 -0.681323
vn -0.000000 -0.727304 -0.686316
vn -0.000000 -0.707108 -0.707105
vn -0.000000 -0.707108 -0.707105
vn -0.000000 -0.727304 -0.686316
vn -0.000000 -0.686318 -0.727301
vn -0.000000 -0.686318 -0.727301
vn 0.000000 -0.727304 -0.686316
vn 0.000000 -0.707108 -0.707105
vn 0.000000 -0.707108 -0.707105
vn 0.000000 -0.727304 -0.686316
vn 0.000000 -0.686318 -0.727301
vn 0.000000 -0.686318 -0.727301
vn 0.000000 0.000000 1.000000
vn 0.000000 0.000000 1.000000
vn 0.000000 0.000000 1.000000
vn 0.000000 0.000000 1.000000
vn -0.266369 0.963871 -0.000000
vn -0.266369 0.963871 -0.000000
vn 0.266369 0.963871 0.000000
vn 0.266369 0.963871 0.000000
vn 0.000000 0.000000 -1.000000
vn 0.000000 0.000000 -1.000000
vn 0.000000 0.000000 -1.000000
vn 0.000000 0.000000 -1.000000
vn 0.000000 -1.000000 0.000000
vn 0.000000 -1.000000 0.000000
vn 0.000000 -1.000000 0.000000
vn 0.000000 -1.000000 0.000000
vn 1.000000 -0.000049 0.000000
vn 1.000000 -0.000049 0.000000
vn 1.000000 -0.000049 0.000000
vn 1.000000 -0.000049 0.000000
vn -1.000000 -0.000038 0.000000
vn -1.000000 -0.000038 0.000000
vn -1.000000 -0.000038 0.000000
vn -1.000000 -0.000038 0.000000
vn -0.583803 -0.564058 0.583963
vn -0.603534 -0.563681 0.563924
vn -0.583742 -0.583846 0.564242
vn -0.577167 -0.577379 0.577504
vn -0.563475 -0.603554 0.564108
vn -0.563756 -0.584002 0.584056
vn -0.563597 -0.563989 0.603552
vn 0.000000 -0.727307 0.686312
vn 0.000000 -0.707107 0.707106
vn 0.000000 -0.686313 0.727306
vn 0.563752 -0.584002 0.584059
vn 0.563474 -0.603553 0.564110
vn 0.583741 -0.583851 0.564238
vn 0.577164 -0.577383 0.577504
vn 0.603534 -0.563689 0.563916
vn 0.583799 -0.564063 0.583961
vn 0.563590 -0.563991 0.603557
vn -0.666769 0.507392 0.545869
vn -0.660034 0.502194 0.558709
vn 0.000349 0.711191 0.702999
vn 0.000677 0.690560 0.723275
vn 0.001011 0.669308 0.742984
vn 0.666768 0.507392 0.545870
vn 0.660032 0.502195 0.558711
vn -0.655934 0.504967 -0.561034
vn -0.662631 0.510279 -0.548211
vn -0.000359 0.669315 -0.742979
vn -0.000701 0.690566 -0.723269
vn -0.001047 0.711197 -0.702992
vn 0.664345 0.505556 -0.550508
vn 0.657552 0.500298 -0.563318
vn -0.563815 -0.583988 -0.584013
vn -0.563564 -0.603509 -0.564068
vn -0.583770 -0.583861 -0.564198
vn -0.577196 -0.577397 -0.577457
vn -0.603504 -0.563758 -0.563880
vn -0.583801 -0.564107 -0.583917
vn -0.563628 -0.564010 -0.603503
vn 0.000000 -0.727307 -0.686312
vn 0.000000 -0.707107 -0.707106
vn 0.000000 -0.686313 -0.727306
vn 0.583796 -0.564115 -0.583915
vn 0.603498 -0.563770 -0.563874
vn 0.583766 -0.583866 -0.564196
vn 0.577193 -0.577402 -0.577457
vn 0.563563 -0.603508 -0.564070
vn 0.563812 -0.583989 -0.584014
vn 0.563622 -0.564014 -0.603505
s 1
g pCube1
usemtl blinn1SG
f 2/43/1 1/33/2 61/34/3 66/44/4
f 1/33/2 6/30/5 62/29/6 61/34/3
s 2
f 4/85/7 3/81/8 13/72/9 12/80/10
f 3/81/8 2/74/11 14/63/12 13/72/9
s 3
f 6/30/13 5/35/14 23/36/15 22/31/16
f 5/35/14 4/45/17 24/46/18 23/36/15
s 4
f 8/57/19 7/58/20 67/59/21 74/60/22
f 7/58/20 14/63/23 68/64/24 67/59/21
s 2
f 10/70/25 9/61/26 19/69/27 18/79/28
f 9/61/26 8/57/29 20/68/30 19/69/27
s 6
f 12/117/31 11/118/32 31/119/33 30/120/34
f 11/118/32 10/121/35 32/122/36 31/119/33
s 7
f 16/1/37 15/5/38 75/6/39 80/2/40
f 15/5/38 20/14/41 76/15/42 75/6/39
s 3
f 18/23/43 17/11/44 39/12/45 38/24/46
f 17/11/44 16/1/47 40/4/48 39/12/45
s 9
f 22/31/49 21/37/50 43/38/51 42/32/52
f 21/37/50 26/48/53 44/49/54 43/38/51
s 3
f 26/97/55 25/99/56 29/91/57 28/87/58
f 25/99/56 24/109/59 30/100/60 29/91/57
s 11
f 28/87/61 27/88/62 51/89/63 50/90/64
f 27/88/62 34/93/65 52/94/66 51/89/63
s 3
f 34/93/67 33/102/68 37/111/69 36/103/70
f 33/102/68 32/110/71 38/115/72 37/111/69
s 13
f 36/21/73 35/9/74 59/10/75 58/22/76
f 35/9/74 40/4/77 60/3/78 59/10/75
s 14
f 42/32/79 41/39/80 63/40/81 62/29/82
f 41/39/80 46/51/83 64/52/84 63/40/81
f 46/114/85 45/106/86 49/95/87 48/108/88
f 45/106/86 44/98/89 50/90/90 49/95/87
s 16
f 48/127/91 47/128/92 71/129/93 70/130/94
f 47/128/92 54/131/95 72/132/96 71/129/93
s 14
f 54/113/97 53/105/98 57/112/99 56/116/100
f 53/105/98 52/94/101 58/104/102 57/112/99
f 56/18/103 55/7/104 79/8/105 78/19/106
f 55/7/104 60/3/107 80/2/108 79/8/105
s 19
f 66/73/109 65/82/110 69/75/111 68/64/112
f 65/82/110 64/86/113 70/83/114 69/75/111
f 74/60/115 73/65/116 77/76/117 76/67/118
f 73/65/116 72/78/119 78/84/120 77/76/117
s 6
f 4/123/121 12/117/31 30/120/34 24/124/122
f 10/121/35 18/125/123 38/126/124 32/122/36
s 11
f 26/97/125 28/87/61 50/90/64 44/98/126
f 34/93/65 36/103/127 58/104/128 52/94/66
s 16
f 46/133/129 48/127/91 70/130/94 64/134/130
f 54/131/95 56/135/131 78/136/132 72/132/96
s 4
f 66/73/133 68/64/24 14/63/23 2/74/134
f 74/60/22 76/67/135 20/68/136 8/57/19
s off
f 16/1/137 80/2/138 60/3/139 40/4/140
f 62/29/141 6/30/142 22/31/143 42/32/144
s 21
f 5/35/145 6/30/146 1/33/147 81/41/148
f 1/33/147 2/43/149 3/53/150 81/41/148
f 3/53/150 4/45/151 5/35/145 81/41/148
s 2
f 13/72/9 14/63/12 7/58/152 82/62/153
f 7/58/152 8/57/29 9/61/26 82/62/153
f 9/61/26 10/70/25 11/71/154 82/62/153
f 11/71/154 12/80/10 13/72/9 82/62/153
s 22
f 19/25/155 20/14/156 15/5/157 83/13/158
f 15/5/157 16/1/159 17/11/160 83/13/158
f 17/11/160 18/23/161 19/25/155 83/13/158
s 3
f 25/55/56 26/48/55 21/37/162 84/47/163
f 21/37/162 22/31/16 23/36/15 84/47/163
f 23/36/15 24/46/59 25/55/56 84/47/163
f 33/102/68 34/93/67 27/88/164 85/92/165
f 27/88/164 28/87/58 29/91/57 85/92/165
f 29/91/57 30/100/60 31/101/166 85/92/165
f 31/101/166 32/110/71 33/102/68 85/92/165
f 39/12/45 40/4/48 35/9/167 86/20/168
f 35/9/167 36/21/70 37/28/69 86/20/168
f 37/28/69 38/24/72 39/12/45 86/20/168
s 14
f 45/56/86 46/51/85 41/39/80 87/50/169
f 41/39/80 42/32/79 43/38/170 87/50/169
f 43/38/170 44/49/89 45/56/86 87/50/169
f 53/105/98 54/113/97 47/107/171 88/96/172
f 47/107/171 48/108/88 49/95/87 88/96/172
f 49/95/87 50/90/90 51/89/173 88/96/172
f 51/89/173 52/94/101 53/105/98 88/96/172
f 59/10/174 60/3/107 55/7/104 89/17/175
f 55/7/104 56/18/100 57/27/99 89/17/175
f 57/27/99 58/22/102 59/10/174 89/17/175
s 23
f 65/54/176 66/44/177 61/34/178 90/42/179
f 61/34/178 62/29/180 63/40/181 90/42/179
f 63/40/181 64/52/182 65/54/176 90/42/179
s 19
f 73/65/116 74/60/115 67/59/183 91/66/184
f 67/59/183 68/64/112 69/75/111 91/66/184
f 69/75/111 70/83/114 71/77/185 91/66/184
f 71/77/185 72/78/119 73/65/116 91/66/184
s 24
f 79/8/186 80/2/187 75/6/188 92/16/189
f 75/6/188 76/15/190 77/26/191 92/16/189
f 77/26/191 78/19/192 79/8/186 92/16/189
